SourceCodeProM0.ufo
<glyph name="exclam" format="1">
  <advance width="600"/>
  <unicode hex="0021"/>
  <outline>
    <contour>
      <point x="288" y="214" type="line"/>
      <point x="312" y="214" type="line"/>
      <point x="314" y="608" type="line"/>
      <point x="314" y="670" type="line"/>
      <point x="286" y="670" type="line"/>
      <point x="286" y="608" type="line"/>
    </contour>
    <contour>
      <point x="248" y="46" type="curve" smooth="yes"/>
      <point x="248" y="8"/>
      <point x="274" y="-12"/>
      <point x="300" y="-12" type="curve" smooth="yes"/>
      <point x="326" y="-12"/>
      <point x="352" y="8"/>
      <point x="352" y="46" type="curve" smooth="yes"/>
      <point x="352" y="84"/>
      <point x="326" y="104"/>
      <point x="300" y="104" type="curve" smooth="yes"/>
      <point x="274" y="104"/>
      <point x="248" y="84"/>
    </contour>
  </outline>
</glyph>
<glyph name="quotedbl" format="1">
  <advance width="600"/>
  <unicode hex="0022"/>
  <outline>
    <contour>
      <point x="186" y="392" type="line"/>
      <point x="214" y="392" type="line"/>
      <point x="232" y="607" type="line"/>
      <point x="231" y="688" type="line"/>
      <point x="169" y="688" type="line"/>
      <point x="168" y="607" type="line"/>
    </contour>
    <contour>
      <point x="386" y="392" type="line"/>
      <point x="414" y="392" type="line"/>
      <point x="432" y="607" type="line"/>
      <point x="431" y="688" type="line"/>
      <point x="369" y="688" type="line"/>
      <point x="368" y="607" type="line"/>
    </contour>
  </outline>
</glyph>
<glyph name="numbersign" format="1">
  <advance width="600"/>
  <unicode hex="0023"/>
  <outline>
    <contour>
      <point x="158" y="0" type="line"/>
      <point x="186" y="0" type="line"/>
      <point x="212" y="218" type="line"/>
      <point x="368" y="218" type="line"/>
      <point x="342" y="0" type="line"/>
      <point x="370" y="0" type="line"/>
      <point x="396" y="218" type="line"/>
      <point x="486" y="218" type="line"/>
      <point x="486" y="246" type="line"/>
      <point x="400" y="246" type="line"/>
      <point x="422" y="424" type="line"/>
      <point x="506" y="424" type="line"/>
      <point x="506" y="452" type="line"/>
      <point x="424" y="452" type="line"/>
      <point x="450" y="650" type="line"/>
      <point x="422" y="650" type="line"/>
      <point x="396" y="452" type="line"/>
      <point x="240" y="452" type="line"/>
      <point x="266" y="650" type="line"/>
      <point x="238" y="650" type="line"/>
      <point x="212" y="452" type="line"/>
      <point x="120" y="452" type="line"/>
      <point x="120" y="424" type="line"/>
      <point x="210" y="424" type="line"/>
      <point x="188" y="246" type="line"/>
      <point x="100" y="246" type="line"/>
      <point x="100" y="218" type="line"/>
      <point x="184" y="218" type="line"/>
    </contour>
    <contour>
      <point x="216" y="246" type="line"/>
      <point x="238" y="424" type="line"/>
      <point x="394" y="424" type="line"/>
      <point x="372" y="246" type="line"/>
    </contour>
  </outline>
</glyph>
<glyph name="dollar" format="1">
  <advance width="600"/>
  <unicode hex="0024"/>
  <outline>
    <contour>
      <point x="480" y="548" type="line"/>
      <point x="441" y="584"/>
      <point x="399" y="614"/>
      <point x="323" y="618" type="curve"/>
      <point x="323" y="750" type="line"/>
      <point x="293" y="750" type="line"/>
      <point x="293" y="618" type="line"/>
      <point x="202" y="612"/>
      <point x="132" y="559"/>
      <point x="132" y="476" type="curve" smooth="yes"/>
      <point x="132" y="310"/>
      <point x="470" y="338"/>
      <point x="470" y="182" type="curve" smooth="yes"/>
      <point x="470" y="112"/>
      <point x="414" y="62"/>
      <point x="311" y="62" type="curve" smooth="yes"/>
      <point x="226" y="62"/>
      <point x="160" y="100"/>
      <point x="120" y="134" type="curve"/>
      <point x="102" y="112" type="line"/>
      <point x="144" y="77"/>
      <point x="210" y="39"/>
      <point x="293" y="35" type="curve"/>
      <point x="293" y="-110" type="line"/>
      <point x="323" y="-110" type="line"/>
      <point x="323" y="34" type="line"/>
      <point x="421" y="38"/>
      <point x="502" y="94"/>
      <point x="502" y="184" type="curve" smooth="yes"/>
      <point x="502" y="368"/>
      <point x="164" y="336"/>
      <point x="164" y="478" type="curve" smooth="yes"/>
      <point x="164" y="546"/>
      <point x="221" y="590"/>
      <point x="306" y="590" type="curve" smooth="yes"/>
      <point x="382" y="590"/>
      <point x="416" y="566"/>
      <point x="460" y="528" type="curve"/>
    </contour>
  </outline>
</glyph>
<glyph name="ampersand" format="1">
  <advance width="600"/>
  <unicode hex="0026"/>
  <outline>
    <contour>
      <point x="245" y="16" type="curve" smooth="yes"/>
      <point x="161" y="16"/>
      <point x="89" y="76"/>
      <point x="89" y="168" type="curve" smooth="yes"/>
      <point x="89" y="239"/>
      <point x="143" y="290"/>
      <point x="206" y="339" type="curve"/>
      <point x="254" y="248"/>
      <point x="327" y="160"/>
      <point x="399" y="93" type="curve"/>
      <point x="356" y="48"/>
      <point x="303" y="16"/>
    </contour>
    <contour>
      <point x="179" y="530" type="curve" smooth="yes"/>
      <point x="179" y="592"/>
      <point x="215" y="644"/>
      <point x="277" y="644" type="curve" smooth="yes"/>
      <point x="333" y="644"/>
      <point x="353" y="598"/>
      <point x="353" y="554" type="curve" smooth="yes"/>
      <point x="353" y="482"/>
      <point x="287" y="432"/>
      <point x="218" y="380" type="curve"/>
      <point x="194" y="432"/>
      <point x="179" y="483"/>
    </contour>
    <contour>
      <point x="569" y="16" type="line"/>
      <point x="530" y="31"/>
      <point x="486" y="58"/>
      <point x="439" y="97" type="curve"/>
      <point x="492" y="164"/>
      <point x="531" y="250"/>
      <point x="557" y="342" type="curve"/>
      <point x="527" y="342" type="line"/>
      <point x="503" y="254"/>
      <point x="468" y="177"/>
      <point x="418" y="115" type="curve"/>
      <point x="348" y="179"/>
      <point x="276" y="267"/>
      <point x="229" y="357" type="curve"/>
      <point x="305" y="415"/>
      <point x="383" y="472"/>
      <point x="383" y="556" type="curve" smooth="yes"/>
      <point x="383" y="622"/>
      <point x="347" y="672"/>
      <point x="279" y="672" type="curve" smooth="yes"/>
      <point x="203" y="672"/>
      <point x="149" y="612"/>
      <point x="149" y="528" type="curve" smooth="yes"/>
      <point x="149" y="476"/>
      <point x="166" y="419"/>
      <point x="194" y="362" type="curve"/>
      <point x="124" y="309"/>
      <point x="57" y="251"/>
      <point x="57" y="166" type="curve" smooth="yes"/>
      <point x="57" y="56"/>
      <point x="143" y="-12"/>
      <point x="243" y="-12" type="curve" smooth="yes"/>
      <point x="316" y="-12"/>
      <point x="372" y="23"/>
      <point x="420" y="74" type="curve"/>
      <point x="471" y="31"/>
      <point x="517" y="3"/>
      <point x="557" y="-12" type="curve"/>
    </contour>
  </outline>
</glyph>
<glyph name="period" format="1">
  <advance width="600"/>
  <unicode hex="002E"/>
  <outline>
    <contour>
      <point x="248" y="46" type="curve" smooth="yes"/>
      <point x="248" y="8"/>
      <point x="274" y="-12"/>
      <point x="300" y="-12" type="curve" smooth="yes"/>
      <point x="326" y="-12"/>
      <point x="352" y="8"/>
      <point x="352" y="46" type="curve" smooth="yes"/>
      <point x="352" y="84"/>
      <point x="326" y="104"/>
      <point x="300" y="104" type="curve" smooth="yes"/>
      <point x="274" y="104"/>
      <point x="248" y="84"/>
    </contour>
  </outline>
</glyph>
<glyph name="one" format="1">
  <advance width="600"/>
  <unicode hex="0031"/>
  <outline>
    <contour>
      <point x="336" y="28" type="line"/>
      <point x="336" y="640" type="line"/>
      <point x="313" y="640" type="line"/>
      <point x="278" y="624"/>
      <point x="229" y="610"/>
      <point x="166" y="602" type="curve"/>
      <point x="166" y="580" type="line"/>
      <point x="306" y="580" type="line"/>
      <point x="306" y="28" type="line"/>
      <point x="112" y="28" type="line"/>
      <point x="112" y="0" type="line"/>
      <point x="520" y="0" type="line"/>
      <point x="520" y="28" type="line"/>
    </contour>
  </outline>
</glyph>
<glyph name="two" format="1">
  <advance width="600"/>
  <unicode hex="0032"/>
  <outline>
    <contour>
      <point x="85" y="0" type="line"/>
      <point x="511" y="0" type="line"/>
      <point x="511" y="28" type="line"/>
      <point x="253" y="28" type="line" smooth="yes"/>
      <point x="212" y="28"/>
      <point x="173" y="26"/>
      <point x="132" y="24" type="curve"/>
      <point x="346" y="223"/>
      <point x="475" y="346"/>
      <point x="475" y="476" type="curve" smooth="yes"/>
      <point x="475" y="582"/>
      <point x="404" y="652"/>
      <point x="280" y="652" type="curve" smooth="yes"/>
      <point x="196" y="652"/>
      <point x="134" y="610"/>
      <point x="83" y="558" type="curve"/>
      <point x="105" y="538" type="line"/>
      <point x="150" y="588"/>
      <point x="211" y="624"/>
      <point x="279" y="624" type="curve" smooth="yes"/>
      <point x="395" y="624"/>
      <point x="444" y="558"/>
      <point x="444" y="476" type="curve" smooth="yes"/>
      <point x="444" y="358"/>
      <point x="329" y="242"/>
      <point x="85" y="20" type="curve"/>
    </contour>
  </outline>
</glyph>
<glyph name="six" format="1">
  <advance width="600"/>
  <unicode hex="0036"/>
  <outline>
    <contour>
      <point x="326" y="16" type="curve" smooth="yes"/>
      <point x="194" y="16"/>
      <point x="132" y="115"/>
      <point x="123" y="254" type="curve"/>
      <point x="190" y="327"/>
      <point x="263" y="356"/>
      <point x="322" y="356" type="curve" smooth="yes"/>
      <point x="436" y="356"/>
      <point x="492" y="292"/>
      <point x="492" y="186" type="curve" smooth="yes"/>
      <point x="492" y="92"/>
      <point x="422" y="16"/>
    </contour>
    <contour>
      <point x="510" y="592" type="line"/>
      <point x="469" y="628"/>
      <point x="420" y="652"/>
      <point x="352" y="652" type="curve" smooth="yes"/>
      <point x="215" y="652"/>
      <point x="90" y="560"/>
      <point x="90" y="288" type="curve" smooth="yes"/>
      <point x="90" y="98"/>
      <point x="178" y="-12"/>
      <point x="324" y="-12" type="curve" smooth="yes"/>
      <point x="431" y="-12"/>
      <point x="524" y="72"/>
      <point x="524" y="186" type="curve" smooth="yes"/>
      <point x="524" y="314"/>
      <point x="448" y="384"/>
      <point x="324" y="384" type="curve" smooth="yes"/>
      <point x="246" y="384"/>
      <point x="179" y="348"/>
      <point x="122" y="292" type="curve"/>
      <point x="123" y="539"/>
      <point x="230" y="624"/>
      <point x="350" y="624" type="curve" smooth="yes"/>
      <point x="404" y="624"/>
      <point x="452" y="606"/>
      <point x="490" y="570" type="curve"/>
    </contour>
  </outline>
</glyph>
<glyph name="less" format="1">
  <advance width="600"/>
  <unicode hex="003C"/>
  <outline>
    <contour>
      <point x="124" y="296" type="line"/>
      <point x="486" y="42" type="line"/>
      <point x="486" y="78" type="line"/>
      <point x="156" y="310" type="line"/>
      <point x="156" y="314" type="line"/>
      <point x="486" y="546" type="line"/>
      <point x="486" y="582" type="line"/>
      <point x="124" y="328" type="line"/>
    </contour>
  </outline>
</glyph>
<glyph name="equal" format="1">
  <advance width="600"/>
  <unicode hex="003D"/>
  <outline>
    <contour>
      <point x="98" y="396" type="line"/>
      <point x="502" y="396" type="line"/>
      <point x="502" y="424" type="line"/>
      <point x="98" y="424" type="line"/>
    </contour>
    <contour>
      <point x="98" y="196" type="line"/>
      <point x="502" y="196" type="line"/>
      <point x="502" y="224" type="line"/>
      <point x="98" y="224" type="line"/>
    </contour>
  </outline>
</glyph>
<glyph name="greater" format="1">
  <advance width="600"/>
  <unicode hex="003E"/>
  <outline>
    <contour>
      <point x="476" y="328" type="line"/>
      <point x="114" y="582" type="line"/>
      <point x="114" y="546" type="line"/>
      <point x="444" y="314" type="line"/>
      <point x="444" y="310" type="line"/>
      <point x="114" y="78" type="line"/>
      <point x="114" y="42" type="line"/>
      <point x="476" y="296" type="line"/>
    </contour>
  </outline>
</glyph>
<glyph name="B" format="1">
  <advance width="600"/>
  <unicode hex="0042"/>
  <outline>
    <contour>
      <point x="119" y="0" type="line"/>
      <point x="291" y="0" type="line" smooth="yes"/>
      <point x="441" y="0"/>
      <point x="535" y="66"/>
      <point x="535" y="192" type="curve" smooth="yes"/>
      <point x="535" y="284"/>
      <point x="473" y="338"/>
      <point x="375" y="352" type="curve"/>
      <point x="375" y="356" type="line"/>
      <point x="453" y="376"/>
      <point x="493" y="430"/>
      <point x="493" y="500" type="curve" smooth="yes"/>
      <point x="493" y="608"/>
      <point x="411" y="660"/>
      <point x="279" y="660" type="curve" smooth="yes"/>
      <point x="119" y="660" type="line"/>
    </contour>
    <contour>
      <point x="151" y="366" type="line"/>
      <point x="151" y="632" type="line"/>
      <point x="265" y="632" type="line" smooth="yes"/>
      <point x="393" y="632"/>
      <point x="461" y="594"/>
      <point x="461" y="504" type="curve" smooth="yes"/>
      <point x="461" y="412"/>
      <point x="403" y="366"/>
      <point x="259" y="366" type="curve" smooth="yes"/>
    </contour>
    <contour>
      <point x="151" y="28" type="line"/>
      <point x="151" y="338" type="line"/>
      <point x="279" y="338" type="line" smooth="yes"/>
      <point x="421" y="338"/>
      <point x="503" y="290"/>
      <point x="503" y="190" type="curve" smooth="yes"/>
      <point x="503" y="78"/>
      <point x="417" y="28"/>
      <point x="279" y="28" type="curve" smooth="yes"/>
    </contour>
  </outline>
</glyph>
<glyph name="E" format="1">
  <advance width="600"/>
  <unicode hex="0045"/>
  <outline>
    <contour>
      <point x="132" y="0" type="line"/>
      <point x="526" y="0" type="line"/>
      <point x="526" y="28" type="line"/>
      <point x="164" y="28" type="line"/>
      <point x="164" y="338" type="line"/>
      <point x="460" y="338" type="line"/>
      <point x="460" y="366" type="line"/>
      <point x="164" y="366" type="line"/>
      <point x="164" y="632" type="line"/>
      <point x="516" y="632" type="line"/>
      <point x="516" y="660" type="line"/>
      <point x="132" y="660" type="line"/>
    </contour>
  </outline>
</glyph>
<glyph name="K" format="1">
  <advance width="600"/>
  <unicode hex="004B"/>
  <outline>
    <contour>
      <point x="122" y="0" type="line"/>
      <point x="154" y="0" type="line"/>
      <point x="154" y="234" type="line"/>
      <point x="299" y="394" type="line"/>
      <point x="530" y="0" type="line"/>
      <point x="568" y="0" type="line"/>
      <point x="323" y="418" type="line"/>
      <point x="539" y="660" type="line"/>
      <point x="500" y="660" type="line"/>
      <point x="156" y="280" type="line"/>
      <point x="154" y="280" type="line"/>
      <point x="154" y="660" type="line"/>
      <point x="122" y="660" type="line"/>
    </contour>
  </outline>
</glyph>
<glyph name="Q" format="1">
  <advance width="600"/>
  <unicode hex="0051"/>
  <outline>
    <contour>
      <point x="92" y="332" type="curve" smooth="yes"/>
      <point x="92" y="522"/>
      <point x="173" y="645"/>
      <point x="300" y="645" type="curve" smooth="yes"/>
      <point x="427" y="645"/>
      <point x="508" y="522"/>
      <point x="508" y="332" type="curve" smooth="yes"/>
      <point x="508" y="143"/>
      <point x="427" y="16"/>
      <point x="300" y="16" type="curve" smooth="yes"/>
      <point x="173" y="16"/>
      <point x="92" y="143"/>
    </contour>
    <contour>
      <point x="525" y="-110" type="line"/>
      <point x="514" y="-114"/>
      <point x="499" y="-117"/>
      <point x="479" y="-117" type="curve" smooth="yes"/>
      <point x="392" y="-117"/>
      <point x="339" y="-77"/>
      <point x="317" y="-11" type="curve"/>
      <point x="451" y="-1"/>
      <point x="540" y="133"/>
      <point x="540" y="332" type="curve" smooth="yes"/>
      <point x="540" y="540"/>
      <point x="443" y="673"/>
      <point x="300" y="673" type="curve" smooth="yes"/>
      <point x="157" y="673"/>
      <point x="60" y="540"/>
      <point x="60" y="332" type="curve" smooth="yes"/>
      <point x="60" y="134"/>
      <point x="149" y="0"/>
      <point x="281" y="-11" type="curve"/>
      <point x="308" y="-89"/>
      <point x="369" y="-150"/>
      <point x="475" y="-150" type="curve" smooth="yes"/>
      <point x="494" y="-150"/>
      <point x="511" y="-147"/>
      <point x="532" y="-142" type="curve"/>
    </contour>
  </outline>
</glyph>
<glyph name="T" format="1">
  <advance width="600"/>
  <unicode hex="0054"/>
  <outline>
    <contour>
      <point x="284" y="0" type="line"/>
      <point x="316" y="0" type="line"/>
      <point x="316" y="632" type="line"/>
      <point x="550" y="632" type="line"/>
      <point x="550" y="660" type="line"/>
      <point x="50" y="660" type="line"/>
      <point x="50" y="632" type="line"/>
      <point x="284" y="632" type="line"/>
    </contour>
  </outline>
</glyph>
<glyph name="grave" format="1">
  <advance width="600"/>
  <unicode hex="0060"/>
  <outline>
    <contour>
      <point x="324" y="572" type="line"/>
      <point x="352" y="572" type="line"/>
      <point x="260" y="706" type="line"/>
      <point x="220" y="706" type="line"/>
    </contour>
  </outline>
</glyph>
<glyph name="b" format="1">
  <advance width="600"/>
  <unicode hex="0062"/>
  <outline>
    <contour>
      <point x="110" y="0" type="line"/>
      <point x="136" y="0" type="line"/>
      <point x="140" y="54" type="line"/>
      <point x="142" y="54" type="line"/>
      <point x="191" y="14"/>
      <point x="257" y="-12"/>
      <point x="306" y="-12" type="curve" smooth="yes"/>
      <point x="425" y="-12"/>
      <point x="530" y="84"/>
      <point x="530" y="246" type="curve" smooth="yes"/>
      <point x="530" y="394"/>
      <point x="463" y="490"/>
      <point x="326" y="490" type="curve" smooth="yes"/>
      <point x="262" y="490"/>
      <point x="191" y="454"/>
      <point x="138" y="402" type="curve"/>
      <point x="140" y="508" type="line"/>
      <point x="140" y="722" type="line"/>
      <point x="110" y="722" type="line"/>
    </contour>
    <contour>
      <point x="140" y="92" type="curve"/>
      <point x="140" y="368" type="line"/>
      <point x="204" y="432"/>
      <point x="271" y="462"/>
      <point x="324" y="462" type="curve" smooth="yes"/>
      <point x="449" y="462"/>
      <point x="498" y="368"/>
      <point x="498" y="246" type="curve" smooth="yes"/>
      <point x="498" y="112"/>
      <point x="418" y="16"/>
      <point x="308" y="16" type="curve" smooth="yes"/>
      <point x="267" y="16"/>
      <point x="200" y="37"/>
    </contour>
  </outline>
</glyph>
<glyph name="f" format="1">
  <advance width="600"/>
  <unicode hex="0066"/>
  <outline>
    <contour>
      <point x="572" y="704" type="line"/>
      <point x="522" y="728"/>
      <point x="481" y="734"/>
      <point x="440" y="734" type="curve" smooth="yes"/>
      <point x="324" y="734"/>
      <point x="266" y="664"/>
      <point x="266" y="542" type="curve" smooth="yes"/>
      <point x="266" y="478" type="line"/>
      <point x="120" y="474" type="line"/>
      <point x="120" y="450" type="line"/>
      <point x="266" y="450" type="line"/>
      <point x="266" y="0" type="line"/>
      <point x="294" y="0" type="line"/>
      <point x="294" y="450" type="line"/>
      <point x="524" y="450" type="line"/>
      <point x="524" y="478" type="line"/>
      <point x="294" y="478" type="line"/>
      <point x="294" y="546" type="line" smooth="yes"/>
      <point x="294" y="640"/>
      <point x="334" y="706"/>
      <point x="440" y="706" type="curve" smooth="yes"/>
      <point x="486" y="706"/>
      <point x="514" y="702"/>
      <point x="560" y="680" type="curve"/>
    </contour>
  </outline>
</glyph>
<glyph name="g" format="1">
  <advance width="600"/>
  <unicode hex="0067"/>
  <outline>
    <contour>
      <point x="120" y="-97" type="curve" smooth="yes"/>
      <point x="120" y="-60"/>
      <point x="141" y="-22"/>
      <point x="203" y="11" type="curve"/>
      <point x="226" y="4"/>
      <point x="254" y="2"/>
      <point x="276" y="2" type="curve" smooth="yes"/>
      <point x="397" y="2" type="line" smooth="yes"/>
      <point x="485" y="2"/>
      <point x="528" y="-17"/>
      <point x="528" y="-74" type="curve" smooth="yes"/>
      <point x="528" y="-138"/>
      <point x="445" y="-206"/>
      <point x="306" y="-206" type="curve" smooth="yes"/>
      <point x="180" y="-206"/>
      <point x="120" y="-158"/>
    </contour>
    <contour>
      <point x="88" y="-93" type="curve" smooth="yes"/>
      <point x="88" y="-176"/>
      <point x="160" y="-234"/>
      <point x="312" y="-234" type="curve" smooth="yes"/>
      <point x="464" y="-234"/>
      <point x="560" y="-152"/>
      <point x="560" y="-72" type="curve" smooth="yes"/>
      <point x="560" y="4"/>
      <point x="510" y="34"/>
      <point x="389" y="34" type="curve" smooth="yes"/>
      <point x="266" y="34" type="line" smooth="yes"/>
      <point x="198" y="34"/>
      <point x="152" y="56"/>
      <point x="152" y="105" type="curve" smooth="yes"/>
      <point x="152" y="132"/>
      <point x="172" y="158"/>
      <point x="202" y="176" type="curve"/>
      <point x="232" y="160"/>
      <point x="266" y="152"/>
      <point x="296" y="152" type="curve" smooth="yes"/>
      <point x="392" y="152"/>
      <point x="470" y="224"/>
      <point x="470" y="320" type="curve" smooth="yes"/>
      <point x="470" y="375"/>
      <point x="440" y="420"/>
      <point x="408" y="450" type="curve"/>
      <point x="560" y="450" type="line"/>
      <point x="560" y="478" type="line"/>
      <point x="360" y="478" type="line"/>
      <point x="342" y="486"/>
      <point x="322" y="490"/>
      <point x="296" y="490" type="curve" smooth="yes"/>
      <point x="200" y="490"/>
      <point x="122" y="416"/>
      <point x="122" y="320" type="curve" smooth="yes"/>
      <point x="122" y="262"/>
      <point x="148" y="222"/>
      <point x="178" y="196" type="curve"/>
      <point x="178" y="192" type="line"/>
      <point x="140" y="166"/>
      <point x="120" y="132"/>
      <point x="120" y="102" type="curve" smooth="yes"/>
      <point x="120" y="62"/>
      <point x="146" y="37"/>
      <point x="170" y="26" type="curve"/>
      <point x="170" y="22" type="line"/>
      <point x="118" y="-11"/>
      <point x="88" y="-56"/>
    </contour>
    <contour>
      <point x="296" y="180" type="curve" smooth="yes"/>
      <point x="218" y="180"/>
      <point x="154" y="238"/>
      <point x="154" y="320" type="curve" smooth="yes"/>
      <point x="154" y="402"/>
      <point x="218" y="462"/>
      <point x="296" y="462" type="curve" smooth="yes"/>
      <point x="374" y="462"/>
      <point x="438" y="402"/>
      <point x="438" y="320" type="curve" smooth="yes"/>
      <point x="438" y="238"/>
      <point x="374" y="180"/>
    </contour>
  </outline>
</glyph>
<glyph name="t" format="1">
  <advance width="600"/>
  <unicode hex="0074"/>
  <outline>
    <contour>
      <point x="232" y="176" type="line" smooth="yes"/>
      <point x="232" y="64"/>
      <point x="270" y="-12"/>
      <point x="397" y="-12" type="curve" smooth="yes"/>
      <point x="441" y="-12"/>
      <point x="498" y="0"/>
      <point x="541" y="18" type="curve"/>
      <point x="531" y="42" type="line"/>
      <point x="492" y="26"/>
      <point x="452" y="16"/>
      <point x="399" y="16" type="curve" smooth="yes"/>
      <point x="288" y="16"/>
      <point x="262" y="76"/>
      <point x="262" y="172" type="curve" smooth="yes"/>
      <point x="262" y="450" type="line"/>
      <point x="523" y="450" type="line"/>
      <point x="523" y="478" type="line"/>
      <point x="262" y="478" type="line"/>
      <point x="262" y="618" type="line"/>
      <point x="236" y="618" type="line"/>
      <point x="232" y="478" type="line"/>
      <point x="85" y="474" type="line"/>
      <point x="85" y="450" type="line"/>
      <point x="232" y="450" type="line"/>
    </contour>
  </outline>
</glyph>
<glyph name="z" format="1">
  <advance width="600"/>
  <unicode hex="007A"/>
  <outline>
    <contour>
      <point x="72" y="0" type="line"/>
      <point x="524" y="0" type="line"/>
      <point x="524" y="28" type="line"/>
      <point x="120" y="28" type="line"/>
      <point x="512" y="462" type="line"/>
      <point x="512" y="478" type="line"/>
      <point x="114" y="478" type="line"/>
      <point x="114" y="450" type="line"/>
      <point x="464" y="450" type="line"/>
      <point x="72" y="16" type="line"/>
    </contour>
  </outline>
</glyph>
<glyph name="yen" format="1">
  <advance width="600"/>
  <unicode hex="00A5"/>
  <outline>
    <contour>
      <point x="70" y="640" type="line"/>
      <point x="273" y="298" type="line"/>
      <point x="92" y="298" type="line"/>
      <point x="92" y="270" type="line"/>
      <point x="284" y="270" type="line"/>
      <point x="284" y="196" type="line"/>
      <point x="92" y="196" type="line"/>
      <point x="92" y="168" type="line"/>
      <point x="284" y="168" type="line"/>
      <point x="284" y="0" type="line"/>
      <point x="314" y="0" type="line"/>
      <point x="314" y="168" type="line"/>
      <point x="508" y="168" type="line"/>
      <point x="508" y="196" type="line"/>
      <point x="314" y="196" type="line"/>
      <point x="314" y="270" type="line"/>
      <point x="508" y="270" type="line"/>
      <point x="508" y="298" type="line"/>
      <point x="325" y="298" type="line"/>
      <point x="530" y="640" type="line"/>
      <point x="500" y="640" type="line"/>
      <point x="383" y="438" type="line" smooth="yes"/>
      <point x="355" y="394"/>
      <point x="330" y="350"/>
      <point x="302" y="300" type="curve"/>
      <point x="298" y="300" type="line"/>
      <point x="270" y="350"/>
      <point x="245" y="394"/>
      <point x="219" y="438" type="curve" smooth="yes"/>
      <point x="102" y="640" type="line"/>
    </contour>
  </outline>
</glyph>
<glyph name="brokenbar" format="1">
  <advance width="600"/>
  <unicode hex="00A6"/>
  <outline>
    <contour>
      <point x="286" y="274" type="line"/>
      <point x="314" y="274" type="line"/>
      <point x="314" y="750" type="line"/>
      <point x="286" y="750" type="line"/>
    </contour>
    <contour>
      <point x="286" y="222" type="line"/>
      <point x="286" y="-250" type="line"/>
      <point x="314" y="-250" type="line"/>
      <point x="314" y="222" type="line"/>
    </contour>
  </outline>
</glyph>
<glyph name="copyright" format="1">
  <advance width="600"/>
  <unicode hex="00A9"/>
  <outline>
    <contour>
      <point x="40" y="322" type="curve" smooth="yes"/>
      <point x="40" y="120"/>
      <point x="146" y="-12"/>
      <point x="300" y="-12" type="curve" smooth="yes"/>
      <point x="454" y="-12"/>
      <point x="560" y="120"/>
      <point x="560" y="322" type="curve" smooth="yes"/>
      <point x="560" y="523"/>
      <point x="454" y="652"/>
      <point x="300" y="652" type="curve" smooth="yes"/>
      <point x="146" y="652"/>
      <point x="40" y="523"/>
    </contour>
    <contour>
      <point x="70" y="322" type="curve" smooth="yes"/>
      <point x="70" y="505"/>
      <point x="162" y="626"/>
      <point x="300" y="626" type="curve" smooth="yes"/>
      <point x="438" y="626"/>
      <point x="530" y="505"/>
      <point x="530" y="322" type="curve" smooth="yes"/>
      <point x="530" y="138"/>
      <point x="438" y="14"/>
      <point x="300" y="14" type="curve" smooth="yes"/>
      <point x="162" y="14"/>
      <point x="70" y="138"/>
    </contour>
    <contour>
      <point x="152" y="322" type="curve" smooth="yes"/>
      <point x="152" y="196"/>
      <point x="222" y="124"/>
      <point x="304" y="124" type="curve" smooth="yes"/>
      <point x="360" y="124"/>
      <point x="390" y="146"/>
      <point x="420" y="174" type="curve"/>
      <point x="404" y="196" type="line"/>
      <point x="378" y="173"/>
      <point x="348" y="154"/>
      <point x="306" y="154" type="curve" smooth="yes"/>
      <point x="234" y="154"/>
      <point x="186" y="218"/>
      <point x="186" y="322" type="curve" smooth="yes"/>
      <point x="186" y="416"/>
      <point x="238" y="478"/>
      <point x="308" y="478" type="curve" smooth="yes"/>
      <point x="342" y="478"/>
      <point x="364" y="465"/>
      <point x="390" y="442" type="curve"/>
      <point x="408" y="464" type="line"/>
      <point x="382" y="490"/>
      <point x="354" y="508"/>
      <point x="310" y="508" type="curve" smooth="yes"/>
      <point x="226" y="508"/>
      <point x="152" y="438"/>
    </contour>
  </outline>
</glyph>
<glyph name="ordfeminine" format="1">
  <advance width="600"/>
  <unicode hex="00AA"/>
  <outline>
    <contour>
      <point x="178" y="339" type="curve" smooth="yes"/>
      <point x="178" y="280"/>
      <point x="226" y="252"/>
      <point x="280" y="252" type="curve" smooth="yes"/>
      <point x="325" y="252"/>
      <point x="368" y="275"/>
      <point x="403" y="301" type="curve"/>
      <point x="404" y="301" type="line"/>
      <point x="407" y="260" type="line"/>
      <point x="434" y="260" type="line"/>
      <point x="434" y="462" type="line" smooth="yes"/>
      <point x="434" y="531"/>
      <point x="404" y="585"/>
      <point x="322" y="585" type="curve" smooth="yes"/>
      <point x="268" y="585"/>
      <point x="218" y="560"/>
      <point x="193" y="544" type="curve"/>
      <point x="208" y="521" type="line"/>
      <point x="233" y="537"/>
      <point x="273" y="558"/>
      <point x="319" y="558" type="curve" smooth="yes"/>
      <point x="386" y="558"/>
      <point x="402" y="510"/>
      <point x="402" y="459" type="curve"/>
      <point x="251" y="443"/>
      <point x="178" y="410"/>
    </contour>
    <contour>
      <point x="210" y="341" type="curve" smooth="yes"/>
      <point x="210" y="391"/>
      <point x="263" y="420"/>
      <point x="402" y="435" type="curve"/>
      <point x="402" y="329" type="line"/>
      <point x="361" y="297"/>
      <point x="324" y="279"/>
      <point x="286" y="279" type="curve" smooth="yes"/>
      <point x="246" y="279"/>
      <point x="210" y="297"/>
    </contour>
  </outline>
</glyph>
<glyph name="plusminus" format="1">
  <advance width="600"/>
  <unicode hex="00B1"/>
  <outline>
    <contour>
      <point x="284" y="82" type="line"/>
      <point x="316" y="82" type="line"/>
      <point x="316" y="292" type="line"/>
      <point x="502" y="292" type="line"/>
      <point x="502" y="320" type="line"/>
      <point x="316" y="320" type="line"/>
      <point x="316" y="528" type="line"/>
      <point x="284" y="528" type="line"/>
      <point x="284" y="320" type="line"/>
      <point x="98" y="320" type="line"/>
      <point x="98" y="292" type="line"/>
      <point x="284" y="292" type="line"/>
    </contour>
    <contour>
      <point x="98" y="0" type="line"/>
      <point x="502" y="0" type="line"/>
      <point x="502" y="28" type="line"/>
      <point x="98" y="28" type="line"/>
    </contour>
  </outline>
</glyph>
<glyph name="cedilla" format="1">
  <advance width="600"/>
  <unicode hex="00B8"/>
  <outline>
    <contour>
      <point x="266" y="-74" type="line"/>
      <point x="304" y="-84"/>
      <point x="334" y="-96"/>
      <point x="334" y="-128" type="curve" smooth="yes"/>
      <point x="334" y="-156"/>
      <point x="296" y="-172"/>
      <point x="240" y="-180" type="curve"/>
      <point x="246" y="-206" type="line"/>
      <point x="306" y="-198"/>
      <point x="364" y="-174"/>
      <point x="364" y="-124" type="curve" smooth="yes"/>
      <point x="364" y="-84"/>
      <point x="336" y="-66"/>
      <point x="304" y="-56" type="curve"/>
      <point x="334" y="2" type="line"/>
      <point x="306" y="2" type="line"/>
    </contour>
  </outline>
</glyph>
<glyph name="onequarter" format="1">
  <advance width="600"/>
  <unicode hex="00BC"/>
  <outline>
    <contour>
      <point x="562" y="602" type="line"/>
      <point x="536" y="624" type="line"/>
      <point x="364" y="418" type="line"/>
      <point x="382" y="402" type="line"/>
    </contour>
    <contour>
      <point x="160" y="340" type="line"/>
      <point x="188" y="340" type="line"/>
      <point x="188" y="640" type="line"/>
      <point x="164" y="640" type="line"/>
      <point x="140" y="626"/>
      <point x="116" y="616"/>
      <point x="78" y="609" type="curve"/>
      <point x="78" y="585" type="line"/>
      <point x="160" y="585" type="line"/>
    </contour>
    <contour>
      <point x="38" y="58" type="line"/>
      <point x="64" y="36" type="line"/>
      <point x="236" y="242" type="line"/>
      <point x="218" y="258" type="line"/>
    </contour>
    <contour>
      <point x="360" y="107" type="line"/>
      <point x="431" y="192" type="line"/>
      <point x="484" y="258" type="line"/>
      <point x="488" y="258" type="line"/>
      <point x="484" y="190" type="line"/>
      <point x="484" y="107" type="line"/>
    </contour>
    <contour>
      <point x="512" y="300" type="line"/>
      <point x="492" y="300" type="line"/>
      <point x="320" y="98" type="line"/>
      <point x="320" y="83" type="line"/>
      <point x="484" y="83" type="line"/>
      <point x="484" y="0" type="line"/>
      <point x="512" y="0" type="line"/>
      <point x="512" y="83" type="line"/>
      <point x="561" y="83" type="line"/>
      <point x="561" y="107" type="line"/>
      <point x="512" y="107" type="line"/>
    </contour>
  </outline>
</glyph>
<glyph name="onehalf" format="1">
  <advance width="600"/>
  <unicode hex="00BD"/>
  <outline>
    <contour>
      <point x="160" y="340" type="line"/>
      <point x="188" y="340" type="line"/>
      <point x="188" y="640" type="line"/>
      <point x="164" y="640" type="line"/>
      <point x="140" y="626"/>
      <point x="116" y="616"/>
      <point x="78" y="609" type="curve"/>
      <point x="78" y="585" type="line"/>
      <point x="160" y="585" type="line"/>
    </contour>
    <contour>
      <point x="64" y="36" type="line"/>
      <point x="236" y="242" type="line"/>
      <point x="218" y="258" type="line"/>
      <point x="38" y="58" type="line"/>
    </contour>
    <contour>
      <point x="536" y="624" type="line"/>
      <point x="364" y="418" type="line"/>
      <point x="382" y="402" type="line"/>
      <point x="562" y="602" type="line"/>
    </contour>
    <contour>
      <point x="333" y="0" type="line"/>
      <point x="554" y="0" type="line"/>
      <point x="554" y="26" type="line"/>
      <point x="383" y="26" type="line"/>
      <point x="470" y="102"/>
      <point x="536" y="152"/>
      <point x="536" y="213" type="curve" smooth="yes"/>
      <point x="536" y="277"/>
      <point x="498" y="312"/>
      <point x="432" y="312" type="curve" smooth="yes"/>
      <point x="389" y="312"/>
      <point x="350" y="286"/>
      <point x="326" y="254" type="curve"/>
      <point x="348" y="238" type="line"/>
      <point x="368" y="266"/>
      <point x="398" y="286"/>
      <point x="432" y="286" type="curve" smooth="yes"/>
      <point x="479" y="286"/>
      <point x="506" y="259"/>
      <point x="506" y="214" type="curve" smooth="yes"/>
      <point x="506" y="161"/>
      <point x="454" y="120"/>
      <point x="333" y="20" type="curve"/>
    </contour>
  </outline>
</glyph>
<glyph name="threequarters" format="1">
  <advance width="600"/>
  <unicode hex="00BE"/>
  <outline>
    <contour>
      <point x="602" y="602" type="line"/>
      <point x="576" y="624" type="line"/>
      <point x="404" y="418" type="line"/>
      <point x="422" y="402" type="line"/>
    </contour>
    <contour>
      <point x="74" y="586" type="line"/>
      <point x="94" y="612"/>
      <point x="129" y="626"/>
      <point x="154" y="626" type="curve" smooth="yes"/>
      <point x="202" y="626"/>
      <point x="222" y="604"/>
      <point x="222" y="570" type="curve" smooth="yes"/>
      <point x="222" y="534"/>
      <point x="193" y="504"/>
      <point x="124" y="504" type="curve"/>
      <point x="124" y="480" type="line"/>
      <point x="200" y="480"/>
      <point x="238" y="459"/>
      <point x="238" y="416" type="curve" smooth="yes"/>
      <point x="238" y="372"/>
      <point x="206" y="354"/>
      <point x="160" y="354" type="curve" smooth="yes"/>
      <point x="118" y="354"/>
      <point x="82" y="378"/>
      <point x="62" y="410" type="curve"/>
      <point x="38" y="392" type="line"/>
      <point x="60" y="359"/>
      <point x="108" y="328"/>
      <point x="158" y="328" type="curve" smooth="yes"/>
      <point x="222" y="328"/>
      <point x="268" y="356"/>
      <point x="268" y="416" type="curve" smooth="yes"/>
      <point x="268" y="460"/>
      <point x="234" y="486"/>
      <point x="194" y="494" type="curve"/>
      <point x="232" y="508"/>
      <point x="252" y="532"/>
      <point x="252" y="572" type="curve" smooth="yes"/>
      <point x="252" y="624"/>
      <point x="214" y="652"/>
      <point x="156" y="652" type="curve" smooth="yes"/>
      <point x="116" y="652"/>
      <point x="76" y="633"/>
      <point x="54" y="604" type="curve"/>
    </contour>
    <contour>
      <point x="78" y="58" type="line"/>
      <point x="104" y="36" type="line"/>
      <point x="276" y="242" type="line"/>
      <point x="258" y="258" type="line"/>
    </contour>
    <contour>
      <point x="360" y="107" type="line"/>
      <point x="431" y="192" type="line"/>
      <point x="484" y="258" type="line"/>
      <point x="488" y="258" type="line"/>
      <point x="484" y="190" type="line"/>
      <point x="484" y="107" type="line"/>
    </contour>
    <contour>
      <point x="512" y="300" type="line"/>
      <point x="492" y="300" type="line"/>
      <point x="320" y="98" type="line"/>
      <point x="320" y="83" type="line"/>
      <point x="484" y="83" type="line"/>
      <point x="484" y="0" type="line"/>
      <point x="512" y="0" type="line"/>
      <point x="512" y="83" type="line"/>
      <point x="561" y="83" type="line"/>
      <point x="561" y="107" type="line"/>
      <point x="512" y="107" type="line"/>
    </contour>
  </outline>
</glyph>
<glyph name="questiondown" format="1">
  <advance width="600"/>
  <unicode hex="00BF"/>
  <outline>
    <contour>
      <point x="340" y="264" type="curve"/>
      <point x="312" y="264" type="line"/>
      <point x="334" y="123"/>
      <point x="138" y="78"/>
      <point x="138" y="-54" type="curve" smooth="yes"/>
      <point x="138" y="-136"/>
      <point x="200" y="-204"/>
      <point x="308" y="-204" type="curve" smooth="yes"/>
      <point x="384" y="-204"/>
      <point x="442" y="-172"/>
      <point x="484" y="-130" type="curve"/>
      <point x="462" y="-110" type="line"/>
      <point x="422" y="-152"/>
      <point x="368" y="-176"/>
      <point x="310" y="-176" type="curve" smooth="yes"/>
      <point x="212" y="-176"/>
      <point x="170" y="-118"/>
      <point x="170" y="-52" type="curve" smooth="yes"/>
      <point x="170" y="72"/>
      <point x="366" y="114"/>
    </contour>
    <contour>
      <point x="368" y="432" type="curve" smooth="yes"/>
      <point x="368" y="470"/>
      <point x="342" y="490"/>
      <point x="316" y="490" type="curve" smooth="yes"/>
      <point x="290" y="490"/>
      <point x="264" y="470"/>
      <point x="264" y="432" type="curve" smooth="yes"/>
      <point x="264" y="394"/>
      <point x="290" y="374"/>
      <point x="316" y="374" type="curve" smooth="yes"/>
      <point x="342" y="374"/>
      <point x="368" y="394"/>
    </contour>
  </outline>
</glyph>
<glyph name="Atilde" format="1">
  <advance width="600"/>
  <unicode hex="00C3"/>
  <outline>
    <contour>
      <point x="402" y="804" type="line"/>
      <point x="398" y="770"/>
      <point x="382" y="746"/>
      <point x="360" y="746" type="curve" smooth="yes"/>
      <point x="318" y="746"/>
      <point x="294" y="804"/>
      <point x="242" y="804" type="curve" smooth="yes"/>
      <point x="198" y="804"/>
      <point x="178" y="756"/>
      <point x="176" y="718" type="curve"/>
      <point x="198" y="718" type="line"/>
      <point x="202" y="752"/>
      <point x="218" y="776"/>
      <point x="240" y="776" type="curve" smooth="yes"/>
      <point x="282" y="776"/>
      <point x="306" y="718"/>
      <point x="358" y="718" type="curve" smooth="yes"/>
      <point x="402" y="718"/>
      <point x="422" y="766"/>
      <point x="424" y="804" type="curve"/>
    </contour>
    <contour>
      <point x="175" y="264" type="line"/>
      <point x="222" y="396" type="line" smooth="yes"/>
      <point x="250" y="476"/>
      <point x="274" y="544"/>
      <point x="298" y="626" type="curve"/>
      <point x="302" y="626" type="line"/>
      <point x="326" y="544"/>
      <point x="350" y="476"/>
      <point x="378" y="396" type="curve" smooth="yes"/>
      <point x="424" y="264" type="line"/>
    </contour>
    <contour>
      <point x="516" y="0" type="line"/>
      <point x="550" y="0" type="line"/>
      <point x="314" y="660" type="line"/>
      <point x="286" y="660" type="line"/>
      <point x="50" y="0" type="line"/>
      <point x="82" y="0" type="line"/>
      <point x="165" y="236" type="line"/>
      <point x="434" y="236" type="line"/>
    </contour>
  </outline>
</glyph>
<glyph name="Adieresis" format="1">
  <advance width="600"/>
  <unicode hex="00C4"/>
  <outline>
    <contour>
      <point x="376" y="728" type="curve" smooth="yes"/>
      <point x="394" y="728"/>
      <point x="408" y="740"/>
      <point x="408" y="760" type="curve" smooth="yes"/>
      <point x="408" y="780"/>
      <point x="394" y="792"/>
      <point x="376" y="792" type="curve" smooth="yes"/>
      <point x="358" y="792"/>
      <point x="344" y="780"/>
      <point x="344" y="760" type="curve" smooth="yes"/>
      <point x="344" y="740"/>
      <point x="358" y="728"/>
    </contour>
    <contour>
      <point x="224" y="728" type="curve" smooth="yes"/>
      <point x="242" y="728"/>
      <point x="256" y="740"/>
      <point x="256" y="760" type="curve" smooth="yes"/>
      <point x="256" y="780"/>
      <point x="242" y="792"/>
      <point x="224" y="792" type="curve" smooth="yes"/>
      <point x="206" y="792"/>
      <point x="192" y="780"/>
      <point x="192" y="760" type="curve" smooth="yes"/>
      <point x="192" y="740"/>
      <point x="206" y="728"/>
    </contour>
    <contour>
      <point x="175" y="264" type="line"/>
      <point x="222" y="396" type="line" smooth="yes"/>
      <point x="250" y="476"/>
      <point x="274" y="544"/>
      <point x="298" y="626" type="curve"/>
      <point x="302" y="626" type="line"/>
      <point x="326" y="544"/>
      <point x="350" y="476"/>
      <point x="378" y="396" type="curve" smooth="yes"/>
      <point x="424" y="264" type="line"/>
    </contour>
    <contour>
      <point x="516" y="0" type="line"/>
      <point x="550" y="0" type="line"/>
      <point x="314" y="660" type="line"/>
      <point x="286" y="660" type="line"/>
      <point x="50" y="0" type="line"/>
      <point x="82" y="0" type="line"/>
      <point x="165" y="236" type="line"/>
      <point x="434" y="236" type="line"/>
    </contour>
  </outline>
</glyph>
<glyph name="Ccedilla" format="1">
  <advance width="600"/>
  <unicode hex="00C7"/>
  <outline>
    <contour>
      <point x="521" y="102" type="line"/>
      <point x="471" y="46"/>
      <point x="419" y="18"/>
      <point x="349" y="18" type="curve" smooth="yes"/>
      <point x="201" y="18"/>
      <point x="108" y="142"/>
      <point x="108" y="332" type="curve" smooth="yes"/>
      <point x="108" y="522"/>
      <point x="201" y="642"/>
      <point x="353" y="642" type="curve" smooth="yes"/>
      <point x="415" y="642"/>
      <point x="465" y="614"/>
      <point x="501" y="572" type="curve"/>
      <point x="521" y="594" type="line"/>
      <point x="487" y="634"/>
      <point x="429" y="672"/>
      <point x="353" y="672" type="curve" smooth="yes"/>
      <point x="185" y="672"/>
      <point x="74" y="540"/>
      <point x="74" y="332" type="curve" smooth="yes"/>
      <point x="74" y="133"/>
      <point x="176" y="-1"/>
      <point x="327" y="-11" type="curve"/>
      <point x="294" y="-74" type="line"/>
      <point x="332" y="-84"/>
      <point x="362" y="-96"/>
      <point x="362" y="-128" type="curve" smooth="yes"/>
      <point x="362" y="-156"/>
      <point x="324" y="-172"/>
      <point x="268" y="-180" type="curve"/>
      <point x="274" y="-206" type="line"/>
      <point x="334" y="-198"/>
      <point x="392" y="-174"/>
      <point x="392" y="-124" type="curve" smooth="yes"/>
      <point x="392" y="-84"/>
      <point x="364" y="-66"/>
      <point x="332" y="-56" type="curve"/>
      <point x="355" y="-12" type="line"/>
      <point x="437" y="-10"/>
      <point x="493" y="26"/>
      <point x="541" y="82" type="curve"/>
    </contour>
  </outline>
</glyph>
<glyph name="Egrave" format="1">
  <advance width="600"/>
  <unicode hex="00C8"/>
  <outline>
    <contour>
      <point x="132" y="0" type="line"/>
      <point x="526" y="0" type="line"/>
      <point x="526" y="28" type="line"/>
      <point x="164" y="28" type="line"/>
      <point x="164" y="338" type="line"/>
      <point x="460" y="338" type="line"/>
      <point x="460" y="366" type="line"/>
      <point x="164" y="366" type="line"/>
      <point x="164" y="632" type="line"/>
      <point x="516" y="632" type="line"/>
      <point x="516" y="660" type="line"/>
      <point x="132" y="660" type="line"/>
    </contour>
    <contour>
      <point x="340" y="710" type="line"/>
      <point x="370" y="710" type="line"/>
      <point x="276" y="814" type="line"/>
      <point x="232" y="814" type="line"/>
    </contour>
  </outline>
</glyph>
<glyph name="Eacute" format="1">
  <advance width="600"/>
  <unicode hex="00C9"/>
  <outline>
    <contour>
      <point x="132" y="0" type="line"/>
      <point x="526" y="0" type="line"/>
      <point x="526" y="28" type="line"/>
      <point x="164" y="28" type="line"/>
      <point x="164" y="338" type="line"/>
      <point x="460" y="338" type="line"/>
      <point x="460" y="366" type="line"/>
      <point x="164" y="366" type="line"/>
      <point x="164" y="632" type="line"/>
      <point x="516" y="632" type="line"/>
      <point x="516" y="660" type="line"/>
      <point x="132" y="660" type="line"/>
    </contour>
    <contour>
      <point x="444" y="814" type="line"/>
      <point x="400" y="814" type="line"/>
      <point x="306" y="710" type="line"/>
      <point x="336" y="710" type="line"/>
    </contour>
  </outline>
</glyph>
<glyph name="Edieresis" format="1">
  <advance width="600"/>
  <unicode hex="00CB"/>
  <outline>
    <contour>
      <point x="132" y="0" type="line"/>
      <point x="526" y="0" type="line"/>
      <point x="526" y="28" type="line"/>
      <point x="164" y="28" type="line"/>
      <point x="164" y="338" type="line"/>
      <point x="460" y="338" type="line"/>
      <point x="460" y="366" type="line"/>
      <point x="164" y="366" type="line"/>
      <point x="164" y="632" type="line"/>
      <point x="516" y="632" type="line"/>
      <point x="516" y="660" type="line"/>
      <point x="132" y="660" type="line"/>
    </contour>
    <contour>
      <point x="262" y="728" type="curve" smooth="yes"/>
      <point x="280" y="728"/>
      <point x="294" y="740"/>
      <point x="294" y="760" type="curve" smooth="yes"/>
      <point x="294" y="780"/>
      <point x="280" y="792"/>
      <point x="262" y="792" type="curve" smooth="yes"/>
      <point x="244" y="792"/>
      <point x="230" y="780"/>
      <point x="230" y="760" type="curve" smooth="yes"/>
      <point x="230" y="740"/>
      <point x="244" y="728"/>
    </contour>
    <contour>
      <point x="414" y="728" type="curve" smooth="yes"/>
      <point x="432" y="728"/>
      <point x="446" y="740"/>
      <point x="446" y="760" type="curve" smooth="yes"/>
      <point x="446" y="780"/>
      <point x="432" y="792"/>
      <point x="414" y="792" type="curve" smooth="yes"/>
      <point x="396" y="792"/>
      <point x="382" y="780"/>
      <point x="382" y="760" type="curve" smooth="yes"/>
      <point x="382" y="740"/>
      <point x="396" y="728"/>
    </contour>
  </outline>
</glyph>
<glyph name="Igrave" format="1">
  <advance width="600"/>
  <unicode hex="00CC"/>
  <outline>
    <contour>
      <point x="112" y="0" type="line"/>
      <point x="488" y="0" type="line"/>
      <point x="488" y="28" type="line"/>
      <point x="316" y="28" type="line"/>
      <point x="316" y="632" type="line"/>
      <point x="488" y="632" type="line"/>
      <point x="488" y="660" type="line"/>
      <point x="112" y="660" type="line"/>
      <point x="112" y="632" type="line"/>
      <point x="284" y="632" type="line"/>
      <point x="284" y="28" type="line"/>
      <point x="112" y="28" type="line"/>
    </contour>
    <contour>
      <point x="302" y="710" type="line"/>
      <point x="332" y="710" type="line"/>
      <point x="238" y="814" type="line"/>
      <point x="194" y="814" type="line"/>
    </contour>
  </outline>
</glyph>
<glyph name="Iacute" format="1">
  <advance width="600"/>
  <unicode hex="00CD"/>
  <outline>
    <contour>
      <point x="112" y="0" type="line"/>
      <point x="488" y="0" type="line"/>
      <point x="488" y="28" type="line"/>
      <point x="316" y="28" type="line"/>
      <point x="316" y="632" type="line"/>
      <point x="488" y="632" type="line"/>
      <point x="488" y="660" type="line"/>
      <point x="112" y="660" type="line"/>
      <point x="112" y="632" type="line"/>
      <point x="284" y="632" type="line"/>
      <point x="284" y="28" type="line"/>
      <point x="112" y="28" type="line"/>
    </contour>
    <contour>
      <point x="406" y="814" type="line"/>
      <point x="362" y="814" type="line"/>
      <point x="268" y="710" type="line"/>
      <point x="298" y="710" type="line"/>
    </contour>
  </outline>
</glyph>
<glyph name="Icircumflex" format="1">
  <advance width="600"/>
  <unicode hex="00CE"/>
  <outline>
    <contour>
      <point x="112" y="0" type="line"/>
      <point x="488" y="0" type="line"/>
      <point x="488" y="28" type="line"/>
      <point x="316" y="28" type="line"/>
      <point x="316" y="632" type="line"/>
      <point x="488" y="632" type="line"/>
      <point x="488" y="660" type="line"/>
      <point x="112" y="660" type="line"/>
      <point x="112" y="632" type="line"/>
      <point x="284" y="632" type="line"/>
      <point x="284" y="28" type="line"/>
      <point x="112" y="28" type="line"/>
    </contour>
    <contour>
      <point x="220" y="710" type="line"/>
      <point x="298" y="784" type="line"/>
      <point x="302" y="784" type="line"/>
      <point x="380" y="710" type="line"/>
      <point x="410" y="710" type="line"/>
      <point x="314" y="814" type="line"/>
      <point x="286" y="814" type="line"/>
      <point x="190" y="710" type="line"/>
    </contour>
  </outline>
</glyph>
<glyph name="Ntilde" format="1">
  <advance width="600"/>
  <unicode hex="00D1"/>
  <outline>
    <contour>
      <point x="96" y="0" type="line"/>
      <point x="126" y="0" type="line"/>
      <point x="126" y="433" type="line" smooth="yes"/>
      <point x="126" y="495"/>
      <point x="123" y="551"/>
      <point x="122" y="614" type="curve"/>
      <point x="124" y="614" type="line"/>
      <point x="197" y="486" type="line"/>
      <point x="471" y="0" type="line"/>
      <point x="504" y="0" type="line"/>
      <point x="504" y="660" type="line"/>
      <point x="474" y="660" type="line"/>
      <point x="474" y="231" type="line" smooth="yes"/>
      <point x="474" y="169"/>
      <point x="477" y="109"/>
      <point x="478" y="46" type="curve"/>
      <point x="476" y="46" type="line"/>
      <point x="403" y="174" type="line"/>
      <point x="129" y="660" type="line"/>
      <point x="96" y="660" type="line"/>
    </contour>
    <contour>
      <point x="364" y="718" type="curve" smooth="yes"/>
      <point x="408" y="718"/>
      <point x="428" y="766"/>
      <point x="430" y="804" type="curve"/>
      <point x="408" y="804" type="line"/>
      <point x="404" y="770"/>
      <point x="388" y="746"/>
      <point x="366" y="746" type="curve" smooth="yes"/>
      <point x="324" y="746"/>
      <point x="300" y="804"/>
      <point x="248" y="804" type="curve" smooth="yes"/>
      <point x="204" y="804"/>
      <point x="184" y="756"/>
      <point x="182" y="718" type="curve"/>
      <point x="204" y="718" type="line"/>
      <point x="208" y="752"/>
      <point x="224" y="776"/>
      <point x="246" y="776" type="curve" smooth="yes"/>
      <point x="288" y="776"/>
      <point x="312" y="718"/>
    </contour>
  </outline>
</glyph>
<glyph name="Otilde" format="1">
  <advance width="600"/>
  <unicode hex="00D5"/>
  <outline>
    <contour>
      <point x="300" y="-12" type="curve" smooth="yes"/>
      <point x="442" y="-12"/>
      <point x="544" y="124"/>
      <point x="544" y="332" type="curve" smooth="yes"/>
      <point x="544" y="540"/>
      <point x="442" y="672"/>
      <point x="300" y="672" type="curve" smooth="yes"/>
      <point x="158" y="672"/>
      <point x="56" y="540"/>
      <point x="56" y="332" type="curve" smooth="yes"/>
      <point x="56" y="124"/>
      <point x="158" y="-12"/>
    </contour>
    <contour>
      <point x="300" y="18" type="curve" smooth="yes"/>
      <point x="175" y="18"/>
      <point x="90" y="142"/>
      <point x="90" y="332" type="curve" smooth="yes"/>
      <point x="90" y="522"/>
      <point x="175" y="642"/>
      <point x="300" y="642" type="curve" smooth="yes"/>
      <point x="425" y="642"/>
      <point x="510" y="522"/>
      <point x="510" y="332" type="curve" smooth="yes"/>
      <point x="510" y="142"/>
      <point x="425" y="18"/>
    </contour>
    <contour>
      <point x="358" y="718" type="curve" smooth="yes"/>
      <point x="402" y="718"/>
      <point x="422" y="766"/>
      <point x="424" y="804" type="curve"/>
      <point x="402" y="804" type="line"/>
      <point x="398" y="770"/>
      <point x="382" y="746"/>
      <point x="360" y="746" type="curve" smooth="yes"/>
      <point x="318" y="746"/>
      <point x="294" y="804"/>
      <point x="242" y="804" type="curve" smooth="yes"/>
      <point x="198" y="804"/>
      <point x="178" y="756"/>
      <point x="176" y="718" type="curve"/>
      <point x="198" y="718" type="line"/>
      <point x="202" y="752"/>
      <point x="218" y="776"/>
      <point x="240" y="776" type="curve" smooth="yes"/>
      <point x="282" y="776"/>
      <point x="306" y="718"/>
    </contour>
  </outline>
</glyph>
<glyph name="Odieresis" format="1">
  <advance width="600"/>
  <unicode hex="00D6"/>
  <outline>
    <contour>
      <point x="300" y="-12" type="curve" smooth="yes"/>
      <point x="442" y="-12"/>
      <point x="544" y="124"/>
      <point x="544" y="332" type="curve" smooth="yes"/>
      <point x="544" y="540"/>
      <point x="442" y="672"/>
      <point x="300" y="672" type="curve" smooth="yes"/>
      <point x="158" y="672"/>
      <point x="56" y="540"/>
      <point x="56" y="332" type="curve" smooth="yes"/>
      <point x="56" y="124"/>
      <point x="158" y="-12"/>
    </contour>
    <contour>
      <point x="300" y="18" type="curve" smooth="yes"/>
      <point x="175" y="18"/>
      <point x="90" y="142"/>
      <point x="90" y="332" type="curve" smooth="yes"/>
      <point x="90" y="522"/>
      <point x="175" y="642"/>
      <point x="300" y="642" type="curve" smooth="yes"/>
      <point x="425" y="642"/>
      <point x="510" y="522"/>
      <point x="510" y="332" type="curve" smooth="yes"/>
      <point x="510" y="142"/>
      <point x="425" y="18"/>
    </contour>
    <contour>
      <point x="224" y="728" type="curve" smooth="yes"/>
      <point x="242" y="728"/>
      <point x="256" y="740"/>
      <point x="256" y="760" type="curve" smooth="yes"/>
      <point x="256" y="780"/>
      <point x="242" y="792"/>
      <point x="224" y="792" type="curve" smooth="yes"/>
      <point x="206" y="792"/>
      <point x="192" y="780"/>
      <point x="192" y="760" type="curve" smooth="yes"/>
      <point x="192" y="740"/>
      <point x="206" y="728"/>
    </contour>
    <contour>
      <point x="376" y="728" type="curve" smooth="yes"/>
      <point x="394" y="728"/>
      <point x="408" y="740"/>
      <point x="408" y="760" type="curve" smooth="yes"/>
      <point x="408" y="780"/>
      <point x="394" y="792"/>
      <point x="376" y="792" type="curve" smooth="yes"/>
      <point x="358" y="792"/>
      <point x="344" y="780"/>
      <point x="344" y="760" type="curve" smooth="yes"/>
      <point x="344" y="740"/>
      <point x="358" y="728"/>
    </contour>
  </outline>
</glyph>
<glyph name="multiply" format="1">
  <advance width="600"/>
  <unicode hex="00D7"/>
  <outline>
    <contour>
      <point x="136" y="118" type="line"/>
      <point x="300" y="290" type="line"/>
      <point x="464" y="118" type="line"/>
      <point x="484" y="140" type="line"/>
      <point x="320" y="310" type="line"/>
      <point x="484" y="480" type="line"/>
      <point x="464" y="502" type="line"/>
      <point x="300" y="330" type="line"/>
      <point x="136" y="502" type="line"/>
      <point x="116" y="480" type="line"/>
      <point x="280" y="310" type="line"/>
      <point x="116" y="140" type="line"/>
    </contour>
  </outline>
</glyph>
<glyph name="Oslash" format="1">
  <advance width="600"/>
  <unicode hex="00D8"/>
  <outline>
    <contour>
      <point x="459" y="547" type="line"/>
      <point x="492" y="494"/>
      <point x="510" y="420"/>
      <point x="510" y="332" type="curve" smooth="yes"/>
      <point x="510" y="142"/>
      <point x="425" y="18"/>
      <point x="300" y="18" type="curve" smooth="yes"/>
      <point x="242" y="18"/>
      <point x="192" y="45"/>
      <point x="156" y="93" type="curve"/>
    </contour>
    <contour>
      <point x="139" y="118" type="line"/>
      <point x="108" y="171"/>
      <point x="90" y="245"/>
      <point x="90" y="332" type="curve" smooth="yes"/>
      <point x="90" y="522"/>
      <point x="175" y="642"/>
      <point x="300" y="642" type="curve" smooth="yes"/>
      <point x="358" y="642"/>
      <point x="407" y="617"/>
      <point x="443" y="571" type="curve"/>
    </contour>
    <contour>
      <point x="538" y="664" type="line"/>
      <point x="516" y="680" type="line"/>
      <point x="461" y="598" type="line"/>
      <point x="419" y="646"/>
      <point x="364" y="672"/>
      <point x="300" y="672" type="curve" smooth="yes"/>
      <point x="158" y="672"/>
      <point x="56" y="540"/>
      <point x="56" y="332" type="curve" smooth="yes"/>
      <point x="56" y="232"/>
      <point x="80" y="148"/>
      <point x="120" y="89" type="curve"/>
      <point x="58" y="-4" type="line"/>
      <point x="80" y="-20" type="line"/>
      <point x="137" y="66" type="line"/>
      <point x="180" y="16"/>
      <point x="236" y="-12"/>
      <point x="300" y="-12" type="curve" smooth="yes"/>
      <point x="442" y="-12"/>
      <point x="544" y="124"/>
      <point x="544" y="332" type="curve" smooth="yes"/>
      <point x="544" y="433"/>
      <point x="520" y="517"/>
      <point x="479" y="575" type="curve"/>
    </contour>
  </outline>
</glyph>
<glyph name="Thorn" format="1">
  <advance width="600"/>
  <unicode hex="00DE"/>
  <outline>
    <contour>
      <point x="124" y="0" type="line"/>
      <point x="156" y="0" type="line"/>
      <point x="156" y="172" type="line"/>
      <point x="296" y="172" type="line" smooth="yes"/>
      <point x="444" y="172"/>
      <point x="528" y="234"/>
      <point x="528" y="360" type="curve" smooth="yes"/>
      <point x="528" y="492"/>
      <point x="444" y="540"/>
      <point x="296" y="540" type="curve" smooth="yes"/>
      <point x="156" y="540" type="line"/>
      <point x="156" y="660" type="line"/>
      <point x="124" y="660" type="line"/>
    </contour>
    <contour>
      <point x="156" y="200" type="line"/>
      <point x="156" y="512" type="line"/>
      <point x="284" y="512" type="line" smooth="yes"/>
      <point x="426" y="512"/>
      <point x="494" y="476"/>
      <point x="494" y="360" type="curve" smooth="yes"/>
      <point x="494" y="246"/>
      <point x="426" y="200"/>
      <point x="284" y="200" type="curve" smooth="yes"/>
    </contour>
  </outline>
</glyph>
<glyph name="agrave" format="1">
  <advance width="600"/>
  <unicode hex="00E0"/>
  <outline>
    <contour>
      <point x="96" y="117" type="curve" smooth="yes"/>
      <point x="96" y="26"/>
      <point x="180" y="-12"/>
      <point x="264" y="-12" type="curve" smooth="yes"/>
      <point x="336" y="-12"/>
      <point x="412" y="29"/>
      <point x="468" y="74" type="curve"/>
      <point x="470" y="74" type="line"/>
      <point x="474" y="0" type="line"/>
      <point x="500" y="0" type="line"/>
      <point x="500" y="310" type="line" smooth="yes"/>
      <point x="500" y="406"/>
      <point x="451" y="490"/>
      <point x="324" y="490" type="curve" smooth="yes"/>
      <point x="238" y="490"/>
      <point x="154" y="444"/>
      <point x="120" y="418" type="curve"/>
      <point x="136" y="394" type="line"/>
      <point x="173" y="422"/>
      <point x="246" y="462"/>
      <point x="322" y="462" type="curve" smooth="yes"/>
      <point x="438" y="462"/>
      <point x="470" y="382"/>
      <point x="470" y="298" type="curve"/>
      <point x="206" y="274"/>
      <point x="96" y="224"/>
    </contour>
    <contour>
      <point x="128" y="118" type="curve" smooth="yes"/>
      <point x="128" y="200"/>
      <point x="212" y="248"/>
      <point x="470" y="272" type="curve"/>
      <point x="470" y="108" type="line"/>
      <point x="398" y="47"/>
      <point x="330" y="16"/>
      <point x="266" y="16" type="curve" smooth="yes"/>
      <point x="198" y="16"/>
      <point x="128" y="44"/>
    </contour>
    <contour>
      <point x="342" y="572" type="line"/>
      <point x="370" y="572" type="line"/>
      <point x="278" y="706" type="line"/>
      <point x="238" y="706" type="line"/>
    </contour>
  </outline>
</glyph>
<glyph name="aring" format="1">
  <advance width="600"/>
  <unicode hex="00E5"/>
  <outline>
    <contour>
      <point x="96" y="117" type="curve" smooth="yes"/>
      <point x="96" y="26"/>
      <point x="180" y="-12"/>
      <point x="264" y="-12" type="curve" smooth="yes"/>
      <point x="336" y="-12"/>
      <point x="412" y="29"/>
      <point x="468" y="74" type="curve"/>
      <point x="470" y="74" type="line"/>
      <point x="474" y="0" type="line"/>
      <point x="500" y="0" type="line"/>
      <point x="500" y="310" type="line" smooth="yes"/>
      <point x="500" y="406"/>
      <point x="451" y="490"/>
      <point x="324" y="490" type="curve" smooth="yes"/>
      <point x="238" y="490"/>
      <point x="154" y="444"/>
      <point x="120" y="418" type="curve"/>
      <point x="136" y="394" type="line"/>
      <point x="173" y="422"/>
      <point x="246" y="462"/>
      <point x="322" y="462" type="curve" smooth="yes"/>
      <point x="438" y="462"/>
      <point x="470" y="382"/>
      <point x="470" y="298" type="curve"/>
      <point x="206" y="274"/>
      <point x="96" y="224"/>
    </contour>
    <contour>
      <point x="128" y="118" type="curve" smooth="yes"/>
      <point x="128" y="200"/>
      <point x="212" y="248"/>
      <point x="470" y="272" type="curve"/>
      <point x="470" y="108" type="line"/>
      <point x="398" y="47"/>
      <point x="330" y="16"/>
      <point x="266" y="16" type="curve" smooth="yes"/>
      <point x="198" y="16"/>
      <point x="128" y="44"/>
    </contour>
    <contour>
      <point x="318" y="538" type="curve" smooth="yes"/>
      <point x="362" y="538"/>
      <point x="396" y="572"/>
      <point x="396" y="622" type="curve" smooth="yes"/>
      <point x="396" y="672"/>
      <point x="362" y="706"/>
      <point x="318" y="706" type="curve" smooth="yes"/>
      <point x="274" y="706"/>
      <point x="240" y="672"/>
      <point x="240" y="622" type="curve" smooth="yes"/>
      <point x="240" y="572"/>
      <point x="274" y="538"/>
    </contour>
    <contour>
      <point x="318" y="560" type="curve" smooth="yes"/>
      <point x="288" y="560"/>
      <point x="264" y="584"/>
      <point x="264" y="622" type="curve" smooth="yes"/>
      <point x="264" y="660"/>
      <point x="288" y="684"/>
      <point x="318" y="684" type="curve" smooth="yes"/>
      <point x="348" y="684"/>
      <point x="372" y="660"/>
      <point x="372" y="622" type="curve" smooth="yes"/>
      <point x="372" y="584"/>
      <point x="348" y="560"/>
    </contour>
  </outline>
</glyph>
<glyph name="ae" format="1">
  <advance width="600"/>
  <unicode hex="00E6"/>
  <outline>
    <contour>
      <point x="17" y="122" type="curve" smooth="yes"/>
      <point x="17" y="31"/>
      <point x="71" y="-12"/>
      <point x="142" y="-12" type="curve" smooth="yes"/>
      <point x="197" y="-12"/>
      <point x="258" y="27"/>
      <point x="314" y="90" type="curve"/>
      <point x="344" y="26"/>
      <point x="392" y="-12"/>
      <point x="461" y="-12" type="curve" smooth="yes"/>
      <point x="518" y="-12"/>
      <point x="557" y="10"/>
      <point x="586" y="28" type="curve"/>
      <point x="573" y="50" type="line"/>
      <point x="545" y="33"/>
      <point x="508" y="15"/>
      <point x="462" y="15" type="curve" smooth="yes"/>
      <point x="360" y="15"/>
      <point x="314" y="111"/>
      <point x="315" y="238" type="curve"/>
      <point x="598" y="238" type="line"/>
      <point x="600" y="258"/>
      <point x="600" y="270"/>
      <point x="600" y="282" type="curve" smooth="yes"/>
      <point x="600" y="392"/>
      <point x="556" y="490"/>
      <point x="460" y="490" type="curve" smooth="yes"/>
      <point x="391" y="490"/>
      <point x="338" y="444"/>
      <point x="308" y="372" type="curve"/>
      <point x="294" y="438"/>
      <point x="251" y="490"/>
      <point x="183" y="490" type="curve" smooth="yes"/>
      <point x="120" y="490"/>
      <point x="65" y="460"/>
      <point x="36" y="440" type="curve"/>
      <point x="50" y="417" type="line"/>
      <point x="78" y="438"/>
      <point x="132" y="463"/>
      <point x="174" y="463" type="curve" smooth="yes"/>
      <point x="257" y="463"/>
      <point x="285" y="392"/>
      <point x="284" y="298" type="curve"/>
      <point x="109" y="276"/>
      <point x="17" y="214"/>
    </contour>
    <contour>
      <point x="316" y="264" type="line"/>
      <point x="320" y="384"/>
      <point x="373" y="462"/>
      <point x="458" y="462" type="curve" smooth="yes"/>
      <point x="544" y="462"/>
      <point x="570" y="370"/>
      <point x="570" y="264" type="curve"/>
    </contour>
    <contour>
      <point x="49" y="120" type="curve" smooth="yes"/>
      <point x="49" y="201"/>
      <point x="116" y="247"/>
      <point x="284" y="272" type="curve"/>
      <point x="284" y="244" type="line" smooth="yes"/>
      <point x="284" y="196"/>
      <point x="291" y="152"/>
      <point x="302" y="116" type="curve"/>
      <point x="254" y="51"/>
      <point x="191" y="15"/>
      <point x="145" y="15" type="curve" smooth="yes"/>
      <point x="87" y="15"/>
      <point x="49" y="51"/>
    </contour>
  </outline>
</glyph>
<glyph name="edieresis" format="1">
  <advance width="600"/>
  <unicode hex="00EB"/>
  <outline>
    <contour>
      <point x="80" y="238" type="curve" smooth="yes"/>
      <point x="80" y="82"/>
      <point x="194" y="-12"/>
      <point x="330" y="-12" type="curve" smooth="yes"/>
      <point x="417" y="-12"/>
      <point x="468" y="17"/>
      <point x="510" y="44" type="curve"/>
      <point x="496" y="70" type="line"/>
      <point x="451" y="38"/>
      <point x="398" y="16"/>
      <point x="332" y="16" type="curve" smooth="yes"/>
      <point x="200" y="16"/>
      <point x="112" y="110"/>
      <point x="112" y="238" type="curve"/>
      <point x="528" y="238" type="line"/>
      <point x="530" y="250"/>
      <point x="530" y="260"/>
      <point x="530" y="270" type="curve" smooth="yes"/>
      <point x="530" y="408"/>
      <point x="446" y="490"/>
      <point x="318" y="490" type="curve" smooth="yes"/>
      <point x="197" y="490"/>
      <point x="80" y="394"/>
    </contour>
    <contour>
      <point x="112" y="264" type="line"/>
      <point x="125" y="386"/>
      <point x="217" y="462"/>
      <point x="318" y="462" type="curve" smooth="yes"/>
      <point x="426" y="462"/>
      <point x="500" y="396"/>
      <point x="500" y="264" type="curve"/>
    </contour>
    <contour>
      <point x="231" y="602" type="curve" smooth="yes"/>
      <point x="251" y="602"/>
      <point x="265" y="618"/>
      <point x="265" y="638" type="curve" smooth="yes"/>
      <point x="265" y="658"/>
      <point x="251" y="674"/>
      <point x="231" y="674" type="curve" smooth="yes"/>
      <point x="211" y="674"/>
      <point x="197" y="658"/>
      <point x="197" y="638" type="curve" smooth="yes"/>
      <point x="197" y="618"/>
      <point x="211" y="602"/>
    </contour>
    <contour>
      <point x="403" y="602" type="curve" smooth="yes"/>
      <point x="423" y="602"/>
      <point x="437" y="618"/>
      <point x="437" y="638" type="curve" smooth="yes"/>
      <point x="437" y="658"/>
      <point x="423" y="674"/>
      <point x="403" y="674" type="curve" smooth="yes"/>
      <point x="383" y="674"/>
      <point x="369" y="658"/>
      <point x="369" y="638" type="curve" smooth="yes"/>
      <point x="369" y="618"/>
      <point x="383" y="602"/>
    </contour>
  </outline>
</glyph>
<glyph name="igrave" format="1">
  <advance width="600"/>
  <unicode hex="00EC"/>
  <outline>
    <contour>
      <point x="100" y="450" type="line"/>
      <point x="346" y="450" type="line"/>
      <point x="346" y="0" type="line"/>
      <point x="376" y="0" type="line"/>
      <point x="376" y="478" type="line"/>
      <point x="100" y="478" type="line"/>
    </contour>
    <contour>
      <point x="374" y="572" type="line"/>
      <point x="402" y="572" type="line"/>
      <point x="310" y="706" type="line"/>
      <point x="270" y="706" type="line"/>
    </contour>
  </outline>
</glyph>
<glyph name="iacute" format="1">
  <advance width="600"/>
  <unicode hex="00ED"/>
  <outline>
    <contour>
      <point x="100" y="450" type="line"/>
      <point x="346" y="450" type="line"/>
      <point x="346" y="0" type="line"/>
      <point x="376" y="0" type="line"/>
      <point x="376" y="478" type="line"/>
      <point x="100" y="478" type="line"/>
    </contour>
    <contour>
      <point x="430" y="706" type="line"/>
      <point x="390" y="706" type="line"/>
      <point x="298" y="572" type="line"/>
      <point x="326" y="572" type="line"/>
    </contour>
  </outline>
</glyph>
<glyph name="icircumflex" format="1">
  <advance width="600"/>
  <unicode hex="00EE"/>
  <outline>
    <contour>
      <point x="100" y="450" type="line"/>
      <point x="346" y="450" type="line"/>
      <point x="346" y="0" type="line"/>
      <point x="376" y="0" type="line"/>
      <point x="376" y="478" type="line"/>
      <point x="100" y="478" type="line"/>
    </contour>
    <contour>
      <point x="242" y="572" type="line"/>
      <point x="270" y="572" type="line"/>
      <point x="348" y="674" type="line"/>
      <point x="352" y="674" type="line"/>
      <point x="430" y="572" type="line"/>
      <point x="458" y="572" type="line"/>
      <point x="364" y="706" type="line"/>
      <point x="336" y="706" type="line"/>
    </contour>
  </outline>
</glyph>
<glyph name="idieresis" format="1">
  <advance width="600"/>
  <unicode hex="00EF"/>
  <outline>
    <contour>
      <point x="100" y="450" type="line"/>
      <point x="346" y="450" type="line"/>
      <point x="346" y="0" type="line"/>
      <point x="376" y="0" type="line"/>
      <point x="376" y="478" type="line"/>
      <point x="100" y="478" type="line"/>
    </contour>
    <contour>
      <point x="264" y="602" type="curve" smooth="yes"/>
      <point x="284" y="602"/>
      <point x="298" y="618"/>
      <point x="298" y="638" type="curve" smooth="yes"/>
      <point x="298" y="658"/>
      <point x="284" y="674"/>
      <point x="264" y="674" type="curve" smooth="yes"/>
      <point x="244" y="674"/>
      <point x="230" y="658"/>
      <point x="230" y="638" type="curve" smooth="yes"/>
      <point x="230" y="618"/>
      <point x="244" y="602"/>
    </contour>
    <contour>
      <point x="436" y="602" type="curve" smooth="yes"/>
      <point x="456" y="602"/>
      <point x="470" y="618"/>
      <point x="470" y="638" type="curve" smooth="yes"/>
      <point x="470" y="658"/>
      <point x="456" y="674"/>
      <point x="436" y="674" type="curve" smooth="yes"/>
      <point x="416" y="674"/>
      <point x="402" y="658"/>
      <point x="402" y="638" type="curve" smooth="yes"/>
      <point x="402" y="618"/>
      <point x="416" y="602"/>
    </contour>
  </outline>
</glyph>
<glyph name="eth" format="1">
  <advance width="600"/>
  <unicode hex="00F0"/>
  <outline>
    <contour>
      <point x="300" y="16" type="curve" smooth="yes"/>
      <point x="191" y="16"/>
      <point x="102" y="100"/>
      <point x="102" y="218" type="curve" smooth="yes"/>
      <point x="102" y="320"/>
      <point x="166" y="412"/>
      <point x="302" y="412" type="curve" smooth="yes"/>
      <point x="363" y="412"/>
      <point x="435" y="383"/>
      <point x="490" y="304" type="curve"/>
      <point x="491" y="287"/>
      <point x="492" y="269"/>
      <point x="492" y="250" type="curve" smooth="yes"/>
      <point x="492" y="122"/>
      <point x="437" y="16"/>
    </contour>
    <contour>
      <point x="502" y="678" type="line"/>
      <point x="490" y="700" type="line"/>
      <point x="357" y="630" type="line"/>
      <point x="312" y="667"/>
      <point x="261" y="696"/>
      <point x="206" y="722" type="curve"/>
      <point x="190" y="700" type="line"/>
      <point x="241" y="675"/>
      <point x="288" y="648"/>
      <point x="329" y="616" type="curve"/>
      <point x="188" y="542" type="line"/>
      <point x="200" y="520" type="line"/>
      <point x="350" y="599" type="line"/>
      <point x="419" y="539"/>
      <point x="468" y="462"/>
      <point x="485" y="348" type="curve"/>
      <point x="442" y="400"/>
      <point x="375" y="440"/>
      <point x="304" y="440" type="curve" smooth="yes"/>
      <point x="160" y="440"/>
      <point x="70" y="348"/>
      <point x="70" y="218" type="curve" smooth="yes"/>
      <point x="70" y="74"/>
      <point x="181" y="-12"/>
      <point x="300" y="-12" type="curve" smooth="yes"/>
      <point x="434" y="-12"/>
      <point x="524" y="90"/>
      <point x="524" y="250" type="curve" smooth="yes"/>
      <point x="524" y="418"/>
      <point x="466" y="531"/>
      <point x="377" y="613" type="curve"/>
    </contour>
  </outline>
</glyph>
<glyph name="ntilde" format="1">
  <advance width="600"/>
  <unicode hex="00F1"/>
  <outline>
    <contour>
      <point x="110" y="0" type="line"/>
      <point x="140" y="0" type="line"/>
      <point x="140" y="346" type="line"/>
      <point x="214" y="424"/>
      <point x="264" y="462"/>
      <point x="336" y="462" type="curve" smooth="yes"/>
      <point x="437" y="462"/>
      <point x="480" y="407"/>
      <point x="480" y="294" type="curve" smooth="yes"/>
      <point x="480" y="0" type="line"/>
      <point x="510" y="0" type="line"/>
      <point x="510" y="298" type="line" smooth="yes"/>
      <point x="510" y="429"/>
      <point x="453" y="490"/>
      <point x="336" y="490" type="curve" smooth="yes"/>
      <point x="258" y="490"/>
      <point x="201" y="444"/>
      <point x="144" y="382" type="curve"/>
      <point x="140" y="382" type="line"/>
      <point x="136" y="478" type="line"/>
      <point x="110" y="478" type="line"/>
    </contour>
    <contour>
      <point x="202" y="582" type="curve"/>
      <point x="226" y="582" type="line"/>
      <point x="230" y="617"/>
      <point x="242" y="638"/>
      <point x="264" y="638" type="curve" smooth="yes"/>
      <point x="301" y="638"/>
      <point x="326" y="582"/>
      <point x="374" y="582" type="curve" smooth="yes"/>
      <point x="421" y="582"/>
      <point x="436" y="629"/>
      <point x="438" y="664" type="curve"/>
      <point x="414" y="664" type="line"/>
      <point x="410" y="630"/>
      <point x="398" y="608"/>
      <point x="376" y="608" type="curve" smooth="yes"/>
      <point x="341" y="608"/>
      <point x="314" y="664"/>
      <point x="266" y="664" type="curve" smooth="yes"/>
      <point x="219" y="664"/>
      <point x="204" y="618"/>
    </contour>
  </outline>
</glyph>
<glyph name="divide" format="1">
  <advance width="600"/>
  <unicode hex="00F7"/>
  <outline>
    <contour>
      <point x="300" y="454" type="curve" smooth="yes"/>
      <point x="318" y="454"/>
      <point x="332" y="468"/>
      <point x="332" y="490" type="curve" smooth="yes"/>
      <point x="332" y="510"/>
      <point x="318" y="524"/>
      <point x="300" y="524" type="curve" smooth="yes"/>
      <point x="282" y="524"/>
      <point x="268" y="510"/>
      <point x="268" y="490" type="curve" smooth="yes"/>
      <point x="268" y="468"/>
      <point x="282" y="454"/>
    </contour>
    <contour>
      <point x="268" y="130" type="curve" smooth="yes"/>
      <point x="268" y="108"/>
      <point x="282" y="94"/>
      <point x="300" y="94" type="curve" smooth="yes"/>
      <point x="318" y="94"/>
      <point x="332" y="108"/>
      <point x="332" y="130" type="curve" smooth="yes"/>
      <point x="332" y="150"/>
      <point x="318" y="164"/>
      <point x="300" y="164" type="curve" smooth="yes"/>
      <point x="282" y="164"/>
      <point x="268" y="150"/>
    </contour>
    <contour>
      <point x="98" y="296" type="line"/>
      <point x="502" y="296" type="line"/>
      <point x="502" y="324" type="line"/>
      <point x="98" y="324" type="line"/>
    </contour>
  </outline>
</glyph>
<glyph name="oslash" format="1">
  <advance width="600"/>
  <unicode hex="00F8"/>
  <outline>
    <contour>
      <point x="451" y="389" type="line"/>
      <point x="480" y="350"/>
      <point x="498" y="298"/>
      <point x="498" y="238" type="curve" smooth="yes"/>
      <point x="498" y="106"/>
      <point x="414" y="16"/>
      <point x="300" y="16" type="curve" smooth="yes"/>
      <point x="249" y="16"/>
      <point x="203" y="34"/>
      <point x="169" y="66" type="curve"/>
    </contour>
    <contour>
      <point x="150" y="87" type="line"/>
      <point x="120" y="126"/>
      <point x="102" y="177"/>
      <point x="102" y="238" type="curve" smooth="yes"/>
      <point x="102" y="370"/>
      <point x="186" y="462"/>
      <point x="300" y="462" type="curve" smooth="yes"/>
      <point x="352" y="462"/>
      <point x="397" y="443"/>
      <point x="431" y="410" type="curve"/>
    </contour>
    <contour>
      <point x="530" y="480" type="line"/>
      <point x="508" y="498" type="line"/>
      <point x="452" y="434" type="line"/>
      <point x="411" y="470"/>
      <point x="358" y="490"/>
      <point x="300" y="490" type="curve" smooth="yes"/>
      <point x="175" y="490"/>
      <point x="70" y="398"/>
      <point x="70" y="238" type="curve" smooth="yes"/>
      <point x="70" y="165"/>
      <point x="92" y="106"/>
      <point x="129" y="64" type="curve"/>
      <point x="70" y="-4" type="line"/>
      <point x="92" y="-22" type="line"/>
      <point x="149" y="43" type="line"/>
      <point x="190" y="7"/>
      <point x="243" y="-12"/>
      <point x="300" y="-12" type="curve" smooth="yes"/>
      <point x="425" y="-12"/>
      <point x="530" y="80"/>
      <point x="530" y="238" type="curve" smooth="yes"/>
      <point x="530" y="312"/>
      <point x="508" y="371"/>
      <point x="472" y="413" type="curve"/>
    </contour>
  </outline>
</glyph>
<glyph name="udieresis" format="1">
  <advance width="600"/>
  <unicode hex="00FC"/>
  <outline>
    <contour>
      <point x="490" y="478" type="line"/>
      <point x="460" y="478" type="line"/>
      <point x="460" y="132" type="line"/>
      <point x="390" y="53"/>
      <point x="336" y="16"/>
      <point x="264" y="16" type="curve" smooth="yes"/>
      <point x="163" y="16"/>
      <point x="120" y="71"/>
      <point x="120" y="184" type="curve" smooth="yes"/>
      <point x="120" y="478" type="line"/>
      <point x="90" y="478" type="line"/>
      <point x="90" y="180" type="line" smooth="yes"/>
      <point x="90" y="49"/>
      <point x="147" y="-12"/>
      <point x="264" y="-12" type="curve" smooth="yes"/>
      <point x="342" y="-12"/>
      <point x="403" y="34"/>
      <point x="456" y="96" type="curve"/>
      <point x="460" y="96" type="line"/>
      <point x="464" y="0" type="line"/>
      <point x="490" y="0" type="line"/>
    </contour>
    <contour>
      <point x="208" y="602" type="curve" smooth="yes"/>
      <point x="228" y="602"/>
      <point x="242" y="618"/>
      <point x="242" y="638" type="curve" smooth="yes"/>
      <point x="242" y="658"/>
      <point x="228" y="674"/>
      <point x="208" y="674" type="curve" smooth="yes"/>
      <point x="188" y="674"/>
      <point x="174" y="658"/>
      <point x="174" y="638" type="curve" smooth="yes"/>
      <point x="174" y="618"/>
      <point x="188" y="602"/>
    </contour>
    <contour>
      <point x="380" y="602" type="curve" smooth="yes"/>
      <point x="400" y="602"/>
      <point x="414" y="618"/>
      <point x="414" y="638" type="curve" smooth="yes"/>
      <point x="414" y="658"/>
      <point x="400" y="674"/>
      <point x="380" y="674" type="curve" smooth="yes"/>
      <point x="360" y="674"/>
      <point x="346" y="658"/>
      <point x="346" y="638" type="curve" smooth="yes"/>
      <point x="346" y="618"/>
      <point x="360" y="602"/>
    </contour>
  </outline>
</glyph>
<glyph name="thorn" format="1">
  <advance width="600"/>
  <unicode hex="00FE"/>
  <outline>
    <contour>
      <point x="140" y="-42" type="line"/>
      <point x="140" y="58" type="line"/>
      <point x="192" y="14"/>
      <point x="255" y="-12"/>
      <point x="304" y="-12" type="curve" smooth="yes"/>
      <point x="423" y="-12"/>
      <point x="530" y="84"/>
      <point x="530" y="246" type="curve" smooth="yes"/>
      <point x="530" y="394"/>
      <point x="461" y="490"/>
      <point x="324" y="490" type="curve" smooth="yes"/>
      <point x="260" y="490"/>
      <point x="192" y="454"/>
      <point x="138" y="402" type="curve"/>
      <point x="140" y="498" type="line"/>
      <point x="140" y="722" type="line"/>
      <point x="110" y="722" type="line"/>
      <point x="110" y="-222" type="line"/>
      <point x="140" y="-222" type="line"/>
    </contour>
    <contour>
      <point x="140" y="92" type="curve"/>
      <point x="140" y="368" type="line"/>
      <point x="204" y="432"/>
      <point x="269" y="462"/>
      <point x="322" y="462" type="curve" smooth="yes"/>
      <point x="447" y="462"/>
      <point x="498" y="368"/>
      <point x="498" y="246" type="curve" smooth="yes"/>
      <point x="498" y="112"/>
      <point x="416" y="16"/>
      <point x="306" y="16" type="curve" smooth="yes"/>
      <point x="265" y="16"/>
      <point x="200" y="37"/>
    </contour>
  </outline>
</glyph>
<glyph name="Amacron" format="1">
  <advance width="600"/>
  <unicode hex="0100"/>
  <outline>
    <contour>
      <point x="410" y="764" type="line"/>
      <point x="190" y="764" type="line"/>
      <point x="190" y="736" type="line"/>
      <point x="410" y="736" type="line"/>
    </contour>
    <contour>
      <point x="175" y="264" type="line"/>
      <point x="222" y="396" type="line" smooth="yes"/>
      <point x="250" y="476"/>
      <point x="274" y="544"/>
      <point x="298" y="626" type="curve"/>
      <point x="302" y="626" type="line"/>
      <point x="326" y="544"/>
      <point x="350" y="476"/>
      <point x="378" y="396" type="curve" smooth="yes"/>
      <point x="424" y="264" type="line"/>
    </contour>
    <contour>
      <point x="516" y="0" type="line"/>
      <point x="550" y="0" type="line"/>
      <point x="314" y="660" type="line"/>
      <point x="286" y="660" type="line"/>
      <point x="50" y="0" type="line"/>
      <point x="82" y="0" type="line"/>
      <point x="165" y="236" type="line"/>
      <point x="434" y="236" type="line"/>
    </contour>
  </outline>
</glyph>
<glyph name="Aogonek" format="1">
  <advance width="600"/>
  <unicode hex="0104"/>
  <outline>
    <contour>
      <point x="175" y="264" type="line"/>
      <point x="222" y="396" type="line" smooth="yes"/>
      <point x="250" y="476"/>
      <point x="274" y="544"/>
      <point x="298" y="626" type="curve"/>
      <point x="302" y="626" type="line"/>
      <point x="326" y="544"/>
      <point x="350" y="476"/>
      <point x="378" y="396" type="curve" smooth="yes"/>
      <point x="424" y="264" type="line"/>
    </contour>
    <contour>
      <point x="574" y="-160" type="line"/>
      <point x="560" y="-170"/>
      <point x="548" y="-174"/>
      <point x="530" y="-174" type="curve" smooth="yes"/>
      <point x="504" y="-174"/>
      <point x="478" y="-156"/>
      <point x="478" y="-120" type="curve" smooth="yes"/>
      <point x="478" y="-78"/>
      <point x="510" y="-30"/>
      <point x="550" y="0" type="curve"/>
      <point x="314" y="660" type="line"/>
      <point x="286" y="660" type="line"/>
      <point x="50" y="0" type="line"/>
      <point x="82" y="0" type="line"/>
      <point x="165" y="236" type="line"/>
      <point x="434" y="236" type="line"/>
      <point x="516" y="0" type="line"/>
      <point x="518" y="0" type="line"/>
      <point x="482" y="-26"/>
      <point x="448" y="-74"/>
      <point x="448" y="-122" type="curve" smooth="yes"/>
      <point x="448" y="-176"/>
      <point x="484" y="-202"/>
      <point x="528" y="-202" type="curve" smooth="yes"/>
      <point x="548" y="-202"/>
      <point x="574" y="-192"/>
      <point x="588" y="-180" type="curve"/>
    </contour>
  </outline>
</glyph>
<glyph name="aogonek" format="1">
  <advance width="600"/>
  <unicode hex="0105"/>
  <outline>
    <contour>
      <point x="96" y="117" type="curve" smooth="yes"/>
      <point x="96" y="26"/>
      <point x="180" y="-12"/>
      <point x="264" y="-12" type="curve" smooth="yes"/>
      <point x="336" y="-12"/>
      <point x="412" y="29"/>
      <point x="468" y="74" type="curve"/>
      <point x="470" y="74" type="line"/>
      <point x="474" y="8" type="line"/>
      <point x="424" y="-22"/>
      <point x="384" y="-72"/>
      <point x="384" y="-122" type="curve" smooth="yes"/>
      <point x="384" y="-176"/>
      <point x="418" y="-202"/>
      <point x="462" y="-202" type="curve" smooth="yes"/>
      <point x="482" y="-202"/>
      <point x="508" y="-192"/>
      <point x="522" y="-180" type="curve"/>
      <point x="508" y="-160" type="line"/>
      <point x="494" y="-170"/>
      <point x="482" y="-174"/>
      <point x="464" y="-174" type="curve" smooth="yes"/>
      <point x="438" y="-174"/>
      <point x="414" y="-156"/>
      <point x="414" y="-120" type="curve" smooth="yes"/>
      <point x="414" y="-76"/>
      <point x="452" y="-26"/>
      <point x="500" y="0" type="curve"/>
      <point x="500" y="310" type="line" smooth="yes"/>
      <point x="500" y="406"/>
      <point x="451" y="490"/>
      <point x="324" y="490" type="curve" smooth="yes"/>
      <point x="238" y="490"/>
      <point x="154" y="444"/>
      <point x="120" y="418" type="curve"/>
      <point x="136" y="394" type="line"/>
      <point x="173" y="422"/>
      <point x="246" y="462"/>
      <point x="322" y="462" type="curve" smooth="yes"/>
      <point x="438" y="462"/>
      <point x="470" y="382"/>
      <point x="470" y="298" type="curve"/>
      <point x="206" y="274"/>
      <point x="96" y="224"/>
    </contour>
    <contour>
      <point x="128" y="118" type="curve" smooth="yes"/>
      <point x="128" y="200"/>
      <point x="212" y="248"/>
      <point x="470" y="272" type="curve"/>
      <point x="470" y="108" type="line"/>
      <point x="398" y="47"/>
      <point x="330" y="16"/>
      <point x="266" y="16" type="curve" smooth="yes"/>
      <point x="198" y="16"/>
      <point x="128" y="44"/>
    </contour>
  </outline>
</glyph>
<glyph name="Cacute" format="1">
  <advance width="600"/>
  <unicode hex="0106"/>
  <outline>
    <contour>
      <point x="74" y="332" type="curve" smooth="yes"/>
      <point x="74" y="124"/>
      <point x="185" y="-12"/>
      <point x="347" y="-12" type="curve" smooth="yes"/>
      <point x="433" y="-12"/>
      <point x="491" y="24"/>
      <point x="541" y="82" type="curve"/>
      <point x="521" y="102" type="line"/>
      <point x="471" y="46"/>
      <point x="419" y="18"/>
      <point x="349" y="18" type="curve" smooth="yes"/>
      <point x="201" y="18"/>
      <point x="108" y="142"/>
      <point x="108" y="332" type="curve" smooth="yes"/>
      <point x="108" y="522"/>
      <point x="201" y="642"/>
      <point x="353" y="642" type="curve" smooth="yes"/>
      <point x="415" y="642"/>
      <point x="465" y="614"/>
      <point x="501" y="572" type="curve"/>
      <point x="521" y="594" type="line"/>
      <point x="487" y="634"/>
      <point x="429" y="672"/>
      <point x="353" y="672" type="curve" smooth="yes"/>
      <point x="185" y="672"/>
      <point x="74" y="540"/>
    </contour>
    <contour>
      <point x="448" y="814" type="line"/>
      <point x="404" y="814" type="line"/>
      <point x="310" y="710" type="line"/>
      <point x="340" y="710" type="line"/>
    </contour>
  </outline>
</glyph>
<glyph name="Ccircumflex" format="1">
  <advance width="600"/>
  <unicode hex="0108"/>
  <outline>
    <contour>
      <point x="74" y="332" type="curve" smooth="yes"/>
      <point x="74" y="124"/>
      <point x="185" y="-12"/>
      <point x="347" y="-12" type="curve" smooth="yes"/>
      <point x="433" y="-12"/>
      <point x="491" y="24"/>
      <point x="541" y="82" type="curve"/>
      <point x="521" y="102" type="line"/>
      <point x="471" y="46"/>
      <point x="419" y="18"/>
      <point x="349" y="18" type="curve" smooth="yes"/>
      <point x="201" y="18"/>
      <point x="108" y="142"/>
      <point x="108" y="332" type="curve" smooth="yes"/>
      <point x="108" y="522"/>
      <point x="201" y="642"/>
      <point x="353" y="642" type="curve" smooth="yes"/>
      <point x="415" y="642"/>
      <point x="465" y="614"/>
      <point x="501" y="572" type="curve"/>
      <point x="521" y="594" type="line"/>
      <point x="487" y="634"/>
      <point x="429" y="672"/>
      <point x="353" y="672" type="curve" smooth="yes"/>
      <point x="185" y="672"/>
      <point x="74" y="540"/>
    </contour>
    <contour>
      <point x="262" y="710" type="line"/>
      <point x="340" y="784" type="line"/>
      <point x="344" y="784" type="line"/>
      <point x="422" y="710" type="line"/>
      <point x="452" y="710" type="line"/>
      <point x="356" y="814" type="line"/>
      <point x="328" y="814" type="line"/>
      <point x="232" y="710" type="line"/>
    </contour>
  </outline>
</glyph>
<glyph name="ccircumflex" format="1">
  <advance width="600"/>
  <unicode hex="0109"/>
  <outline>
    <contour>
      <point x="90" y="238" type="curve" smooth="yes"/>
      <point x="90" y="80"/>
      <point x="200" y="-12"/>
      <point x="348" y="-12" type="curve" smooth="yes"/>
      <point x="424" y="-12"/>
      <point x="484" y="20"/>
      <point x="532" y="66" type="curve"/>
      <point x="514" y="88" type="line"/>
      <point x="470" y="46"/>
      <point x="415" y="16"/>
      <point x="348" y="16" type="curve" smooth="yes"/>
      <point x="212" y="16"/>
      <point x="122" y="106"/>
      <point x="122" y="238" type="curve" smooth="yes"/>
      <point x="122" y="370"/>
      <point x="214" y="462"/>
      <point x="348" y="462" type="curve" smooth="yes"/>
      <point x="410" y="462"/>
      <point x="458" y="434"/>
      <point x="499" y="394" type="curve"/>
      <point x="519" y="416" type="line"/>
      <point x="480" y="454"/>
      <point x="429" y="490"/>
      <point x="348" y="490" type="curve" smooth="yes"/>
      <point x="206" y="490"/>
      <point x="90" y="398"/>
    </contour>
    <contour>
      <point x="237" y="572" type="line"/>
      <point x="265" y="572" type="line"/>
      <point x="343" y="674" type="line"/>
      <point x="347" y="674" type="line"/>
      <point x="425" y="572" type="line"/>
      <point x="453" y="572" type="line"/>
      <point x="359" y="706" type="line"/>
      <point x="331" y="706" type="line"/>
    </contour>
  </outline>
</glyph>
<glyph name="Dcaron" format="1">
  <advance width="600"/>
  <unicode hex="010E"/>
  <outline>
    <contour>
      <point x="100" y="0" type="line"/>
      <point x="248" y="0" type="line" smooth="yes"/>
      <point x="452" y="0"/>
      <point x="544" y="136"/>
      <point x="544" y="332" type="curve" smooth="yes"/>
      <point x="544" y="528"/>
      <point x="452" y="660"/>
      <point x="248" y="660" type="curve" smooth="yes"/>
      <point x="100" y="660" type="line"/>
    </contour>
    <contour>
      <point x="132" y="28" type="line"/>
      <point x="132" y="632" type="line"/>
      <point x="244" y="632" type="line" smooth="yes"/>
      <point x="432" y="632"/>
      <point x="510" y="506"/>
      <point x="510" y="332" type="curve" smooth="yes"/>
      <point x="510" y="158"/>
      <point x="432" y="28"/>
      <point x="244" y="28" type="curve" smooth="yes"/>
    </contour>
    <contour>
      <point x="380" y="814" type="line"/>
      <point x="302" y="740" type="line"/>
      <point x="298" y="740" type="line"/>
      <point x="220" y="814" type="line"/>
      <point x="190" y="814" type="line"/>
      <point x="286" y="710" type="line"/>
      <point x="314" y="710" type="line"/>
      <point x="410" y="814" type="line"/>
    </contour>
  </outline>
</glyph>
<glyph name="dcroat" format="1">
  <advance width="600"/>
  <unicode hex="0111"/>
  <outline>
    <contour>
      <point x="460" y="110" type="line"/>
      <point x="403" y="50"/>
      <point x="343" y="16"/>
      <point x="284" y="16" type="curve" smooth="yes"/>
      <point x="170" y="16"/>
      <point x="102" y="102"/>
      <point x="102" y="228" type="curve" smooth="yes"/>
      <point x="102" y="345"/>
      <point x="188" y="442"/>
      <point x="296" y="442" type="curve" smooth="yes"/>
      <point x="349" y="442"/>
      <point x="402" y="421"/>
      <point x="460" y="366" type="curve"/>
    </contour>
    <contour>
      <point x="490" y="612" type="line"/>
      <point x="490" y="722" type="line"/>
      <point x="460" y="722" type="line"/>
      <point x="460" y="612" type="line"/>
      <point x="272" y="612" type="line"/>
      <point x="272" y="584" type="line"/>
      <point x="460" y="584" type="line"/>
      <point x="460" y="500" type="line"/>
      <point x="462" y="400" type="line"/>
      <point x="409" y="444"/>
      <point x="360" y="470"/>
      <point x="298" y="470" type="curve" smooth="yes"/>
      <point x="177" y="470"/>
      <point x="70" y="376"/>
      <point x="70" y="228" type="curve" smooth="yes"/>
      <point x="70" y="72"/>
      <point x="156" y="-12"/>
      <point x="282" y="-12" type="curve" smooth="yes"/>
      <point x="352" y="-12"/>
      <point x="415" y="29"/>
      <point x="458" y="74" type="curve"/>
      <point x="460" y="74" type="line"/>
      <point x="464" y="0" type="line"/>
      <point x="490" y="0" type="line"/>
      <point x="490" y="584" type="line"/>
      <point x="566" y="588" type="line"/>
      <point x="566" y="612" type="line"/>
    </contour>
  </outline>
</glyph>
<glyph name="Edotaccent" format="1">
  <advance width="600"/>
  <unicode hex="0116"/>
  <outline>
    <contour>
      <point x="132" y="0" type="line"/>
      <point x="526" y="0" type="line"/>
      <point x="526" y="28" type="line"/>
      <point x="164" y="28" type="line"/>
      <point x="164" y="338" type="line"/>
      <point x="460" y="338" type="line"/>
      <point x="460" y="366" type="line"/>
      <point x="164" y="366" type="line"/>
      <point x="164" y="632" type="line"/>
      <point x="516" y="632" type="line"/>
      <point x="516" y="660" type="line"/>
      <point x="132" y="660" type="line"/>
    </contour>
    <contour>
      <point x="338" y="724" type="curve" smooth="yes"/>
      <point x="356" y="724"/>
      <point x="372" y="738"/>
      <point x="372" y="760" type="curve" smooth="yes"/>
      <point x="372" y="780"/>
      <point x="356" y="794"/>
      <point x="338" y="794" type="curve" smooth="yes"/>
      <point x="320" y="794"/>
      <point x="304" y="780"/>
      <point x="304" y="760" type="curve" smooth="yes"/>
      <point x="304" y="738"/>
      <point x="320" y="724"/>
    </contour>
  </outline>
</glyph>
<glyph name="Ecaron" format="1">
  <advance width="600"/>
  <unicode hex="011A"/>
  <outline>
    <contour>
      <point x="132" y="0" type="line"/>
      <point x="526" y="0" type="line"/>
      <point x="526" y="28" type="line"/>
      <point x="164" y="28" type="line"/>
      <point x="164" y="338" type="line"/>
      <point x="460" y="338" type="line"/>
      <point x="460" y="366" type="line"/>
      <point x="164" y="366" type="line"/>
      <point x="164" y="632" type="line"/>
      <point x="516" y="632" type="line"/>
      <point x="516" y="660" type="line"/>
      <point x="132" y="660" type="line"/>
    </contour>
    <contour>
      <point x="418" y="814" type="line"/>
      <point x="340" y="740" type="line"/>
      <point x="336" y="740" type="line"/>
      <point x="258" y="814" type="line"/>
      <point x="228" y="814" type="line"/>
      <point x="324" y="710" type="line"/>
      <point x="352" y="710" type="line"/>
      <point x="448" y="814" type="line"/>
    </contour>
  </outline>
</glyph>
<glyph name="Gcommaaccent" format="1">
  <advance width="600"/>
  <unicode hex="0122"/>
  <outline>
    <contour>
      <point x="61" y="332" type="curve" smooth="yes"/>
      <point x="61" y="124"/>
      <point x="169" y="-12"/>
      <point x="333" y="-12" type="curve" smooth="yes"/>
      <point x="418" y="-12"/>
      <point x="482" y="18"/>
      <point x="522" y="62" type="curve"/>
      <point x="522" y="318" type="line"/>
      <point x="329" y="318" type="line"/>
      <point x="329" y="290" type="line"/>
      <point x="489" y="290" type="line"/>
      <point x="489" y="72" type="line"/>
      <point x="456" y="38"/>
      <point x="398" y="18"/>
      <point x="335" y="18" type="curve" smooth="yes"/>
      <point x="185" y="18"/>
      <point x="95" y="142"/>
      <point x="95" y="332" type="curve" smooth="yes"/>
      <point x="95" y="522"/>
      <point x="189" y="642"/>
      <point x="343" y="642" type="curve" smooth="yes"/>
      <point x="415" y="642"/>
      <point x="462" y="610"/>
      <point x="496" y="572" type="curve"/>
      <point x="516" y="594" type="line"/>
      <point x="482" y="630"/>
      <point x="429" y="672"/>
      <point x="343" y="672" type="curve" smooth="yes"/>
      <point x="173" y="672"/>
      <point x="61" y="540"/>
    </contour>
    <contour>
      <point x="312" y="-52" type="curve"/>
      <point x="302" y="-78" type="line"/>
      <point x="330" y="-84"/>
      <point x="360" y="-96"/>
      <point x="360" y="-128" type="curve" smooth="yes"/>
      <point x="360" y="-156"/>
      <point x="322" y="-172"/>
      <point x="266" y="-180" type="curve"/>
      <point x="272" y="-206" type="line"/>
      <point x="332" y="-198"/>
      <point x="390" y="-174"/>
      <point x="390" y="-124" type="curve" smooth="yes"/>
      <point x="390" y="-84"/>
      <point x="362" y="-64"/>
    </contour>
  </outline>
</glyph>
<glyph name="Hcircumflex" format="1">
  <advance width="600"/>
  <unicode hex="0124"/>
  <outline>
    <contour>
      <point x="92" y="0" type="line"/>
      <point x="124" y="0" type="line"/>
      <point x="124" y="338" type="line"/>
      <point x="476" y="338" type="line"/>
      <point x="476" y="0" type="line"/>
      <point x="508" y="0" type="line"/>
      <point x="508" y="660" type="line"/>
      <point x="476" y="660" type="line"/>
      <point x="476" y="366" type="line"/>
      <point x="124" y="366" type="line"/>
      <point x="124" y="660" type="line"/>
      <point x="92" y="660" type="line"/>
    </contour>
    <contour>
      <point x="220" y="710" type="line"/>
      <point x="298" y="784" type="line"/>
      <point x="302" y="784" type="line"/>
      <point x="380" y="710" type="line"/>
      <point x="410" y="710" type="line"/>
      <point x="314" y="814" type="line"/>
      <point x="286" y="814" type="line"/>
      <point x="190" y="710" type="line"/>
    </contour>
  </outline>
</glyph>
<glyph name="hcircumflex" format="1">
  <advance width="600"/>
  <unicode hex="0125"/>
  <outline>
    <contour>
      <point x="110" y="0" type="line"/>
      <point x="140" y="0" type="line"/>
      <point x="140" y="346" type="line"/>
      <point x="214" y="424"/>
      <point x="264" y="462"/>
      <point x="336" y="462" type="curve" smooth="yes"/>
      <point x="437" y="462"/>
      <point x="480" y="407"/>
      <point x="480" y="294" type="curve" smooth="yes"/>
      <point x="480" y="0" type="line"/>
      <point x="510" y="0" type="line"/>
      <point x="510" y="298" type="line" smooth="yes"/>
      <point x="510" y="429"/>
      <point x="453" y="490"/>
      <point x="336" y="490" type="curve" smooth="yes"/>
      <point x="258" y="490"/>
      <point x="201" y="444"/>
      <point x="138" y="378" type="curve"/>
      <point x="140" y="508" type="line"/>
      <point x="140" y="722" type="line"/>
      <point x="110" y="722" type="line"/>
    </contour>
    <contour>
      <point x="62" y="748" type="line"/>
      <point x="140" y="822" type="line"/>
      <point x="144" y="822" type="line"/>
      <point x="222" y="748" type="line"/>
      <point x="252" y="748" type="line"/>
      <point x="156" y="852" type="line"/>
      <point x="128" y="852" type="line"/>
      <point x="32" y="748" type="line"/>
    </contour>
  </outline>
</glyph>
<glyph name="hbar" format="1">
  <advance width="600"/>
  <unicode hex="0127"/>
  <outline>
    <contour>
      <point x="140" y="488" type="line"/>
      <point x="140" y="584" type="line"/>
      <point x="376" y="584" type="line"/>
      <point x="376" y="612" type="line"/>
      <point x="140" y="612" type="line"/>
      <point x="140" y="722" type="line"/>
      <point x="110" y="722" type="line"/>
      <point x="110" y="612" type="line"/>
      <point x="32" y="608" type="line"/>
      <point x="32" y="584" type="line"/>
      <point x="110" y="584" type="line"/>
      <point x="110" y="0" type="line"/>
      <point x="140" y="0" type="line"/>
      <point x="140" y="326" type="line"/>
      <point x="214" y="404"/>
      <point x="264" y="442"/>
      <point x="336" y="442" type="curve" smooth="yes"/>
      <point x="437" y="442"/>
      <point x="480" y="387"/>
      <point x="480" y="274" type="curve" smooth="yes"/>
      <point x="480" y="0" type="line"/>
      <point x="510" y="0" type="line"/>
      <point x="510" y="278" type="line" smooth="yes"/>
      <point x="510" y="409"/>
      <point x="453" y="470"/>
      <point x="336" y="470" type="curve" smooth="yes"/>
      <point x="258" y="470"/>
      <point x="201" y="424"/>
      <point x="138" y="358" type="curve"/>
    </contour>
  </outline>
</glyph>
<glyph name="Itilde" format="1">
  <advance width="600"/>
  <unicode hex="0128"/>
  <outline>
    <contour>
      <point x="112" y="0" type="line"/>
      <point x="488" y="0" type="line"/>
      <point x="488" y="28" type="line"/>
      <point x="316" y="28" type="line"/>
      <point x="316" y="632" type="line"/>
      <point x="488" y="632" type="line"/>
      <point x="488" y="660" type="line"/>
      <point x="112" y="660" type="line"/>
      <point x="112" y="632" type="line"/>
      <point x="284" y="632" type="line"/>
      <point x="284" y="28" type="line"/>
      <point x="112" y="28" type="line"/>
    </contour>
    <contour>
      <point x="358" y="718" type="curve" smooth="yes"/>
      <point x="402" y="718"/>
      <point x="422" y="766"/>
      <point x="424" y="804" type="curve"/>
      <point x="402" y="804" type="line"/>
      <point x="398" y="770"/>
      <point x="382" y="746"/>
      <point x="360" y="746" type="curve" smooth="yes"/>
      <point x="318" y="746"/>
      <point x="294" y="804"/>
      <point x="242" y="804" type="curve" smooth="yes"/>
      <point x="198" y="804"/>
      <point x="178" y="756"/>
      <point x="176" y="718" type="curve"/>
      <point x="198" y="718" type="line"/>
      <point x="202" y="752"/>
      <point x="218" y="776"/>
      <point x="240" y="776" type="curve" smooth="yes"/>
      <point x="282" y="776"/>
      <point x="306" y="718"/>
    </contour>
  </outline>
</glyph>
<glyph name="itilde" format="1">
  <advance width="600"/>
  <unicode hex="0129"/>
  <outline>
    <contour>
      <point x="100" y="450" type="line"/>
      <point x="346" y="450" type="line"/>
      <point x="346" y="0" type="line"/>
      <point x="376" y="0" type="line"/>
      <point x="376" y="478" type="line"/>
      <point x="100" y="478" type="line"/>
    </contour>
    <contour>
      <point x="232" y="582" type="curve"/>
      <point x="256" y="582" type="line"/>
      <point x="260" y="617"/>
      <point x="272" y="638"/>
      <point x="294" y="638" type="curve" smooth="yes"/>
      <point x="331" y="638"/>
      <point x="356" y="582"/>
      <point x="404" y="582" type="curve" smooth="yes"/>
      <point x="451" y="582"/>
      <point x="466" y="629"/>
      <point x="468" y="664" type="curve"/>
      <point x="444" y="664" type="line"/>
      <point x="440" y="630"/>
      <point x="428" y="608"/>
      <point x="406" y="608" type="curve" smooth="yes"/>
      <point x="371" y="608"/>
      <point x="344" y="664"/>
      <point x="296" y="664" type="curve" smooth="yes"/>
      <point x="249" y="664"/>
      <point x="234" y="618"/>
    </contour>
  </outline>
</glyph>
<glyph name="Imacron" format="1">
  <advance width="600"/>
  <unicode hex="012A"/>
  <outline>
    <contour>
      <point x="112" y="0" type="line"/>
      <point x="488" y="0" type="line"/>
      <point x="488" y="28" type="line"/>
      <point x="316" y="28" type="line"/>
      <point x="316" y="632" type="line"/>
      <point x="488" y="632" type="line"/>
      <point x="488" y="660" type="line"/>
      <point x="112" y="660" type="line"/>
      <point x="112" y="632" type="line"/>
      <point x="284" y="632" type="line"/>
      <point x="284" y="28" type="line"/>
      <point x="112" y="28" type="line"/>
    </contour>
    <contour>
      <point x="190" y="736" type="line"/>
      <point x="410" y="736" type="line"/>
      <point x="410" y="764" type="line"/>
      <point x="190" y="764" type="line"/>
    </contour>
  </outline>
</glyph>
<glyph name="Ibreve" format="1">
  <advance width="600"/>
  <unicode hex="012C"/>
  <outline>
    <contour>
      <point x="112" y="0" type="line"/>
      <point x="488" y="0" type="line"/>
      <point x="488" y="28" type="line"/>
      <point x="316" y="28" type="line"/>
      <point x="316" y="632" type="line"/>
      <point x="488" y="632" type="line"/>
      <point x="488" y="660" type="line"/>
      <point x="112" y="660" type="line"/>
      <point x="112" y="632" type="line"/>
      <point x="284" y="632" type="line"/>
      <point x="284" y="28" type="line"/>
      <point x="112" y="28" type="line"/>
    </contour>
    <contour>
      <point x="300" y="712" type="curve" smooth="yes"/>
      <point x="374" y="712"/>
      <point x="406" y="772"/>
      <point x="412" y="814" type="curve"/>
      <point x="386" y="814" type="line"/>
      <point x="380" y="778"/>
      <point x="354" y="738"/>
      <point x="300" y="738" type="curve" smooth="yes"/>
      <point x="246" y="738"/>
      <point x="220" y="778"/>
      <point x="214" y="814" type="curve"/>
      <point x="188" y="814" type="line"/>
      <point x="194" y="772"/>
      <point x="226" y="712"/>
    </contour>
  </outline>
</glyph>
<glyph name="Iogonek" format="1">
  <advance width="600"/>
  <unicode hex="012E"/>
  <outline>
    <contour>
      <point x="112" y="0" type="line"/>
      <point x="288" y="0" type="line"/>
      <point x="254" y="-36"/>
      <point x="228" y="-70"/>
      <point x="228" y="-122" type="curve" smooth="yes"/>
      <point x="228" y="-176"/>
      <point x="264" y="-202"/>
      <point x="308" y="-202" type="curve" smooth="yes"/>
      <point x="328" y="-202"/>
      <point x="354" y="-192"/>
      <point x="368" y="-180" type="curve"/>
      <point x="354" y="-160" type="line"/>
      <point x="340" y="-170"/>
      <point x="328" y="-174"/>
      <point x="310" y="-174" type="curve" smooth="yes"/>
      <point x="284" y="-174"/>
      <point x="258" y="-156"/>
      <point x="258" y="-120" type="curve" smooth="yes"/>
      <point x="258" y="-74"/>
      <point x="284" y="-40"/>
      <point x="316" y="0" type="curve"/>
      <point x="488" y="0" type="line"/>
      <point x="488" y="28" type="line"/>
      <point x="316" y="28" type="line"/>
      <point x="316" y="632" type="line"/>
      <point x="488" y="632" type="line"/>
      <point x="488" y="660" type="line"/>
      <point x="112" y="660" type="line"/>
      <point x="112" y="632" type="line"/>
      <point x="284" y="632" type="line"/>
      <point x="284" y="28" type="line"/>
      <point x="112" y="28" type="line"/>
    </contour>
  </outline>
</glyph>
<glyph name="Idotaccent" format="1">
  <advance width="600"/>
  <unicode hex="0130"/>
  <outline>
    <contour>
      <point x="112" y="0" type="line"/>
      <point x="488" y="0" type="line"/>
      <point x="488" y="28" type="line"/>
      <point x="316" y="28" type="line"/>
      <point x="316" y="632" type="line"/>
      <point x="488" y="632" type="line"/>
      <point x="488" y="660" type="line"/>
      <point x="112" y="660" type="line"/>
      <point x="112" y="632" type="line"/>
      <point x="284" y="632" type="line"/>
      <point x="284" y="28" type="line"/>
      <point x="112" y="28" type="line"/>
    </contour>
    <contour>
      <point x="300" y="724" type="curve" smooth="yes"/>
      <point x="318" y="724"/>
      <point x="334" y="738"/>
      <point x="334" y="760" type="curve" smooth="yes"/>
      <point x="334" y="780"/>
      <point x="318" y="794"/>
      <point x="300" y="794" type="curve" smooth="yes"/>
      <point x="282" y="794"/>
      <point x="266" y="780"/>
      <point x="266" y="760" type="curve" smooth="yes"/>
      <point x="266" y="738"/>
      <point x="282" y="724"/>
    </contour>
  </outline>
</glyph>
<glyph name="dotlessi" format="1">
  <advance width="600"/>
  <unicode hex="0131"/>
  <outline>
    <contour>
      <point x="100" y="450" type="line"/>
      <point x="346" y="450" type="line"/>
      <point x="346" y="0" type="line"/>
      <point x="376" y="0" type="line"/>
      <point x="376" y="478" type="line"/>
      <point x="100" y="478" type="line"/>
    </contour>
  </outline>
</glyph>
<glyph name="Kcommaaccent" format="1">
  <advance width="600"/>
  <unicode hex="0136"/>
  <outline>
    <contour>
      <point x="122" y="0" type="line"/>
      <point x="154" y="0" type="line"/>
      <point x="154" y="234" type="line"/>
      <point x="299" y="394" type="line"/>
      <point x="530" y="0" type="line"/>
      <point x="568" y="0" type="line"/>
      <point x="323" y="418" type="line"/>
      <point x="539" y="660" type="line"/>
      <point x="500" y="660" type="line"/>
      <point x="156" y="280" type="line"/>
      <point x="154" y="280" type="line"/>
      <point x="154" y="660" type="line"/>
      <point x="122" y="660" type="line"/>
    </contour>
    <contour>
      <point x="325" y="-52" type="curve"/>
      <point x="315" y="-78" type="line"/>
      <point x="343" y="-84"/>
      <point x="373" y="-96"/>
      <point x="373" y="-128" type="curve" smooth="yes"/>
      <point x="373" y="-156"/>
      <point x="335" y="-172"/>
      <point x="279" y="-180" type="curve"/>
      <point x="285" y="-206" type="line"/>
      <point x="345" y="-198"/>
      <point x="403" y="-174"/>
      <point x="403" y="-124" type="curve" smooth="yes"/>
      <point x="403" y="-84"/>
      <point x="375" y="-64"/>
    </contour>
  </outline>
</glyph>
<glyph name="Lacute" format="1">
  <advance width="600"/>
  <unicode hex="0139"/>
  <outline>
    <contour>
      <point x="156" y="0" type="line"/>
      <point x="538" y="0" type="line"/>
      <point x="538" y="28" type="line"/>
      <point x="186" y="28" type="line"/>
      <point x="186" y="660" type="line"/>
      <point x="156" y="660" type="line"/>
    </contour>
    <contour>
      <point x="292" y="814" type="line"/>
      <point x="248" y="814" type="line"/>
      <point x="154" y="710" type="line"/>
      <point x="184" y="710" type="line"/>
    </contour>
  </outline>
</glyph>
<glyph name="Lcommaaccent" format="1">
  <advance width="600"/>
  <unicode hex="013B"/>
  <outline>
    <contour>
      <point x="156" y="0" type="line"/>
      <point x="538" y="0" type="line"/>
      <point x="538" y="28" type="line"/>
      <point x="186" y="28" type="line"/>
      <point x="186" y="660" type="line"/>
      <point x="156" y="660" type="line"/>
    </contour>
    <contour>
      <point x="334" y="-52" type="curve"/>
      <point x="324" y="-78" type="line"/>
      <point x="352" y="-84"/>
      <point x="382" y="-96"/>
      <point x="382" y="-128" type="curve" smooth="yes"/>
      <point x="382" y="-156"/>
      <point x="344" y="-172"/>
      <point x="288" y="-180" type="curve"/>
      <point x="294" y="-206" type="line"/>
      <point x="354" y="-198"/>
      <point x="412" y="-174"/>
      <point x="412" y="-124" type="curve" smooth="yes"/>
      <point x="412" y="-84"/>
      <point x="384" y="-64"/>
    </contour>
  </outline>
</glyph>
<glyph name="lcaron" format="1">
  <advance width="600"/>
  <unicode hex="013E"/>
  <outline>
    <contour>
      <point x="97" y="694" type="line"/>
      <point x="280" y="694" type="line"/>
      <point x="280" y="138" type="line" smooth="yes"/>
      <point x="280" y="31"/>
      <point x="329" y="-12"/>
      <point x="415" y="-12" type="curve" smooth="yes"/>
      <point x="461" y="-12"/>
      <point x="494" y="3"/>
      <point x="532" y="18" type="curve"/>
      <point x="520" y="43" type="line"/>
      <point x="480" y="24"/>
      <point x="449" y="16"/>
      <point x="417" y="16" type="curve" smooth="yes"/>
      <point x="345" y="16"/>
      <point x="310" y="54"/>
      <point x="310" y="132" type="curve" smooth="yes"/>
      <point x="310" y="722" type="line"/>
      <point x="97" y="722" type="line"/>
    </contour>
    <contour>
      <point x="414" y="548" type="line"/>
      <point x="420" y="704" type="line"/>
      <point x="420" y="752" type="line"/>
      <point x="390" y="752" type="line"/>
      <point x="392" y="548" type="line"/>
    </contour>
  </outline>
</glyph>
<glyph name="lslash" format="1">
  <advance width="600"/>
  <unicode hex="0142"/>
  <outline>
    <contour>
      <point x="520" y="43" type="line"/>
      <point x="480" y="24"/>
      <point x="449" y="16"/>
      <point x="417" y="16" type="curve" smooth="yes"/>
      <point x="345" y="16"/>
      <point x="310" y="54"/>
      <point x="310" y="132" type="curve" smooth="yes"/>
      <point x="310" y="395" type="line"/>
      <point x="484" y="494" type="line"/>
      <point x="484" y="526" type="line"/>
      <point x="310" y="427" type="line"/>
      <point x="310" y="722" type="line"/>
      <point x="97" y="722" type="line"/>
      <point x="97" y="694" type="line"/>
      <point x="280" y="694" type="line"/>
      <point x="280" y="409" type="line"/>
      <point x="148" y="332" type="line"/>
      <point x="148" y="300" type="line"/>
      <point x="280" y="377" type="line"/>
      <point x="280" y="138" type="line" smooth="yes"/>
      <point x="280" y="31"/>
      <point x="329" y="-12"/>
      <point x="415" y="-12" type="curve" smooth="yes"/>
      <point x="461" y="-12"/>
      <point x="494" y="3"/>
      <point x="532" y="18" type="curve"/>
    </contour>
  </outline>
</glyph>
<glyph name="ncaron" format="1">
  <advance width="600"/>
  <unicode hex="0148"/>
  <outline>
    <contour>
      <point x="110" y="0" type="line"/>
      <point x="140" y="0" type="line"/>
      <point x="140" y="346" type="line"/>
      <point x="214" y="424"/>
      <point x="264" y="462"/>
      <point x="336" y="462" type="curve" smooth="yes"/>
      <point x="437" y="462"/>
      <point x="480" y="407"/>
      <point x="480" y="294" type="curve" smooth="yes"/>
      <point x="480" y="0" type="line"/>
      <point x="510" y="0" type="line"/>
      <point x="510" y="298" type="line" smooth="yes"/>
      <point x="510" y="429"/>
      <point x="453" y="490"/>
      <point x="336" y="490" type="curve" smooth="yes"/>
      <point x="258" y="490"/>
      <point x="201" y="444"/>
      <point x="144" y="382" type="curve"/>
      <point x="140" y="382" type="line"/>
      <point x="136" y="478" type="line"/>
      <point x="110" y="478" type="line"/>
    </contour>
    <contour>
      <point x="306" y="572" type="line"/>
      <point x="334" y="572" type="line"/>
      <point x="428" y="706" type="line"/>
      <point x="400" y="706" type="line"/>
      <point x="322" y="604" type="line"/>
      <point x="318" y="604" type="line"/>
      <point x="240" y="706" type="line"/>
      <point x="212" y="706" type="line"/>
    </contour>
  </outline>
</glyph>
<glyph name="Ohungarumlaut" format="1">
  <advance width="600"/>
  <unicode hex="0150"/>
  <outline>
    <contour>
      <point x="300" y="-12" type="curve" smooth="yes"/>
      <point x="442" y="-12"/>
      <point x="544" y="124"/>
      <point x="544" y="332" type="curve" smooth="yes"/>
      <point x="544" y="540"/>
      <point x="442" y="672"/>
      <point x="300" y="672" type="curve" smooth="yes"/>
      <point x="158" y="672"/>
      <point x="56" y="540"/>
      <point x="56" y="332" type="curve" smooth="yes"/>
      <point x="56" y="124"/>
      <point x="158" y="-12"/>
    </contour>
    <contour>
      <point x="300" y="18" type="curve" smooth="yes"/>
      <point x="175" y="18"/>
      <point x="90" y="142"/>
      <point x="90" y="332" type="curve" smooth="yes"/>
      <point x="90" y="522"/>
      <point x="175" y="642"/>
      <point x="300" y="642" type="curve" smooth="yes"/>
      <point x="425" y="642"/>
      <point x="510" y="522"/>
      <point x="510" y="332" type="curve" smooth="yes"/>
      <point x="510" y="142"/>
      <point x="425" y="18"/>
    </contour>
    <contour>
      <point x="242" y="710" type="line"/>
      <point x="320" y="814" type="line"/>
      <point x="282" y="814" type="line"/>
      <point x="214" y="710" type="line"/>
    </contour>
    <contour>
      <point x="354" y="710" type="line"/>
      <point x="382" y="710" type="line"/>
      <point x="460" y="814" type="line"/>
      <point x="422" y="814" type="line"/>
    </contour>
  </outline>
</glyph>
<glyph name="ohungarumlaut" format="1">
  <advance width="600"/>
  <unicode hex="0151"/>
  <outline>
    <contour>
      <point x="70" y="238" type="curve" smooth="yes"/>
      <point x="70" y="80"/>
      <point x="175" y="-12"/>
      <point x="300" y="-12" type="curve" smooth="yes"/>
      <point x="425" y="-12"/>
      <point x="530" y="80"/>
      <point x="530" y="238" type="curve" smooth="yes"/>
      <point x="530" y="398"/>
      <point x="425" y="490"/>
      <point x="300" y="490" type="curve" smooth="yes"/>
      <point x="175" y="490"/>
      <point x="70" y="398"/>
    </contour>
    <contour>
      <point x="102" y="238" type="curve" smooth="yes"/>
      <point x="102" y="370"/>
      <point x="186" y="462"/>
      <point x="300" y="462" type="curve" smooth="yes"/>
      <point x="414" y="462"/>
      <point x="498" y="370"/>
      <point x="498" y="238" type="curve" smooth="yes"/>
      <point x="498" y="106"/>
      <point x="414" y="16"/>
      <point x="300" y="16" type="curve" smooth="yes"/>
      <point x="186" y="16"/>
      <point x="102" y="106"/>
    </contour>
    <contour>
      <point x="224" y="570" type="line"/>
      <point x="250" y="570" type="line"/>
      <point x="332" y="706" type="line"/>
      <point x="296" y="706" type="line"/>
    </contour>
    <contour>
      <point x="352" y="570" type="line"/>
      <point x="378" y="570" type="line"/>
      <point x="460" y="706" type="line"/>
      <point x="424" y="706" type="line"/>
    </contour>
  </outline>
</glyph>
<glyph name="OE" format="1">
  <advance width="600"/>
  <unicode hex="0152"/>
  <outline>
    <contour>
      <point x="44" y="332" type="curve" smooth="yes"/>
      <point x="44" y="136"/>
      <point x="131" y="0"/>
      <point x="303" y="0" type="curve" smooth="yes"/>
      <point x="588" y="0" type="line"/>
      <point x="588" y="28" type="line"/>
      <point x="356" y="28" type="line"/>
      <point x="356" y="338" type="line"/>
      <point x="526" y="338" type="line"/>
      <point x="526" y="366" type="line"/>
      <point x="356" y="366" type="line"/>
      <point x="356" y="634" type="line"/>
      <point x="578" y="634" type="line"/>
      <point x="578" y="661" type="line"/>
      <point x="302" y="661" type="line" smooth="yes"/>
      <point x="130" y="661"/>
      <point x="44" y="529"/>
    </contour>
    <contour>
      <point x="77" y="332" type="curve" smooth="yes"/>
      <point x="77" y="507"/>
      <point x="144" y="633"/>
      <point x="298" y="633" type="curve" smooth="yes"/>
      <point x="323" y="633" type="line"/>
      <point x="323" y="28" type="line"/>
      <point x="298" y="28" type="line" smooth="yes"/>
      <point x="144" y="28"/>
      <point x="77" y="158"/>
    </contour>
  </outline>
</glyph>
<glyph name="Rcommaaccent" format="1">
  <advance width="600"/>
  <unicode hex="0156"/>
  <outline>
    <contour>
      <point x="286" y="-78" type="line"/>
      <point x="314" y="-84"/>
      <point x="344" y="-96"/>
      <point x="344" y="-128" type="curve" smooth="yes"/>
      <point x="344" y="-156"/>
      <point x="306" y="-172"/>
      <point x="250" y="-180" type="curve"/>
      <point x="256" y="-206" type="line"/>
      <point x="316" y="-198"/>
      <point x="374" y="-174"/>
      <point x="374" y="-124" type="curve" smooth="yes"/>
      <point x="374" y="-84"/>
      <point x="346" y="-64"/>
      <point x="296" y="-52" type="curve"/>
    </contour>
    <contour>
      <point x="156" y="340" type="line"/>
      <point x="156" y="632" type="line"/>
      <point x="294" y="632" type="line" smooth="yes"/>
      <point x="416" y="632"/>
      <point x="484" y="594"/>
      <point x="484" y="490" type="curve" smooth="yes"/>
      <point x="484" y="388"/>
      <point x="416" y="340"/>
      <point x="294" y="340" type="curve" smooth="yes"/>
    </contour>
    <contour>
      <point x="340" y="314" type="line"/>
      <point x="450" y="324"/>
      <point x="518" y="385"/>
      <point x="518" y="490" type="curve" smooth="yes"/>
      <point x="518" y="612"/>
      <point x="436" y="660"/>
      <point x="306" y="660" type="curve" smooth="yes"/>
      <point x="124" y="660" type="line"/>
      <point x="124" y="0" type="line"/>
      <point x="156" y="0" type="line"/>
      <point x="156" y="312" type="line"/>
      <point x="304" y="312" type="line"/>
      <point x="490" y="0" type="line"/>
      <point x="528" y="0" type="line"/>
    </contour>
  </outline>
</glyph>
<glyph name="rcommaaccent" format="1">
  <advance width="600"/>
  <unicode hex="0157"/>
  <outline>
    <contour>
      <point x="170" y="0" type="line"/>
      <point x="200" y="0" type="line"/>
      <point x="200" y="306" type="line"/>
      <point x="270" y="418"/>
      <point x="344" y="460"/>
      <point x="427" y="460" type="curve" smooth="yes"/>
      <point x="465" y="460"/>
      <point x="483" y="455"/>
      <point x="519" y="442" type="curve"/>
      <point x="527" y="470" type="line"/>
      <point x="496" y="486"/>
      <point x="462" y="490"/>
      <point x="431" y="490" type="curve" smooth="yes"/>
      <point x="333" y="490"/>
      <point x="254" y="434"/>
      <point x="202" y="358" type="curve"/>
      <point x="200" y="358" type="line"/>
      <point x="196" y="478" type="line"/>
      <point x="170" y="478" type="line"/>
    </contour>
    <contour>
      <point x="174" y="-52" type="curve"/>
      <point x="164" y="-78" type="line"/>
      <point x="192" y="-84"/>
      <point x="222" y="-96"/>
      <point x="222" y="-128" type="curve" smooth="yes"/>
      <point x="222" y="-156"/>
      <point x="184" y="-172"/>
      <point x="128" y="-180" type="curve"/>
      <point x="134" y="-206" type="line"/>
      <point x="194" y="-198"/>
      <point x="252" y="-174"/>
      <point x="252" y="-124" type="curve" smooth="yes"/>
      <point x="252" y="-84"/>
      <point x="224" y="-64"/>
    </contour>
  </outline>
</glyph>
<glyph name="rcaron" format="1">
  <advance width="600"/>
  <unicode hex="0159"/>
  <outline>
    <contour>
      <point x="170" y="0" type="line"/>
      <point x="200" y="0" type="line"/>
      <point x="200" y="306" type="line"/>
      <point x="270" y="418"/>
      <point x="344" y="460"/>
      <point x="427" y="460" type="curve" smooth="yes"/>
      <point x="465" y="460"/>
      <point x="483" y="455"/>
      <point x="519" y="442" type="curve"/>
      <point x="527" y="470" type="line"/>
      <point x="496" y="486"/>
      <point x="462" y="490"/>
      <point x="431" y="490" type="curve" smooth="yes"/>
      <point x="333" y="490"/>
      <point x="254" y="434"/>
      <point x="202" y="358" type="curve"/>
      <point x="200" y="358" type="line"/>
      <point x="196" y="478" type="line"/>
      <point x="170" y="478" type="line"/>
    </contour>
    <contour>
      <point x="330" y="572" type="line"/>
      <point x="358" y="572" type="line"/>
      <point x="452" y="706" type="line"/>
      <point x="424" y="706" type="line"/>
      <point x="346" y="604" type="line"/>
      <point x="342" y="604" type="line"/>
      <point x="264" y="706" type="line"/>
      <point x="236" y="706" type="line"/>
    </contour>
  </outline>
</glyph>
<glyph name="Scircumflex" format="1">
  <advance width="600"/>
  <unicode hex="015C"/>
  <outline>
    <contour>
      <point x="80" y="88" type="line"/>
      <point x="132" y="30"/>
      <point x="208" y="-12"/>
      <point x="310" y="-12" type="curve" smooth="yes"/>
      <point x="440" y="-12"/>
      <point x="526" y="62"/>
      <point x="526" y="162" type="curve" smooth="yes"/>
      <point x="526" y="264"/>
      <point x="454" y="303"/>
      <point x="376" y="336" type="curve" smooth="yes"/>
      <point x="274" y="382" type="line" smooth="yes"/>
      <point x="223" y="403"/>
      <point x="148" y="434"/>
      <point x="148" y="516" type="curve" smooth="yes"/>
      <point x="148" y="592"/>
      <point x="214" y="642"/>
      <point x="312" y="642" type="curve" smooth="yes"/>
      <point x="384" y="642"/>
      <point x="442" y="614"/>
      <point x="482" y="572" type="curve"/>
      <point x="502" y="594" type="line"/>
      <point x="462" y="635"/>
      <point x="396" y="672"/>
      <point x="312" y="672" type="curve" smooth="yes"/>
      <point x="200" y="672"/>
      <point x="116" y="608"/>
      <point x="116" y="514" type="curve" smooth="yes"/>
      <point x="116" y="416"/>
      <point x="200" y="377"/>
      <point x="260" y="352" type="curve" smooth="yes"/>
      <point x="362" y="306" type="line" smooth="yes"/>
      <point x="433" y="276"/>
      <point x="494" y="248"/>
      <point x="494" y="160" type="curve" smooth="yes"/>
      <point x="494" y="76"/>
      <point x="422" y="18"/>
      <point x="310" y="18" type="curve" smooth="yes"/>
      <point x="226" y="18"/>
      <point x="152" y="54"/>
      <point x="102" y="110" type="curve"/>
    </contour>
    <contour>
      <point x="234" y="710" type="line"/>
      <point x="312" y="784" type="line"/>
      <point x="316" y="784" type="line"/>
      <point x="394" y="710" type="line"/>
      <point x="424" y="710" type="line"/>
      <point x="328" y="814" type="line"/>
      <point x="300" y="814" type="line"/>
      <point x="204" y="710" type="line"/>
    </contour>
  </outline>
</glyph>
<glyph name="scircumflex" format="1">
  <advance width="600"/>
  <unicode hex="015D"/>
  <outline>
    <contour>
      <point x="87" y="64" type="line"/>
      <point x="143" y="23"/>
      <point x="222" y="-12"/>
      <point x="322" y="-12" type="curve" smooth="yes"/>
      <point x="444" y="-12"/>
      <point x="514" y="50"/>
      <point x="514" y="120" type="curve" smooth="yes"/>
      <point x="514" y="186"/>
      <point x="470" y="224"/>
      <point x="312" y="263" type="curve" smooth="yes"/>
      <point x="210" y="288"/>
      <point x="146" y="320"/>
      <point x="146" y="368" type="curve" smooth="yes"/>
      <point x="146" y="416"/>
      <point x="181" y="462"/>
      <point x="294" y="462" type="curve" smooth="yes"/>
      <point x="361" y="462"/>
      <point x="416" y="440"/>
      <point x="458" y="408" type="curve"/>
      <point x="476" y="432" type="line"/>
      <point x="431" y="466"/>
      <point x="357" y="490"/>
      <point x="296" y="490" type="curve" smooth="yes"/>
      <point x="169" y="490"/>
      <point x="114" y="432"/>
      <point x="114" y="366" type="curve" smooth="yes"/>
      <point x="114" y="304"/>
      <point x="193" y="260"/>
      <point x="304" y="234" type="curve" smooth="yes"/>
      <point x="454" y="199"/>
      <point x="482" y="164"/>
      <point x="482" y="118" type="curve" smooth="yes"/>
      <point x="482" y="64"/>
      <point x="428" y="16"/>
      <point x="324" y="16" type="curve" smooth="yes"/>
      <point x="220" y="16"/>
      <point x="158" y="44"/>
      <point x="106" y="88" type="curve"/>
    </contour>
    <contour>
      <point x="188" y="572" type="line"/>
      <point x="216" y="572" type="line"/>
      <point x="294" y="674" type="line"/>
      <point x="298" y="674" type="line"/>
      <point x="376" y="572" type="line"/>
      <point x="404" y="572" type="line"/>
      <point x="310" y="706" type="line"/>
      <point x="282" y="706" type="line"/>
    </contour>
  </outline>
</glyph>
<glyph name="scedilla" format="1">
  <advance width="600"/>
  <unicode hex="015F"/>
  <outline>
    <contour>
      <point x="476" y="432" type="line"/>
      <point x="431" y="466"/>
      <point x="357" y="490"/>
      <point x="296" y="490" type="curve" smooth="yes"/>
      <point x="169" y="490"/>
      <point x="114" y="432"/>
      <point x="114" y="366" type="curve" smooth="yes"/>
      <point x="114" y="304"/>
      <point x="193" y="260"/>
      <point x="304" y="234" type="curve" smooth="yes"/>
      <point x="454" y="199"/>
      <point x="482" y="164"/>
      <point x="482" y="118" type="curve" smooth="yes"/>
      <point x="482" y="64"/>
      <point x="428" y="16"/>
      <point x="324" y="16" type="curve" smooth="yes"/>
      <point x="220" y="16"/>
      <point x="158" y="44"/>
      <point x="106" y="88" type="curve"/>
      <point x="87" y="64" type="line"/>
      <point x="140" y="25"/>
      <point x="213" y="-8"/>
      <point x="305" y="-12" type="curve"/>
      <point x="272" y="-74" type="line"/>
      <point x="310" y="-84"/>
      <point x="340" y="-96"/>
      <point x="340" y="-128" type="curve" smooth="yes"/>
      <point x="340" y="-156"/>
      <point x="302" y="-172"/>
      <point x="246" y="-180" type="curve"/>
      <point x="252" y="-206" type="line"/>
      <point x="312" y="-198"/>
      <point x="370" y="-174"/>
      <point x="370" y="-124" type="curve" smooth="yes"/>
      <point x="370" y="-84"/>
      <point x="342" y="-66"/>
      <point x="310" y="-56" type="curve"/>
      <point x="333" y="-12" type="line"/>
      <point x="448" y="-8"/>
      <point x="514" y="52"/>
      <point x="514" y="120" type="curve" smooth="yes"/>
      <point x="514" y="186"/>
      <point x="470" y="224"/>
      <point x="312" y="263" type="curve" smooth="yes"/>
      <point x="210" y="288"/>
      <point x="146" y="320"/>
      <point x="146" y="368" type="curve" smooth="yes"/>
      <point x="146" y="416"/>
      <point x="181" y="462"/>
      <point x="294" y="462" type="curve" smooth="yes"/>
      <point x="361" y="462"/>
      <point x="416" y="440"/>
      <point x="458" y="408" type="curve"/>
    </contour>
  </outline>
</glyph>
<glyph name="tcommaaccent" format="1">
  <advance width="600"/>
  <unicode hex="0163"/>
  <outline>
    <contour>
      <point x="232" y="176" type="line" smooth="yes"/>
      <point x="232" y="64"/>
      <point x="270" y="-12"/>
      <point x="397" y="-12" type="curve" smooth="yes"/>
      <point x="441" y="-12"/>
      <point x="498" y="0"/>
      <point x="541" y="18" type="curve"/>
      <point x="531" y="42" type="line"/>
      <point x="492" y="26"/>
      <point x="452" y="16"/>
      <point x="399" y="16" type="curve" smooth="yes"/>
      <point x="288" y="16"/>
      <point x="262" y="76"/>
      <point x="262" y="172" type="curve" smooth="yes"/>
      <point x="262" y="450" type="line"/>
      <point x="523" y="450" type="line"/>
      <point x="523" y="478" type="line"/>
      <point x="262" y="478" type="line"/>
      <point x="262" y="618" type="line"/>
      <point x="236" y="618" type="line"/>
      <point x="232" y="478" type="line"/>
      <point x="85" y="474" type="line"/>
      <point x="85" y="450" type="line"/>
      <point x="232" y="450" type="line"/>
    </contour>
    <contour>
      <point x="364" y="-52" type="curve"/>
      <point x="354" y="-78" type="line"/>
      <point x="382" y="-84"/>
      <point x="412" y="-96"/>
      <point x="412" y="-128" type="curve" smooth="yes"/>
      <point x="412" y="-156"/>
      <point x="374" y="-172"/>
      <point x="318" y="-180" type="curve"/>
      <point x="324" y="-206" type="line"/>
      <point x="384" y="-198"/>
      <point x="442" y="-174"/>
      <point x="442" y="-124" type="curve" smooth="yes"/>
      <point x="442" y="-84"/>
      <point x="414" y="-64"/>
    </contour>
  </outline>
</glyph>
<glyph name="Utilde" format="1">
  <advance width="600"/>
  <unicode hex="0168"/>
  <outline>
    <contour>
      <point x="92" y="246" type="line" smooth="yes"/>
      <point x="92" y="42"/>
      <point x="196" y="-12"/>
      <point x="300" y="-12" type="curve" smooth="yes"/>
      <point x="404" y="-12"/>
      <point x="508" y="42"/>
      <point x="508" y="246" type="curve" smooth="yes"/>
      <point x="508" y="660" type="line"/>
      <point x="478" y="660" type="line"/>
      <point x="478" y="254" type="line" smooth="yes"/>
      <point x="478" y="72"/>
      <point x="394" y="18"/>
      <point x="300" y="18" type="curve" smooth="yes"/>
      <point x="208" y="18"/>
      <point x="124" y="72"/>
      <point x="124" y="254" type="curve" smooth="yes"/>
      <point x="124" y="660" type="line"/>
      <point x="92" y="660" type="line"/>
    </contour>
    <contour>
      <point x="358" y="718" type="curve" smooth="yes"/>
      <point x="402" y="718"/>
      <point x="422" y="766"/>
      <point x="424" y="804" type="curve"/>
      <point x="402" y="804" type="line"/>
      <point x="398" y="770"/>
      <point x="382" y="746"/>
      <point x="360" y="746" type="curve" smooth="yes"/>
      <point x="318" y="746"/>
      <point x="294" y="804"/>
      <point x="242" y="804" type="curve" smooth="yes"/>
      <point x="198" y="804"/>
      <point x="178" y="756"/>
      <point x="176" y="718" type="curve"/>
      <point x="198" y="718" type="line"/>
      <point x="202" y="752"/>
      <point x="218" y="776"/>
      <point x="240" y="776" type="curve" smooth="yes"/>
      <point x="282" y="776"/>
      <point x="306" y="718"/>
    </contour>
  </outline>
</glyph>
<glyph name="utilde" format="1">
  <advance width="600"/>
  <unicode hex="0169"/>
  <outline>
    <contour>
      <point x="490" y="478" type="line"/>
      <point x="460" y="478" type="line"/>
      <point x="460" y="132" type="line"/>
      <point x="390" y="53"/>
      <point x="336" y="16"/>
      <point x="264" y="16" type="curve" smooth="yes"/>
      <point x="163" y="16"/>
      <point x="120" y="71"/>
      <point x="120" y="184" type="curve" smooth="yes"/>
      <point x="120" y="478" type="line"/>
      <point x="90" y="478" type="line"/>
      <point x="90" y="180" type="line" smooth="yes"/>
      <point x="90" y="49"/>
      <point x="147" y="-12"/>
      <point x="264" y="-12" type="curve" smooth="yes"/>
      <point x="342" y="-12"/>
      <point x="403" y="34"/>
      <point x="456" y="96" type="curve"/>
      <point x="460" y="96" type="line"/>
      <point x="464" y="0" type="line"/>
      <point x="490" y="0" type="line"/>
    </contour>
    <contour>
      <point x="176" y="582" type="curve"/>
      <point x="200" y="582" type="line"/>
      <point x="204" y="617"/>
      <point x="216" y="638"/>
      <point x="238" y="638" type="curve" smooth="yes"/>
      <point x="275" y="638"/>
      <point x="300" y="582"/>
      <point x="348" y="582" type="curve" smooth="yes"/>
      <point x="395" y="582"/>
      <point x="410" y="629"/>
      <point x="412" y="664" type="curve"/>
      <point x="388" y="664" type="line"/>
      <point x="384" y="630"/>
      <point x="372" y="608"/>
      <point x="350" y="608" type="curve" smooth="yes"/>
      <point x="315" y="608"/>
      <point x="288" y="664"/>
      <point x="240" y="664" type="curve" smooth="yes"/>
      <point x="193" y="664"/>
      <point x="178" y="618"/>
    </contour>
  </outline>
</glyph>
<glyph name="ubreve" format="1">
  <advance width="600"/>
  <unicode hex="016D"/>
  <outline>
    <contour>
      <point x="490" y="478" type="line"/>
      <point x="460" y="478" type="line"/>
      <point x="460" y="132" type="line"/>
      <point x="390" y="53"/>
      <point x="336" y="16"/>
      <point x="264" y="16" type="curve" smooth="yes"/>
      <point x="163" y="16"/>
      <point x="120" y="71"/>
      <point x="120" y="184" type="curve" smooth="yes"/>
      <point x="120" y="478" type="line"/>
      <point x="90" y="478" type="line"/>
      <point x="90" y="180" type="line" smooth="yes"/>
      <point x="90" y="49"/>
      <point x="147" y="-12"/>
      <point x="264" y="-12" type="curve" smooth="yes"/>
      <point x="342" y="-12"/>
      <point x="403" y="34"/>
      <point x="456" y="96" type="curve"/>
      <point x="460" y="96" type="line"/>
      <point x="464" y="0" type="line"/>
      <point x="490" y="0" type="line"/>
    </contour>
    <contour>
      <point x="294" y="576" type="curve" smooth="yes"/>
      <point x="374" y="576"/>
      <point x="404" y="644"/>
      <point x="410" y="692" type="curve"/>
      <point x="384" y="692" type="line"/>
      <point x="378" y="648"/>
      <point x="350" y="602"/>
      <point x="294" y="602" type="curve" smooth="yes"/>
      <point x="238" y="602"/>
      <point x="210" y="648"/>
      <point x="204" y="692" type="curve"/>
      <point x="178" y="692" type="line"/>
      <point x="184" y="644"/>
      <point x="214" y="576"/>
    </contour>
  </outline>
</glyph>
<glyph name="Uring" format="1">
  <advance width="600"/>
  <unicode hex="016E"/>
  <outline>
    <contour>
      <point x="92" y="246" type="line" smooth="yes"/>
      <point x="92" y="42"/>
      <point x="196" y="-12"/>
      <point x="300" y="-12" type="curve" smooth="yes"/>
      <point x="404" y="-12"/>
      <point x="508" y="42"/>
      <point x="508" y="246" type="curve" smooth="yes"/>
      <point x="508" y="660" type="line"/>
      <point x="478" y="660" type="line"/>
      <point x="478" y="254" type="line" smooth="yes"/>
      <point x="478" y="72"/>
      <point x="394" y="18"/>
      <point x="300" y="18" type="curve" smooth="yes"/>
      <point x="208" y="18"/>
      <point x="124" y="72"/>
      <point x="124" y="254" type="curve" smooth="yes"/>
      <point x="124" y="660" type="line"/>
      <point x="92" y="660" type="line"/>
    </contour>
    <contour>
      <point x="300" y="700" type="curve" smooth="yes"/>
      <point x="342" y="700"/>
      <point x="378" y="732"/>
      <point x="378" y="780" type="curve" smooth="yes"/>
      <point x="378" y="828"/>
      <point x="342" y="860"/>
      <point x="300" y="860" type="curve" smooth="yes"/>
      <point x="256" y="860"/>
      <point x="222" y="828"/>
      <point x="222" y="780" type="curve" smooth="yes"/>
      <point x="222" y="732"/>
      <point x="256" y="700"/>
    </contour>
    <contour>
      <point x="300" y="722" type="curve" smooth="yes"/>
      <point x="270" y="722"/>
      <point x="246" y="742"/>
      <point x="246" y="780" type="curve" smooth="yes"/>
      <point x="246" y="816"/>
      <point x="270" y="838"/>
      <point x="300" y="838" type="curve" smooth="yes"/>
      <point x="328" y="838"/>
      <point x="352" y="816"/>
      <point x="352" y="780" type="curve" smooth="yes"/>
      <point x="352" y="742"/>
      <point x="328" y="722"/>
    </contour>
  </outline>
</glyph>
<glyph name="uogonek" format="1">
  <advance width="600"/>
  <unicode hex="0173"/>
  <outline>
    <contour>
      <point x="490" y="478" type="line"/>
      <point x="460" y="478" type="line"/>
      <point x="460" y="132" type="line"/>
      <point x="390" y="53"/>
      <point x="336" y="16"/>
      <point x="264" y="16" type="curve" smooth="yes"/>
      <point x="163" y="16"/>
      <point x="120" y="71"/>
      <point x="120" y="184" type="curve" smooth="yes"/>
      <point x="120" y="478" type="line"/>
      <point x="90" y="478" type="line"/>
      <point x="90" y="180" type="line" smooth="yes"/>
      <point x="90" y="49"/>
      <point x="147" y="-12"/>
      <point x="264" y="-12" type="curve" smooth="yes"/>
      <point x="342" y="-12"/>
      <point x="403" y="34"/>
      <point x="456" y="96" type="curve"/>
      <point x="460" y="96" type="line"/>
      <point x="464" y="8" type="line"/>
      <point x="408" y="-32"/>
      <point x="374" y="-72"/>
      <point x="374" y="-122" type="curve" smooth="yes"/>
      <point x="374" y="-176"/>
      <point x="408" y="-202"/>
      <point x="452" y="-202" type="curve" smooth="yes"/>
      <point x="472" y="-202"/>
      <point x="498" y="-192"/>
      <point x="512" y="-180" type="curve"/>
      <point x="498" y="-160" type="line"/>
      <point x="484" y="-170"/>
      <point x="472" y="-174"/>
      <point x="454" y="-174" type="curve" smooth="yes"/>
      <point x="428" y="-174"/>
      <point x="404" y="-156"/>
      <point x="404" y="-120" type="curve" smooth="yes"/>
      <point x="404" y="-76"/>
      <point x="436" y="-36"/>
      <point x="490" y="0" type="curve"/>
    </contour>
  </outline>
</glyph>
<glyph name="wcircumflex" format="1">
  <advance width="600"/>
  <unicode hex="0175"/>
  <outline>
    <contour>
      <point x="142" y="0" type="line"/>
      <point x="184" y="0" type="line"/>
      <point x="264" y="310" type="line" smooth="yes"/>
      <point x="278" y="356"/>
      <point x="287" y="402"/>
      <point x="298" y="448" type="curve"/>
      <point x="302" y="448" type="line"/>
      <point x="315" y="402"/>
      <point x="324" y="358"/>
      <point x="336" y="312" type="curve" smooth="yes"/>
      <point x="418" y="0" type="line"/>
      <point x="460" y="0" type="line"/>
      <point x="588" y="478" type="line"/>
      <point x="556" y="478" type="line"/>
      <point x="474" y="156" type="line" smooth="yes"/>
      <point x="464" y="112"/>
      <point x="453" y="72"/>
      <point x="442" y="30" type="curve"/>
      <point x="438" y="30" type="line"/>
      <point x="427" y="72"/>
      <point x="416" y="112"/>
      <point x="405" y="156" type="curve" smooth="yes"/>
      <point x="322" y="478" type="line"/>
      <point x="280" y="478" type="line"/>
      <point x="197" y="156" type="line" smooth="yes"/>
      <point x="186" y="112"/>
      <point x="175" y="72"/>
      <point x="164" y="30" type="curve"/>
      <point x="160" y="30" type="line"/>
      <point x="151" y="72"/>
      <point x="140" y="112"/>
      <point x="129" y="156" type="curve" smooth="yes"/>
      <point x="46" y="478" type="line"/>
      <point x="12" y="478" type="line"/>
    </contour>
    <contour>
      <point x="192" y="572" type="line"/>
      <point x="220" y="572" type="line"/>
      <point x="298" y="674" type="line"/>
      <point x="302" y="674" type="line"/>
      <point x="380" y="572" type="line"/>
      <point x="408" y="572" type="line"/>
      <point x="314" y="706" type="line"/>
      <point x="286" y="706" type="line"/>
    </contour>
  </outline>
</glyph>
<glyph name="Ycircumflex" format="1">
  <advance width="600"/>
  <unicode hex="0176"/>
  <outline>
    <contour>
      <point x="284" y="0" type="line"/>
      <point x="316" y="0" type="line"/>
      <point x="316" y="245" type="line"/>
      <point x="544" y="660" type="line"/>
      <point x="514" y="660" type="line"/>
      <point x="394" y="435" type="line" smooth="yes"/>
      <point x="365" y="383"/>
      <point x="336" y="331"/>
      <point x="304" y="278" type="curve"/>
      <point x="300" y="278" type="line"/>
      <point x="269" y="331"/>
      <point x="243" y="383"/>
      <point x="212" y="434" type="curve" smooth="yes"/>
      <point x="88" y="660" type="line"/>
      <point x="56" y="660" type="line"/>
      <point x="284" y="245" type="line"/>
    </contour>
    <contour>
      <point x="220" y="710" type="line"/>
      <point x="298" y="784" type="line"/>
      <point x="302" y="784" type="line"/>
      <point x="380" y="710" type="line"/>
      <point x="410" y="710" type="line"/>
      <point x="314" y="814" type="line"/>
      <point x="286" y="814" type="line"/>
      <point x="190" y="710" type="line"/>
    </contour>
  </outline>
</glyph>
<glyph name="Zdotaccent" format="1">
  <advance width="600"/>
  <unicode hex="017B"/>
  <outline>
    <contour>
      <point x="72" y="0" type="line"/>
      <point x="533" y="0" type="line"/>
      <point x="533" y="28" type="line"/>
      <point x="109" y="28" type="line"/>
      <point x="526" y="642" type="line"/>
      <point x="526" y="661" type="line"/>
      <point x="107" y="661" type="line"/>
      <point x="107" y="634" type="line"/>
      <point x="488" y="634" type="line"/>
      <point x="72" y="19" type="line"/>
    </contour>
    <contour>
      <point x="316" y="724" type="curve" smooth="yes"/>
      <point x="334" y="724"/>
      <point x="350" y="738"/>
      <point x="350" y="760" type="curve" smooth="yes"/>
      <point x="350" y="780"/>
      <point x="334" y="794"/>
      <point x="316" y="794" type="curve" smooth="yes"/>
      <point x="298" y="794"/>
      <point x="282" y="780"/>
      <point x="282" y="760" type="curve" smooth="yes"/>
      <point x="282" y="738"/>
      <point x="298" y="724"/>
    </contour>
  </outline>
</glyph>
<glyph name="zdotaccent" format="1">
  <advance width="600"/>
  <unicode hex="017C"/>
  <outline>
    <contour>
      <point x="72" y="0" type="line"/>
      <point x="524" y="0" type="line"/>
      <point x="524" y="28" type="line"/>
      <point x="120" y="28" type="line"/>
      <point x="512" y="462" type="line"/>
      <point x="512" y="478" type="line"/>
      <point x="114" y="478" type="line"/>
      <point x="114" y="450" type="line"/>
      <point x="464" y="450" type="line"/>
      <point x="72" y="16" type="line"/>
    </contour>
    <contour>
      <point x="318" y="600" type="curve" smooth="yes"/>
      <point x="340" y="600"/>
      <point x="358" y="616"/>
      <point x="358" y="642" type="curve" smooth="yes"/>
      <point x="358" y="668"/>
      <point x="340" y="684"/>
      <point x="318" y="684" type="curve" smooth="yes"/>
      <point x="296" y="684"/>
      <point x="278" y="668"/>
      <point x="278" y="642" type="curve" smooth="yes"/>
      <point x="278" y="616"/>
      <point x="296" y="600"/>
    </contour>
  </outline>
</glyph>
<glyph name="uhorn" format="1">
  <advance width="600"/>
  <unicode hex="01B0"/>
  <outline>
    <contour>
      <point x="534" y="586" type="line"/>
      <point x="544" y="572"/>
      <point x="548" y="560"/>
      <point x="548" y="548" type="curve" smooth="yes"/>
      <point x="548" y="508"/>
      <point x="516" y="486"/>
      <point x="462" y="478" type="curve"/>
      <point x="460" y="478" type="line"/>
      <point x="460" y="132" type="line"/>
      <point x="390" y="53"/>
      <point x="336" y="16"/>
      <point x="264" y="16" type="curve" smooth="yes"/>
      <point x="163" y="16"/>
      <point x="120" y="71"/>
      <point x="120" y="184" type="curve" smooth="yes"/>
      <point x="120" y="478" type="line"/>
      <point x="90" y="478" type="line"/>
      <point x="90" y="180" type="line" smooth="yes"/>
      <point x="90" y="49"/>
      <point x="147" y="-12"/>
      <point x="264" y="-12" type="curve" smooth="yes"/>
      <point x="342" y="-12"/>
      <point x="403" y="34"/>
      <point x="456" y="96" type="curve"/>
      <point x="460" y="96" type="line"/>
      <point x="464" y="0" type="line"/>
      <point x="490" y="0" type="line"/>
      <point x="490" y="458" type="line"/>
      <point x="528" y="468"/>
      <point x="578" y="490"/>
      <point x="578" y="550" type="curve" smooth="yes"/>
      <point x="578" y="568"/>
      <point x="572" y="584"/>
      <point x="560" y="602" type="curve"/>
    </contour>
  </outline>
</glyph>
<glyph name="scommaaccent" format="1">
  <advance width="600"/>
  <unicode hex="0219"/>
  <outline>
    <contour>
      <point x="87" y="64" type="line"/>
      <point x="143" y="23"/>
      <point x="222" y="-12"/>
      <point x="322" y="-12" type="curve" smooth="yes"/>
      <point x="444" y="-12"/>
      <point x="514" y="50"/>
      <point x="514" y="120" type="curve" smooth="yes"/>
      <point x="514" y="186"/>
      <point x="470" y="224"/>
      <point x="312" y="263" type="curve" smooth="yes"/>
      <point x="210" y="288"/>
      <point x="146" y="320"/>
      <point x="146" y="368" type="curve" smooth="yes"/>
      <point x="146" y="416"/>
      <point x="181" y="462"/>
      <point x="294" y="462" type="curve" smooth="yes"/>
      <point x="361" y="462"/>
      <point x="416" y="440"/>
      <point x="458" y="408" type="curve"/>
      <point x="476" y="432" type="line"/>
      <point x="431" y="466"/>
      <point x="357" y="490"/>
      <point x="296" y="490" type="curve" smooth="yes"/>
      <point x="169" y="490"/>
      <point x="114" y="432"/>
      <point x="114" y="366" type="curve" smooth="yes"/>
      <point x="114" y="304"/>
      <point x="193" y="260"/>
      <point x="304" y="234" type="curve" smooth="yes"/>
      <point x="454" y="199"/>
      <point x="482" y="164"/>
      <point x="482" y="118" type="curve" smooth="yes"/>
      <point x="482" y="64"/>
      <point x="428" y="16"/>
      <point x="324" y="16" type="curve" smooth="yes"/>
      <point x="220" y="16"/>
      <point x="158" y="44"/>
      <point x="106" y="88" type="curve"/>
    </contour>
    <contour>
      <point x="288" y="-52" type="curve"/>
      <point x="278" y="-78" type="line"/>
      <point x="306" y="-84"/>
      <point x="336" y="-96"/>
      <point x="336" y="-128" type="curve" smooth="yes"/>
      <point x="336" y="-156"/>
      <point x="298" y="-172"/>
      <point x="242" y="-180" type="curve"/>
      <point x="248" y="-206" type="line"/>
      <point x="308" y="-198"/>
      <point x="366" y="-174"/>
      <point x="366" y="-124" type="curve" smooth="yes"/>
      <point x="366" y="-84"/>
      <point x="338" y="-64"/>
    </contour>
  </outline>
</glyph>
<glyph name="oopen" format="1">
  <advance width="600"/>
  <unicode hex="0254"/>
  <outline>
    <contour>
      <point x="510" y="240" type="curve" smooth="yes"/>
      <point x="510" y="80"/>
      <point x="394" y="-12"/>
      <point x="252" y="-12" type="curve" smooth="yes"/>
      <point x="171" y="-12"/>
      <point x="120" y="24"/>
      <point x="81" y="62" type="curve"/>
      <point x="101" y="84" type="line"/>
      <point x="142" y="44"/>
      <point x="190" y="16"/>
      <point x="252" y="16" type="curve" smooth="yes"/>
      <point x="386" y="16"/>
      <point x="478" y="108"/>
      <point x="478" y="240" type="curve" smooth="yes"/>
      <point x="478" y="372"/>
      <point x="388" y="462"/>
      <point x="252" y="462" type="curve" smooth="yes"/>
      <point x="185" y="462"/>
      <point x="130" y="432"/>
      <point x="86" y="390" type="curve"/>
      <point x="68" y="412" type="line"/>
      <point x="116" y="458"/>
      <point x="176" y="490"/>
      <point x="252" y="490" type="curve" smooth="yes"/>
      <point x="400" y="490"/>
      <point x="510" y="398"/>
    </contour>
  </outline>
</glyph>
<glyph name="ereversed" format="1">
  <advance width="517"/>
  <unicode hex="0258"/>
  <outline>
    <contour>
      <point x="71" y="280" type="curve"/>
      <point x="451" y="280" type="line"/>
      <point x="446" y="433"/>
      <point x="379" y="510"/>
      <point x="251" y="510" type="curve" smooth="yes"/>
      <point x="134" y="510"/>
      <point x="74" y="433"/>
    </contour>
    <contour>
      <point x="451" y="260" type="curve"/>
      <point x="51" y="260" type="line"/>
      <point x="51" y="270" type="line" smooth="yes"/>
      <point x="51" y="443"/>
      <point x="118" y="530"/>
      <point x="251" y="530" type="curve" smooth="yes"/>
      <point x="351" y="530"/>
      <point x="471" y="483"/>
      <point x="471" y="260" type="curve" smooth="yes"/>
      <point x="471" y="80"/>
      <point x="393" y="-10"/>
      <point x="236" y="-10" type="curve" smooth="yes"/>
      <point x="183" y="-10"/>
      <point x="131" y="0"/>
      <point x="81" y="20" type="curve"/>
      <point x="81" y="42" type="line"/>
      <point x="130" y="21"/>
      <point x="181" y="10"/>
      <point x="236" y="10" type="curve" smooth="yes"/>
      <point x="379" y="10"/>
      <point x="451" y="93"/>
    </contour>
  </outline>
</glyph>
<glyph name="hturned" format="1">
  <advance width="542"/>
  <unicode hex="0265"/>
  <outline>
    <contour>
      <point x="436" y="108" type="line"/>
      <point x="434" y="108" type="line"/>
      <point x="415" y="76"/>
      <point x="387" y="48"/>
      <point x="352" y="25" type="curve" smooth="yes"/>
      <point x="317" y="2"/>
      <point x="282" y="-10"/>
      <point x="246" y="-10" type="curve" smooth="yes"/>
      <point x="126" y="-10"/>
      <point x="76" y="50"/>
      <point x="76" y="210" type="curve" smooth="yes"/>
      <point x="76" y="520" type="line"/>
      <point x="96" y="520" type="line"/>
      <point x="96" y="210" type="line" smooth="yes"/>
      <point x="96" y="131"/>
      <point x="108" y="78"/>
      <point x="132" y="51" type="curve" smooth="yes"/>
      <point x="156" y="24"/>
      <point x="194" y="10"/>
      <point x="246" y="10" type="curve" smooth="yes"/>
      <point x="289" y="10"/>
      <point x="331" y="28"/>
      <point x="373" y="65" type="curve" smooth="yes"/>
      <point x="415" y="102"/>
      <point x="436" y="137"/>
      <point x="436" y="170" type="curve" smooth="yes"/>
      <point x="436" y="520" type="line"/>
      <point x="456" y="520" type="line"/>
      <point x="456" y="-230" type="line"/>
      <point x="436" y="-230" type="line"/>
    </contour>
  </outline>
</glyph>
<glyph name="mturned" format="1">
  <advance width="777"/>
  <unicode hex="026F"/>
  <outline>
    <contour>
      <point x="676" y="92" type="line"/>
      <point x="674" y="92" type="line"/>
      <point x="643" y="32"/>
      <point x="585" y="-10"/>
      <point x="526" y="-10" type="curve" smooth="yes"/>
      <point x="447" y="-10"/>
      <point x="400" y="29"/>
      <point x="384" y="108" type="curve"/>
      <point x="382" y="108" type="line"/>
      <point x="354" y="41"/>
      <point x="290" y="-10"/>
      <point x="226" y="-10" type="curve" smooth="yes"/>
      <point x="125" y="-10"/>
      <point x="76" y="54"/>
      <point x="76" y="190" type="curve" smooth="yes"/>
      <point x="76" y="520" type="line"/>
      <point x="96" y="520" type="line"/>
      <point x="96" y="190" type="line" smooth="yes"/>
      <point x="96" y="65"/>
      <point x="135" y="10"/>
      <point x="226" y="10" type="curve" smooth="yes"/>
      <point x="263" y="10"/>
      <point x="298" y="27"/>
      <point x="329" y="60" type="curve" smooth="yes"/>
      <point x="360" y="93"/>
      <point x="376" y="130"/>
      <point x="376" y="170" type="curve" smooth="yes"/>
      <point x="376" y="520" type="line"/>
      <point x="396" y="520" type="line"/>
      <point x="396" y="190" type="line" smooth="yes"/>
      <point x="396" y="62"/>
      <point x="437" y="10"/>
      <point x="526" y="10" type="curve" smooth="yes"/>
      <point x="563" y="10"/>
      <point x="598" y="27"/>
      <point x="629" y="60" type="curve" smooth="yes"/>
      <point x="660" y="93"/>
      <point x="676" y="130"/>
      <point x="676" y="170" type="curve" smooth="yes"/>
      <point x="676" y="520" type="line"/>
      <point x="696" y="520" type="line"/>
      <point x="696" y="0" type="line"/>
      <point x="676" y="0" type="line"/>
    </contour>
  </outline>
</glyph>
<glyph name="rturned" format="1">
  <advance width="422"/>
  <unicode hex="0279"/>
  <outline>
    <contour>
      <point x="321" y="147" type="line"/>
      <point x="319" y="147" type="line"/>
      <point x="280" y="56"/>
      <point x="193" y="0"/>
      <point x="81" y="0" type="curve" smooth="yes"/>
      <point x="61" y="0" type="line"/>
      <point x="61" y="20" type="line"/>
      <point x="81" y="20" type="line" smooth="yes"/>
      <point x="152" y="20"/>
      <point x="209" y="41"/>
      <point x="254" y="84" type="curve" smooth="yes"/>
      <point x="299" y="127"/>
      <point x="321" y="183"/>
      <point x="321" y="250" type="curve" smooth="yes"/>
      <point x="321" y="520" type="line"/>
      <point x="341" y="520" type="line"/>
      <point x="341" y="0" type="line"/>
      <point x="321" y="0" type="line"/>
    </contour>
  </outline>
</glyph>
<glyph name="vturned" format="1">
  <advance width="532"/>
  <unicode hex="028C"/>
  <outline>
    <contour>
      <point x="267" y="504" type="line"/>
      <point x="265" y="504" type="line"/>
      <point x="63" y="0" type="line"/>
      <point x="41" y="0" type="line"/>
      <point x="251" y="520" type="line"/>
      <point x="281" y="520" type="line"/>
      <point x="491" y="0" type="line"/>
      <point x="469" y="0" type="line"/>
    </contour>
  </outline>
</glyph>
<glyph name="yturned" format="1">
  <advance width="557"/>
  <unicode hex="028E"/>
  <outline>
    <contour>
      <point x="267" y="494" type="line"/>
      <point x="265" y="494" type="line"/>
      <point x="63" y="0" type="line"/>
      <point x="41" y="0" type="line"/>
      <point x="255" y="519" type="line" smooth="yes"/>
      <point x="290" y="606"/>
      <point x="327" y="666"/>
      <point x="366" y="699" type="curve" smooth="yes"/>
      <point x="405" y="733"/>
      <point x="454" y="750"/>
      <point x="511" y="750" type="curve"/>
      <point x="511" y="730" type="line"/>
      <point x="458" y="730"/>
      <point x="414" y="715"/>
      <point x="379" y="684" type="curve" smooth="yes"/>
      <point x="344" y="653"/>
      <point x="310" y="599"/>
      <point x="277" y="520" type="curve"/>
      <point x="501" y="0" type="line"/>
      <point x="479" y="0" type="line"/>
    </contour>
  </outline>
</glyph>
<glyph name="caron" format="1">
  <advance width="600"/>
  <unicode hex="02C7"/>
  <outline>
    <contour>
      <point x="286" y="572" type="line"/>
      <point x="314" y="572" type="line"/>
      <point x="408" y="706" type="line"/>
      <point x="380" y="706" type="line"/>
      <point x="302" y="604" type="line"/>
      <point x="298" y="604" type="line"/>
      <point x="220" y="706" type="line"/>
      <point x="192" y="706" type="line"/>
    </contour>
  </outline>
</glyph>
<glyph name="hungarumlaut" format="1">
  <advance width="600"/>
  <unicode hex="02DD"/>
  <outline>
    <contour>
      <point x="224" y="570" type="line"/>
      <point x="250" y="570" type="line"/>
      <point x="332" y="706" type="line"/>
      <point x="296" y="706" type="line"/>
    </contour>
    <contour>
      <point x="352" y="570" type="line"/>
      <point x="378" y="570" type="line"/>
      <point x="460" y="706" type="line"/>
      <point x="424" y="706" type="line"/>
    </contour>
  </outline>
</glyph>
<glyph name="pi" format="1">
  <advance width="600"/>
  <unicode hex="03C0"/>
  <outline>
    <contour>
      <point x="152" y="0" type="line"/>
      <point x="182" y="0" type="line"/>
      <point x="182" y="448" type="line"/>
      <point x="418" y="448" type="line"/>
      <point x="418" y="76" type="line" smooth="yes"/>
      <point x="418" y="20"/>
      <point x="436" y="-12"/>
      <point x="482" y="-12" type="curve" smooth="yes"/>
      <point x="494" y="-12"/>
      <point x="504" y="-10"/>
      <point x="520" y="-4" type="curve"/>
      <point x="514" y="22" type="line"/>
      <point x="502" y="18"/>
      <point x="494" y="16"/>
      <point x="486" y="16" type="curve" smooth="yes"/>
      <point x="458" y="16"/>
      <point x="448" y="40"/>
      <point x="448" y="70" type="curve" smooth="yes"/>
      <point x="448" y="448" type="line"/>
      <point x="528" y="448" type="line"/>
      <point x="528" y="478" type="line"/>
      <point x="132" y="478" type="line"/>
      <point x="66" y="474" type="line"/>
      <point x="66" y="448" type="line"/>
      <point x="152" y="448" type="line"/>
    </contour>
  </outline>
</glyph>
<glyph name="wdieresis" format="1">
  <advance width="600"/>
  <unicode hex="1E85"/>
  <outline>
    <contour>
      <point x="142" y="0" type="line"/>
      <point x="184" y="0" type="line"/>
      <point x="264" y="310" type="line" smooth="yes"/>
      <point x="278" y="356"/>
      <point x="287" y="402"/>
      <point x="298" y="448" type="curve"/>
      <point x="302" y="448" type="line"/>
      <point x="315" y="402"/>
      <point x="324" y="358"/>
      <point x="336" y="312" type="curve" smooth="yes"/>
      <point x="418" y="0" type="line"/>
      <point x="460" y="0" type="line"/>
      <point x="588" y="478" type="line"/>
      <point x="556" y="478" type="line"/>
      <point x="474" y="156" type="line" smooth="yes"/>
      <point x="464" y="112"/>
      <point x="453" y="72"/>
      <point x="442" y="30" type="curve"/>
      <point x="438" y="30" type="line"/>
      <point x="427" y="72"/>
      <point x="416" y="112"/>
      <point x="405" y="156" type="curve" smooth="yes"/>
      <point x="322" y="478" type="line"/>
      <point x="280" y="478" type="line"/>
      <point x="197" y="156" type="line" smooth="yes"/>
      <point x="186" y="112"/>
      <point x="175" y="72"/>
      <point x="164" y="30" type="curve"/>
      <point x="160" y="30" type="line"/>
      <point x="151" y="72"/>
      <point x="140" y="112"/>
      <point x="129" y="156" type="curve" smooth="yes"/>
      <point x="46" y="478" type="line"/>
      <point x="12" y="478" type="line"/>
    </contour>
    <contour>
      <point x="214" y="602" type="curve" smooth="yes"/>
      <point x="234" y="602"/>
      <point x="248" y="618"/>
      <point x="248" y="638" type="curve" smooth="yes"/>
      <point x="248" y="658"/>
      <point x="234" y="674"/>
      <point x="214" y="674" type="curve" smooth="yes"/>
      <point x="194" y="674"/>
      <point x="180" y="658"/>
      <point x="180" y="638" type="curve" smooth="yes"/>
      <point x="180" y="618"/>
      <point x="194" y="602"/>
    </contour>
    <contour>
      <point x="386" y="602" type="curve" smooth="yes"/>
      <point x="406" y="602"/>
      <point x="420" y="618"/>
      <point x="420" y="638" type="curve" smooth="yes"/>
      <point x="420" y="658"/>
      <point x="406" y="674"/>
      <point x="386" y="674" type="curve" smooth="yes"/>
      <point x="366" y="674"/>
      <point x="352" y="658"/>
      <point x="352" y="638" type="curve" smooth="yes"/>
      <point x="352" y="618"/>
      <point x="366" y="602"/>
    </contour>
  </outline>
</glyph>
<glyph name="Ygrave" format="1">
  <advance width="600"/>
  <unicode hex="1EF2"/>
  <outline>
    <contour>
      <point x="284" y="0" type="line"/>
      <point x="316" y="0" type="line"/>
      <point x="316" y="245" type="line"/>
      <point x="544" y="660" type="line"/>
      <point x="514" y="660" type="line"/>
      <point x="394" y="435" type="line" smooth="yes"/>
      <point x="365" y="383"/>
      <point x="336" y="331"/>
      <point x="304" y="278" type="curve"/>
      <point x="300" y="278" type="line"/>
      <point x="269" y="331"/>
      <point x="243" y="383"/>
      <point x="212" y="434" type="curve" smooth="yes"/>
      <point x="88" y="660" type="line"/>
      <point x="56" y="660" type="line"/>
      <point x="284" y="245" type="line"/>
    </contour>
    <contour>
      <point x="302" y="710" type="line"/>
      <point x="332" y="710" type="line"/>
      <point x="238" y="814" type="line"/>
      <point x="194" y="814" type="line"/>
    </contour>
  </outline>
</glyph>
<glyph name="emdash" format="1">
  <advance width="600"/>
  <unicode hex="2014"/>
  <outline>
    <contour>
      <point x="20" y="272" type="line"/>
      <point x="580" y="272" type="line"/>
      <point x="580" y="312" type="line"/>
      <point x="20" y="312" type="line"/>
    </contour>
  </outline>
</glyph>
<glyph name="quoteright" format="1">
  <advance width="600"/>
  <unicode hex="2019"/>
  <outline>
    <contour>
      <point x="248" y="398" type="line"/>
      <point x="316" y="438"/>
      <point x="366" y="518"/>
      <point x="366" y="611" type="curve" smooth="yes"/>
      <point x="366" y="667"/>
      <point x="333" y="700"/>
      <point x="298" y="700" type="curve" smooth="yes"/>
      <point x="265" y="700"/>
      <point x="242" y="675"/>
      <point x="242" y="642" type="curve" smooth="yes"/>
      <point x="242" y="610"/>
      <point x="264" y="586"/>
      <point x="296" y="586" type="curve" smooth="yes"/>
      <point x="307" y="586"/>
      <point x="318" y="591"/>
      <point x="328" y="598" type="curve"/>
      <point x="324" y="523"/>
      <point x="287" y="462"/>
      <point x="230" y="422" type="curve"/>
    </contour>
  </outline>
</glyph>
<glyph name="quotedblleft" format="1">
  <advance width="600"/>
  <unicode hex="201C"/>
  <outline>
    <contour>
      <point x="248" y="700" type="line"/>
      <point x="180" y="660"/>
      <point x="130" y="580"/>
      <point x="130" y="487" type="curve" smooth="yes"/>
      <point x="130" y="431"/>
      <point x="163" y="398"/>
      <point x="198" y="398" type="curve" smooth="yes"/>
      <point x="231" y="398"/>
      <point x="254" y="423"/>
      <point x="254" y="456" type="curve" smooth="yes"/>
      <point x="254" y="488"/>
      <point x="232" y="512"/>
      <point x="200" y="512" type="curve" smooth="yes"/>
      <point x="189" y="512"/>
      <point x="178" y="507"/>
      <point x="168" y="500" type="curve"/>
      <point x="172" y="575"/>
      <point x="209" y="636"/>
      <point x="266" y="676" type="curve"/>
    </contour>
    <contour>
      <point x="448" y="700" type="line"/>
      <point x="380" y="660"/>
      <point x="330" y="580"/>
      <point x="330" y="487" type="curve" smooth="yes"/>
      <point x="330" y="431"/>
      <point x="363" y="398"/>
      <point x="398" y="398" type="curve" smooth="yes"/>
      <point x="431" y="398"/>
      <point x="454" y="423"/>
      <point x="454" y="456" type="curve" smooth="yes"/>
      <point x="454" y="488"/>
      <point x="432" y="512"/>
      <point x="400" y="512" type="curve" smooth="yes"/>
      <point x="389" y="512"/>
      <point x="378" y="507"/>
      <point x="368" y="500" type="curve"/>
      <point x="372" y="575"/>
      <point x="409" y="636"/>
      <point x="466" y="676" type="curve"/>
    </contour>
  </outline>
</glyph>
<glyph name="quotedblright" format="1">
  <advance width="600"/>
  <unicode hex="201D"/>
  <outline>
    <contour>
      <point x="148" y="398" type="line"/>
      <point x="216" y="438"/>
      <point x="266" y="518"/>
      <point x="266" y="611" type="curve" smooth="yes"/>
      <point x="266" y="667"/>
      <point x="233" y="700"/>
      <point x="198" y="700" type="curve" smooth="yes"/>
      <point x="165" y="700"/>
      <point x="142" y="675"/>
      <point x="142" y="642" type="curve" smooth="yes"/>
      <point x="142" y="610"/>
      <point x="164" y="586"/>
      <point x="196" y="586" type="curve" smooth="yes"/>
      <point x="207" y="586"/>
      <point x="218" y="591"/>
      <point x="228" y="598" type="curve"/>
      <point x="224" y="523"/>
      <point x="187" y="462"/>
      <point x="130" y="422" type="curve"/>
    </contour>
    <contour>
      <point x="348" y="398" type="line"/>
      <point x="416" y="438"/>
      <point x="466" y="518"/>
      <point x="466" y="611" type="curve" smooth="yes"/>
      <point x="466" y="667"/>
      <point x="433" y="700"/>
      <point x="398" y="700" type="curve" smooth="yes"/>
      <point x="365" y="700"/>
      <point x="342" y="675"/>
      <point x="342" y="642" type="curve" smooth="yes"/>
      <point x="342" y="610"/>
      <point x="364" y="586"/>
      <point x="396" y="586" type="curve" smooth="yes"/>
      <point x="407" y="586"/>
      <point x="418" y="591"/>
      <point x="428" y="598" type="curve"/>
      <point x="424" y="523"/>
      <point x="387" y="462"/>
      <point x="330" y="422" type="curve"/>
    </contour>
  </outline>
</glyph>
<glyph name="guilsinglleft" format="1">
  <advance width="600"/>
  <unicode hex="2039"/>
  <outline>
    <contour>
      <point x="353" y="74" type="line"/>
      <point x="373" y="90" type="line"/>
      <point x="247" y="252" type="line"/>
      <point x="373" y="412" type="line"/>
      <point x="353" y="430" type="line"/>
      <point x="215" y="266" type="line"/>
      <point x="215" y="238" type="line"/>
    </contour>
  </outline>
</glyph>
<glyph name="colonmonetary" format="1">
  <advance width="600"/>
  <unicode hex="20A1"/>
  <outline>
    <contour>
      <point x="341" y="623" type="line"/>
      <point x="348" y="624"/>
      <point x="356" y="624"/>
      <point x="364" y="624" type="curve" smooth="yes"/>
      <point x="381" y="624"/>
      <point x="397" y="621"/>
      <point x="412" y="617" type="curve"/>
      <point x="341" y="16" type="line"/>
      <point x="315" y="17"/>
      <point x="292" y="23"/>
      <point x="271" y="34" type="curve"/>
    </contour>
    <contour>
      <point x="245" y="50" type="line"/>
      <point x="180" y="98"/>
      <point x="144" y="195"/>
      <point x="144" y="322" type="curve" smooth="yes"/>
      <point x="144" y="482"/>
      <point x="205" y="592"/>
      <point x="312" y="618" type="curve"/>
    </contour>
    <contour>
      <point x="510" y="100" type="line"/>
      <point x="468" y="50"/>
      <point x="425" y="22"/>
      <point x="369" y="17" type="curve"/>
      <point x="439" y="605" type="line"/>
      <point x="462" y="593"/>
      <point x="482" y="575"/>
      <point x="500" y="554" type="curve"/>
      <point x="522" y="574" type="line"/>
      <point x="503" y="597"/>
      <point x="476" y="620"/>
      <point x="442" y="635" type="curve"/>
      <point x="456" y="750" type="line"/>
      <point x="428" y="750" type="line"/>
      <point x="416" y="645" type="line"/>
      <point x="399" y="649"/>
      <point x="382" y="652"/>
      <point x="364" y="652" type="curve" smooth="yes"/>
      <point x="357" y="652"/>
      <point x="351" y="652"/>
      <point x="344" y="651" type="curve"/>
      <point x="356" y="750" type="line"/>
      <point x="328" y="750" type="line"/>
      <point x="316" y="648" type="line"/>
      <point x="188" y="624"/>
      <point x="110" y="502"/>
      <point x="110" y="322" type="curve" smooth="yes"/>
      <point x="110" y="176"/>
      <point x="159" y="66"/>
      <point x="241" y="17" type="curve"/>
      <point x="226" y="-110" type="line"/>
      <point x="254" y="-110" type="line"/>
      <point x="267" y="4" type="line"/>
      <point x="289" y="-5"/>
      <point x="313" y="-11"/>
      <point x="338" y="-12" type="curve"/>
      <point x="326" y="-110" type="line"/>
      <point x="354" y="-110" type="line"/>
      <point x="366" y="-11" type="line"/>
      <point x="440" y="-7"/>
      <point x="488" y="28"/>
      <point x="532" y="82" type="curve"/>
    </contour>
  </outline>
</glyph>
<glyph name="Euro" format="1">
  <advance width="600"/>
  <unicode hex="20AC"/>
  <outline>
    <contour>
      <point x="530" y="100" type="line"/>
      <point x="483" y="44"/>
      <point x="436" y="16"/>
      <point x="370" y="16" type="curve" smooth="yes"/>
      <point x="258" y="16"/>
      <point x="186" y="107"/>
      <point x="168" y="250" type="curve"/>
      <point x="454" y="250" type="line"/>
      <point x="454" y="278" type="line"/>
      <point x="166" y="278" type="line"/>
      <point x="165" y="292"/>
      <point x="164" y="307"/>
      <point x="164" y="322" type="curve" smooth="yes"/>
      <point x="164" y="334"/>
      <point x="164" y="346"/>
      <point x="165" y="358" type="curve"/>
      <point x="494" y="358" type="line"/>
      <point x="494" y="386" type="line"/>
      <point x="168" y="386" type="line"/>
      <point x="184" y="533"/>
      <point x="261" y="624"/>
      <point x="384" y="624" type="curve" smooth="yes"/>
      <point x="440" y="624"/>
      <point x="484" y="596"/>
      <point x="520" y="554" type="curve"/>
      <point x="542" y="574" type="line"/>
      <point x="510" y="614"/>
      <point x="452" y="652"/>
      <point x="384" y="652" type="curve" smooth="yes"/>
      <point x="245" y="652"/>
      <point x="152" y="551"/>
      <point x="134" y="386" type="curve"/>
      <point x="68" y="382" type="line"/>
      <point x="68" y="358" type="line"/>
      <point x="131" y="358" type="line"/>
      <point x="130" y="346"/>
      <point x="130" y="334"/>
      <point x="130" y="322" type="curve" smooth="yes"/>
      <point x="130" y="307"/>
      <point x="131" y="292"/>
      <point x="132" y="278" type="curve"/>
      <point x="68" y="274" type="line"/>
      <point x="68" y="250" type="line"/>
      <point x="134" y="250" type="line"/>
      <point x="154" y="89"/>
      <point x="242" y="-12"/>
      <point x="368" y="-12" type="curve" smooth="yes"/>
      <point x="452" y="-12"/>
      <point x="505" y="24"/>
      <point x="552" y="82" type="curve"/>
    </contour>
  </outline>
</glyph>
<glyph name="fiveeighths" format="1">
  <advance width="600"/>
  <unicode hex="215D"/>
  <outline>
    <contour>
      <point x="38" y="392" type="line"/>
      <point x="64" y="359"/>
      <point x="97" y="328"/>
      <point x="160" y="328" type="curve" smooth="yes"/>
      <point x="226" y="328"/>
      <point x="276" y="366"/>
      <point x="276" y="430" type="curve" smooth="yes"/>
      <point x="276" y="496"/>
      <point x="228" y="532"/>
      <point x="162" y="532" type="curve" smooth="yes"/>
      <point x="138" y="532"/>
      <point x="116" y="526"/>
      <point x="96" y="514" type="curve"/>
      <point x="110" y="612" type="line"/>
      <point x="254" y="612" type="line"/>
      <point x="254" y="640" type="line"/>
      <point x="84" y="640" type="line"/>
      <point x="66" y="490" type="line"/>
      <point x="86" y="476" type="line"/>
      <point x="108" y="494"/>
      <point x="130" y="506"/>
      <point x="160" y="506" type="curve" smooth="yes"/>
      <point x="214" y="506"/>
      <point x="246" y="478"/>
      <point x="246" y="430" type="curve" smooth="yes"/>
      <point x="246" y="384"/>
      <point x="212" y="354"/>
      <point x="162" y="354" type="curve" smooth="yes"/>
      <point x="113" y="354"/>
      <point x="86" y="378"/>
      <point x="62" y="410" type="curve"/>
    </contour>
    <contour>
      <point x="64" y="36" type="line"/>
      <point x="236" y="242" type="line"/>
      <point x="218" y="258" type="line"/>
      <point x="38" y="58" type="line"/>
    </contour>
    <contour>
      <point x="536" y="624" type="line"/>
      <point x="364" y="418" type="line"/>
      <point x="382" y="402" type="line"/>
      <point x="562" y="602" type="line"/>
    </contour>
    <contour>
      <point x="352" y="74" type="curve" smooth="yes"/>
      <point x="352" y="104"/>
      <point x="373" y="131"/>
      <point x="416" y="150" type="curve"/>
      <point x="471" y="133"/>
      <point x="528" y="122"/>
      <point x="528" y="73" type="curve" smooth="yes"/>
      <point x="528" y="38"/>
      <point x="484" y="14"/>
      <point x="440" y="14" type="curve" smooth="yes"/>
      <point x="391" y="14"/>
      <point x="352" y="41"/>
    </contour>
    <contour>
      <point x="466" y="164" type="curve"/>
      <point x="414" y="178"/>
      <point x="366" y="196"/>
      <point x="366" y="233" type="curve" smooth="yes"/>
      <point x="366" y="263"/>
      <point x="394" y="286"/>
      <point x="440" y="286" type="curve" smooth="yes"/>
      <point x="490" y="286"/>
      <point x="516" y="263"/>
      <point x="516" y="233" type="curve" smooth="yes"/>
      <point x="516" y="207"/>
      <point x="502" y="185"/>
    </contour>
    <contour>
      <point x="322" y="74" type="curve" smooth="yes"/>
      <point x="322" y="29"/>
      <point x="368" y="-12"/>
      <point x="440" y="-12" type="curve" smooth="yes"/>
      <point x="505" y="-12"/>
      <point x="558" y="24"/>
      <point x="558" y="74" type="curve" smooth="yes"/>
      <point x="558" y="115"/>
      <point x="528" y="138"/>
      <point x="493" y="152" type="curve"/>
      <point x="493" y="156" type="line"/>
      <point x="515" y="170"/>
      <point x="546" y="193"/>
      <point x="546" y="233" type="curve" smooth="yes"/>
      <point x="546" y="277"/>
      <point x="502" y="312"/>
      <point x="440" y="312" type="curve" smooth="yes"/>
      <point x="384" y="312"/>
      <point x="336" y="278"/>
      <point x="336" y="233" type="curve" smooth="yes"/>
      <point x="336" y="200"/>
      <point x="361" y="179"/>
      <point x="390" y="162" type="curve"/>
      <point x="390" y="158" type="line"/>
      <point x="354" y="141"/>
      <point x="322" y="115"/>
    </contour>
  </outline>
</glyph>
<glyph name="seveneighths" format="1">
  <advance width="600"/>
  <unicode hex="215E"/>
  <outline>
    <contour>
      <point x="128" y="340" type="curve"/>
      <point x="156" y="340" type="line"/>
      <point x="162" y="446"/>
      <point x="182" y="520"/>
      <point x="273" y="620" type="curve"/>
      <point x="273" y="640" type="line"/>
      <point x="47" y="640" type="line"/>
      <point x="47" y="614" type="line"/>
      <point x="236" y="614" type="line"/>
      <point x="164" y="528"/>
      <point x="135" y="454"/>
    </contour>
    <contour>
      <point x="64" y="36" type="line"/>
      <point x="236" y="242" type="line"/>
      <point x="218" y="258" type="line"/>
      <point x="38" y="58" type="line"/>
    </contour>
    <contour>
      <point x="536" y="624" type="line"/>
      <point x="364" y="418" type="line"/>
      <point x="382" y="402" type="line"/>
      <point x="562" y="602" type="line"/>
    </contour>
    <contour>
      <point x="352" y="74" type="curve" smooth="yes"/>
      <point x="352" y="104"/>
      <point x="373" y="131"/>
      <point x="416" y="150" type="curve"/>
      <point x="471" y="133"/>
      <point x="528" y="122"/>
      <point x="528" y="73" type="curve" smooth="yes"/>
      <point x="528" y="38"/>
      <point x="484" y="14"/>
      <point x="440" y="14" type="curve" smooth="yes"/>
      <point x="391" y="14"/>
      <point x="352" y="41"/>
    </contour>
    <contour>
      <point x="466" y="164" type="curve"/>
      <point x="414" y="178"/>
      <point x="366" y="196"/>
      <point x="366" y="233" type="curve" smooth="yes"/>
      <point x="366" y="263"/>
      <point x="394" y="286"/>
      <point x="440" y="286" type="curve" smooth="yes"/>
      <point x="490" y="286"/>
      <point x="516" y="263"/>
      <point x="516" y="233" type="curve" smooth="yes"/>
      <point x="516" y="207"/>
      <point x="502" y="185"/>
    </contour>
    <contour>
      <point x="322" y="74" type="curve" smooth="yes"/>
      <point x="322" y="29"/>
      <point x="368" y="-12"/>
      <point x="440" y="-12" type="curve" smooth="yes"/>
      <point x="505" y="-12"/>
      <point x="558" y="24"/>
      <point x="558" y="74" type="curve" smooth="yes"/>
      <point x="558" y="115"/>
      <point x="528" y="138"/>
      <point x="493" y="152" type="curve"/>
      <point x="493" y="156" type="line"/>
      <point x="515" y="170"/>
      <point x="546" y="193"/>
      <point x="546" y="233" type="curve" smooth="yes"/>
      <point x="546" y="277"/>
      <point x="502" y="312"/>
      <point x="440" y="312" type="curve" smooth="yes"/>
      <point x="384" y="312"/>
      <point x="336" y="278"/>
      <point x="336" y="233" type="curve" smooth="yes"/>
      <point x="336" y="200"/>
      <point x="361" y="179"/>
      <point x="390" y="162" type="curve"/>
      <point x="390" y="158" type="line"/>
      <point x="354" y="141"/>
      <point x="322" y="115"/>
    </contour>
  </outline>
</glyph>
<glyph name="arrowleft" format="1">
  <advance width="600"/>
  <unicode hex="2190"/>
  <outline>
    <contour>
      <point x="20" y="250" type="line"/>
      <point x="288" y="-14" type="line"/>
      <point x="308" y="6" type="line"/>
      <point x="66" y="238" type="line"/>
      <point x="570" y="238" type="line"/>
      <point x="570" y="266" type="line"/>
      <point x="66" y="266" type="line"/>
      <point x="308" y="498" type="line"/>
      <point x="288" y="518" type="line"/>
      <point x="20" y="254" type="line"/>
    </contour>
  </outline>
</glyph>
<glyph name="arrowup" format="1">
  <advance width="600"/>
  <unicode hex="2191"/>
  <outline>
    <contour>
      <point x="298" y="526" type="line"/>
      <point x="34" y="258" type="line"/>
      <point x="54" y="238" type="line"/>
      <point x="286" y="480" type="line"/>
      <point x="286" y="-24" type="line"/>
      <point x="314" y="-24" type="line"/>
      <point x="314" y="480" type="line"/>
      <point x="546" y="238" type="line"/>
      <point x="566" y="258" type="line"/>
      <point x="302" y="526" type="line"/>
    </contour>
  </outline>
</glyph>
<glyph name="partialdiff" format="1">
  <advance width="600"/>
  <unicode hex="2202"/>
  <outline>
    <contour>
      <point x="262" y="16" type="curve" smooth="yes"/>
      <point x="186" y="16"/>
      <point x="122" y="82"/>
      <point x="122" y="178" type="curve" smooth="yes"/>
      <point x="122" y="276"/>
      <point x="174" y="368"/>
      <point x="306" y="368" type="curve" smooth="yes"/>
      <point x="357" y="368"/>
      <point x="414" y="345"/>
      <point x="471" y="281" type="curve"/>
      <point x="452" y="131"/>
      <point x="380" y="16"/>
    </contour>
    <contour>
      <point x="192" y="590" type="line"/>
      <point x="224" y="624"/>
      <point x="268" y="644"/>
      <point x="312" y="644" type="curve" smooth="yes"/>
      <point x="404" y="644"/>
      <point x="476" y="574"/>
      <point x="476" y="362" type="curve" smooth="yes"/>
      <point x="476" y="347"/>
      <point x="476" y="332"/>
      <point x="475" y="318" type="curve"/>
      <point x="429" y="366"/>
      <point x="368" y="396"/>
      <point x="308" y="396" type="curve" smooth="yes"/>
      <point x="166" y="396"/>
      <point x="90" y="304"/>
      <point x="90" y="176" type="curve" smooth="yes"/>
      <point x="90" y="58"/>
      <point x="172" y="-12"/>
      <point x="260" y="-12" type="curve" smooth="yes"/>
      <point x="410" y="-12"/>
      <point x="508" y="140"/>
      <point x="508" y="362" type="curve" smooth="yes"/>
      <point x="508" y="588"/>
      <point x="422" y="672"/>
      <point x="314" y="672" type="curve" smooth="yes"/>
      <point x="258" y="672"/>
      <point x="208" y="648"/>
      <point x="174" y="610" type="curve"/>
    </contour>
  </outline>
</glyph>
<glyph name="product" format="1">
  <advance width="600"/>
  <unicode hex="220F"/>
  <outline>
    <contour>
      <point x="74" y="-120" type="line"/>
      <point x="106" y="-120" type="line"/>
      <point x="106" y="612" type="line"/>
      <point x="492" y="612" type="line"/>
      <point x="492" y="-120" type="line"/>
      <point x="526" y="-120" type="line"/>
      <point x="526" y="640" type="line"/>
      <point x="74" y="640" type="line"/>
    </contour>
  </outline>
</glyph>
<glyph name="integral" format="1">
  <advance width="600"/>
  <unicode hex="222B"/>
  <outline>
    <contour>
      <point x="223" y="-126" type="curve"/>
      <point x="217" y="-152" type="line"/>
      <point x="225" y="-156"/>
      <point x="239" y="-158"/>
      <point x="257" y="-158" type="curve" smooth="yes"/>
      <point x="337" y="-158"/>
      <point x="355" y="-66"/>
      <point x="355" y="56" type="curve" smooth="yes"/>
      <point x="355" y="190"/>
      <point x="311" y="436"/>
      <point x="311" y="576" type="curve" smooth="yes"/>
      <point x="311" y="686"/>
      <point x="321" y="760"/>
      <point x="379" y="760" type="curve" smooth="yes"/>
      <point x="393" y="760"/>
      <point x="405" y="758"/>
      <point x="413" y="756" type="curve"/>
      <point x="419" y="782" type="line"/>
      <point x="413" y="786"/>
      <point x="397" y="788"/>
      <point x="381" y="788" type="curve" smooth="yes"/>
      <point x="299" y="788"/>
      <point x="281" y="694"/>
      <point x="281" y="574" type="curve" smooth="yes"/>
      <point x="281" y="440"/>
      <point x="327" y="192"/>
      <point x="327" y="52" type="curve" smooth="yes"/>
      <point x="327" y="-58"/>
      <point x="317" y="-130"/>
      <point x="257" y="-130" type="curve" smooth="yes"/>
      <point x="243" y="-130"/>
      <point x="231" y="-128"/>
    </contour>
  </outline>
</glyph>
<glyph name="Abrevegrave" format="1">
  <advance width="600"/>
  <outline>
    <contour>
      <point x="334" y="798" type="line"/>
      <point x="252" y="892" type="line"/>
      <point x="212" y="892" type="line"/>
      <point x="306" y="798" type="line"/>
    </contour>
    <contour>
      <point x="384" y="810" type="line"/>
      <point x="376" y="774"/>
      <point x="352" y="738"/>
      <point x="300" y="738" type="curve" smooth="yes"/>
      <point x="248" y="738"/>
      <point x="224" y="774"/>
      <point x="216" y="810" type="curve"/>
      <point x="190" y="810" type="line"/>
      <point x="196" y="768"/>
      <point x="230" y="712"/>
      <point x="300" y="712" type="curve" smooth="yes"/>
      <point x="370" y="712"/>
      <point x="404" y="768"/>
      <point x="410" y="810" type="curve"/>
    </contour>
    <contour>
      <point x="175" y="264" type="line"/>
      <point x="222" y="396" type="line" smooth="yes"/>
      <point x="250" y="476"/>
      <point x="274" y="544"/>
      <point x="298" y="626" type="curve"/>
      <point x="302" y="626" type="line"/>
      <point x="326" y="544"/>
      <point x="350" y="476"/>
      <point x="378" y="396" type="curve" smooth="yes"/>
      <point x="424" y="264" type="line"/>
    </contour>
    <contour>
      <point x="516" y="0" type="line"/>
      <point x="550" y="0" type="line"/>
      <point x="314" y="660" type="line"/>
      <point x="286" y="660" type="line"/>
      <point x="50" y="0" type="line"/>
      <point x="82" y="0" type="line"/>
      <point x="165" y="236" type="line"/>
      <point x="434" y="236" type="line"/>
    </contour>
  </outline>
</glyph>
<glyph name="Acircumflexacute" format="1">
  <advance width="600"/>
  <outline>
    <contour>
      <point x="484" y="874" type="line"/>
      <point x="446" y="874" type="line"/>
      <point x="374" y="770" type="line"/>
      <point x="400" y="770" type="line"/>
    </contour>
    <contour>
      <point x="298" y="778" type="line"/>
      <point x="302" y="778" type="line"/>
      <point x="374" y="710" type="line"/>
      <point x="404" y="710" type="line"/>
      <point x="314" y="808" type="line"/>
      <point x="286" y="808" type="line"/>
      <point x="196" y="710" type="line"/>
      <point x="226" y="710" type="line"/>
    </contour>
    <contour>
      <point x="175" y="264" type="line"/>
      <point x="222" y="396" type="line" smooth="yes"/>
      <point x="250" y="476"/>
      <point x="274" y="544"/>
      <point x="298" y="626" type="curve"/>
      <point x="302" y="626" type="line"/>
      <point x="326" y="544"/>
      <point x="350" y="476"/>
      <point x="378" y="396" type="curve" smooth="yes"/>
      <point x="424" y="264" type="line"/>
    </contour>
    <contour>
      <point x="516" y="0" type="line"/>
      <point x="550" y="0" type="line"/>
      <point x="314" y="660" type="line"/>
      <point x="286" y="660" type="line"/>
      <point x="50" y="0" type="line"/>
      <point x="82" y="0" type="line"/>
      <point x="165" y="236" type="line"/>
      <point x="434" y="236" type="line"/>
    </contour>
  </outline>
</glyph>
<glyph name="Acircumflexdotbelow" format="1">
  <advance width="600"/>
  <outline>
    <contour>
      <point x="298" y="784" type="line"/>
      <point x="302" y="784" type="line"/>
      <point x="380" y="710" type="line"/>
      <point x="410" y="710" type="line"/>
      <point x="314" y="814" type="line"/>
      <point x="286" y="814" type="line"/>
      <point x="190" y="710" type="line"/>
      <point x="220" y="710" type="line"/>
    </contour>
    <contour>
      <point x="300" y="-120" type="curve" smooth="yes"/>
      <point x="278" y="-120"/>
      <point x="260" y="-136"/>
      <point x="260" y="-162" type="curve" smooth="yes"/>
      <point x="260" y="-188"/>
      <point x="278" y="-204"/>
      <point x="300" y="-204" type="curve" smooth="yes"/>
      <point x="322" y="-204"/>
      <point x="340" y="-188"/>
      <point x="340" y="-162" type="curve" smooth="yes"/>
      <point x="340" y="-136"/>
      <point x="322" y="-120"/>
    </contour>
    <contour>
      <point x="175" y="264" type="line"/>
      <point x="222" y="396" type="line" smooth="yes"/>
      <point x="250" y="476"/>
      <point x="274" y="544"/>
      <point x="298" y="626" type="curve"/>
      <point x="302" y="626" type="line"/>
      <point x="326" y="544"/>
      <point x="350" y="476"/>
      <point x="378" y="396" type="curve" smooth="yes"/>
      <point x="424" y="264" type="line"/>
    </contour>
    <contour>
      <point x="550" y="0" type="line"/>
      <point x="314" y="660" type="line"/>
      <point x="286" y="660" type="line"/>
      <point x="50" y="0" type="line"/>
      <point x="82" y="0" type="line"/>
      <point x="165" y="236" type="line"/>
      <point x="434" y="236" type="line"/>
      <point x="516" y="0" type="line"/>
    </contour>
  </outline>
</glyph>
<glyph name="Ddotbelow" format="1">
  <advance width="600"/>
  <outline>
    <contour>
      <point x="100" y="0" type="line"/>
      <point x="248" y="0" type="line" smooth="yes"/>
      <point x="452" y="0"/>
      <point x="544" y="136"/>
      <point x="544" y="332" type="curve" smooth="yes"/>
      <point x="544" y="528"/>
      <point x="452" y="660"/>
      <point x="248" y="660" type="curve" smooth="yes"/>
      <point x="100" y="660" type="line"/>
    </contour>
    <contour>
      <point x="132" y="28" type="line"/>
      <point x="132" y="632" type="line"/>
      <point x="244" y="632" type="line" smooth="yes"/>
      <point x="432" y="632"/>
      <point x="510" y="506"/>
      <point x="510" y="332" type="curve" smooth="yes"/>
      <point x="510" y="158"/>
      <point x="432" y="28"/>
      <point x="244" y="28" type="curve" smooth="yes"/>
    </contour>
    <contour>
      <point x="290" y="-204" type="curve" smooth="yes"/>
      <point x="312" y="-204"/>
      <point x="330" y="-188"/>
      <point x="330" y="-162" type="curve" smooth="yes"/>
      <point x="330" y="-136"/>
      <point x="312" y="-120"/>
      <point x="290" y="-120" type="curve" smooth="yes"/>
      <point x="268" y="-120"/>
      <point x="250" y="-136"/>
      <point x="250" y="-162" type="curve" smooth="yes"/>
      <point x="250" y="-188"/>
      <point x="268" y="-204"/>
    </contour>
  </outline>
</glyph>
<glyph name="Ecircumflexdotbelow" format="1">
  <advance width="600"/>
  <outline>
    <contour>
      <point x="132" y="0" type="line"/>
      <point x="526" y="0" type="line"/>
      <point x="526" y="28" type="line"/>
      <point x="164" y="28" type="line"/>
      <point x="164" y="338" type="line"/>
      <point x="460" y="338" type="line"/>
      <point x="460" y="366" type="line"/>
      <point x="164" y="366" type="line"/>
      <point x="164" y="632" type="line"/>
      <point x="516" y="632" type="line"/>
      <point x="516" y="660" type="line"/>
      <point x="132" y="660" type="line"/>
    </contour>
    <contour>
      <point x="258" y="710" type="line"/>
      <point x="336" y="784" type="line"/>
      <point x="340" y="784" type="line"/>
      <point x="418" y="710" type="line"/>
      <point x="448" y="710" type="line"/>
      <point x="352" y="814" type="line"/>
      <point x="324" y="814" type="line"/>
      <point x="228" y="710" type="line"/>
    </contour>
    <contour>
      <point x="342" y="-204" type="curve" smooth="yes"/>
      <point x="364" y="-204"/>
      <point x="382" y="-188"/>
      <point x="382" y="-162" type="curve" smooth="yes"/>
      <point x="382" y="-136"/>
      <point x="364" y="-120"/>
      <point x="342" y="-120" type="curve" smooth="yes"/>
      <point x="320" y="-120"/>
      <point x="302" y="-136"/>
      <point x="302" y="-162" type="curve" smooth="yes"/>
      <point x="302" y="-188"/>
      <point x="320" y="-204"/>
    </contour>
  </outline>
</glyph>
<glyph name="Edotbelow" format="1">
  <advance width="600"/>
  <outline>
    <contour>
      <point x="132" y="0" type="line"/>
      <point x="526" y="0" type="line"/>
      <point x="526" y="28" type="line"/>
      <point x="164" y="28" type="line"/>
      <point x="164" y="338" type="line"/>
      <point x="460" y="338" type="line"/>
      <point x="460" y="366" type="line"/>
      <point x="164" y="366" type="line"/>
      <point x="164" y="632" type="line"/>
      <point x="516" y="632" type="line"/>
      <point x="516" y="660" type="line"/>
      <point x="132" y="660" type="line"/>
    </contour>
    <contour>
      <point x="342" y="-204" type="curve" smooth="yes"/>
      <point x="364" y="-204"/>
      <point x="382" y="-188"/>
      <point x="382" y="-162" type="curve" smooth="yes"/>
      <point x="382" y="-136"/>
      <point x="364" y="-120"/>
      <point x="342" y="-120" type="curve" smooth="yes"/>
      <point x="320" y="-120"/>
      <point x="302" y="-136"/>
      <point x="302" y="-162" type="curve" smooth="yes"/>
      <point x="302" y="-188"/>
      <point x="320" y="-204"/>
    </contour>
  </outline>
</glyph>
<glyph name="Etilde" format="1">
  <advance width="600"/>
  <outline>
    <contour>
      <point x="132" y="0" type="line"/>
      <point x="526" y="0" type="line"/>
      <point x="526" y="28" type="line"/>
      <point x="164" y="28" type="line"/>
      <point x="164" y="338" type="line"/>
      <point x="460" y="338" type="line"/>
      <point x="460" y="366" type="line"/>
      <point x="164" y="366" type="line"/>
      <point x="164" y="632" type="line"/>
      <point x="516" y="632" type="line"/>
      <point x="516" y="660" type="line"/>
      <point x="132" y="660" type="line"/>
    </contour>
    <contour>
      <point x="396" y="718" type="curve" smooth="yes"/>
      <point x="440" y="718"/>
      <point x="460" y="766"/>
      <point x="462" y="804" type="curve"/>
      <point x="440" y="804" type="line"/>
      <point x="436" y="770"/>
      <point x="420" y="746"/>
      <point x="398" y="746" type="curve" smooth="yes"/>
      <point x="356" y="746"/>
      <point x="332" y="804"/>
      <point x="280" y="804" type="curve" smooth="yes"/>
      <point x="236" y="804"/>
      <point x="216" y="756"/>
      <point x="214" y="718" type="curve"/>
      <point x="236" y="718" type="line"/>
      <point x="240" y="752"/>
      <point x="256" y="776"/>
      <point x="278" y="776" type="curve" smooth="yes"/>
      <point x="320" y="776"/>
      <point x="344" y="718"/>
    </contour>
  </outline>
</glyph>
